%TF.GenerationSoftware,KiCad,Pcbnew,9.0.2*%
%TF.CreationDate,2025-12-08T13:50:51-08:00*%
%TF.ProjectId,BLV_PCB,424c565f-5043-4422-9e6b-696361645f70,rev?*%
%TF.SameCoordinates,Original*%
%TF.FileFunction,Paste,Top*%
%TF.FilePolarity,Positive*%
%FSLAX46Y46*%
G04 Gerber Fmt 4.6, Leading zero omitted, Abs format (unit mm)*
G04 Created by KiCad (PCBNEW 9.0.2) date 2025-12-08 13:50:51*
%MOMM*%
%LPD*%
G01*
G04 APERTURE LIST*
G04 Aperture macros list*
%AMRoundRect*
0 Rectangle with rounded corners*
0 $1 Rounding radius*
0 $2 $3 $4 $5 $6 $7 $8 $9 X,Y pos of 4 corners*
0 Add a 4 corners polygon primitive as box body*
4,1,4,$2,$3,$4,$5,$6,$7,$8,$9,$2,$3,0*
0 Add four circle primitives for the rounded corners*
1,1,$1+$1,$2,$3*
1,1,$1+$1,$4,$5*
1,1,$1+$1,$6,$7*
1,1,$1+$1,$8,$9*
0 Add four rect primitives between the rounded corners*
20,1,$1+$1,$2,$3,$4,$5,0*
20,1,$1+$1,$4,$5,$6,$7,0*
20,1,$1+$1,$6,$7,$8,$9,0*
20,1,$1+$1,$8,$9,$2,$3,0*%
G04 Aperture macros list end*
%ADD10R,4.000000X1.300000*%
%ADD11RoundRect,0.200000X0.700000X0.200000X-0.700000X0.200000X-0.700000X-0.200000X0.700000X-0.200000X0*%
%ADD12RoundRect,0.200000X0.275000X-0.200000X0.275000X0.200000X-0.275000X0.200000X-0.275000X-0.200000X0*%
%ADD13RoundRect,0.140000X-0.140000X-0.170000X0.140000X-0.170000X0.140000X0.170000X-0.140000X0.170000X0*%
%ADD14RoundRect,0.225000X-0.225000X-0.250000X0.225000X-0.250000X0.225000X0.250000X-0.225000X0.250000X0*%
%ADD15RoundRect,0.140000X0.140000X0.170000X-0.140000X0.170000X-0.140000X-0.170000X0.140000X-0.170000X0*%
%ADD16RoundRect,0.140000X-0.170000X0.140000X-0.170000X-0.140000X0.170000X-0.140000X0.170000X0.140000X0*%
%ADD17R,1.700000X0.900000*%
%ADD18R,1.500000X0.800000*%
%ADD19R,2.000000X1.450000*%
%ADD20RoundRect,0.225000X0.225000X0.250000X-0.225000X0.250000X-0.225000X-0.250000X0.225000X-0.250000X0*%
%ADD21RoundRect,0.135000X0.135000X0.185000X-0.135000X0.185000X-0.135000X-0.185000X0.135000X-0.185000X0*%
%ADD22RoundRect,0.243750X-0.243750X-0.456250X0.243750X-0.456250X0.243750X0.456250X-0.243750X0.456250X0*%
%ADD23R,0.900000X1.700000*%
%ADD24R,2.500000X1.700000*%
%ADD25R,1.700000X2.500000*%
%ADD26RoundRect,0.135000X-0.135000X-0.185000X0.135000X-0.185000X0.135000X0.185000X-0.135000X0.185000X0*%
%ADD27RoundRect,0.135000X-0.185000X0.135000X-0.185000X-0.135000X0.185000X-0.135000X0.185000X0.135000X0*%
%ADD28RoundRect,0.135000X0.185000X-0.135000X0.185000X0.135000X-0.185000X0.135000X-0.185000X-0.135000X0*%
%ADD29RoundRect,0.140000X0.170000X-0.140000X0.170000X0.140000X-0.170000X0.140000X-0.170000X-0.140000X0*%
%ADD30RoundRect,0.150000X0.150000X-0.587500X0.150000X0.587500X-0.150000X0.587500X-0.150000X-0.587500X0*%
%ADD31RoundRect,0.200000X0.200000X0.275000X-0.200000X0.275000X-0.200000X-0.275000X0.200000X-0.275000X0*%
%ADD32RoundRect,0.227500X-0.227500X-0.227500X0.227500X-0.227500X0.227500X0.227500X-0.227500X0.227500X0*%
%ADD33RoundRect,0.050000X-0.350000X-0.050000X0.350000X-0.050000X0.350000X0.050000X-0.350000X0.050000X0*%
%ADD34RoundRect,0.050000X-0.050000X-0.350000X0.050000X-0.350000X0.050000X0.350000X-0.050000X0.350000X0*%
%ADD35R,0.600000X1.450000*%
%ADD36R,0.300000X1.450000*%
%ADD37RoundRect,0.162500X-0.650000X-0.162500X0.650000X-0.162500X0.650000X0.162500X-0.650000X0.162500X0*%
%ADD38RoundRect,0.150000X-0.150000X0.587500X-0.150000X-0.587500X0.150000X-0.587500X0.150000X0.587500X0*%
%ADD39R,0.700000X1.700000*%
%ADD40RoundRect,0.250000X-0.450000X-0.350000X0.450000X-0.350000X0.450000X0.350000X-0.450000X0.350000X0*%
%ADD41RoundRect,0.025000X0.100000X0.145000X-0.100000X0.145000X-0.100000X-0.145000X0.100000X-0.145000X0*%
%ADD42RoundRect,0.106000X0.644000X0.424000X-0.644000X0.424000X-0.644000X-0.424000X0.644000X-0.424000X0*%
%ADD43RoundRect,0.060000X0.240000X0.060000X-0.240000X0.060000X-0.240000X-0.060000X0.240000X-0.060000X0*%
%ADD44RoundRect,0.250000X0.250000X0.475000X-0.250000X0.475000X-0.250000X-0.475000X0.250000X-0.475000X0*%
%ADD45RoundRect,0.243750X-0.456250X0.243750X-0.456250X-0.243750X0.456250X-0.243750X0.456250X0.243750X0*%
G04 APERTURE END LIST*
D10*
%TO.C,L2*%
X179900000Y-55700000D03*
X179900000Y-58400000D03*
%TD*%
D11*
%TO.C,U6*%
X164800000Y-124650000D03*
X164800000Y-123550000D03*
X164800000Y-122450000D03*
X164800000Y-121350000D03*
X164800000Y-120250000D03*
X164800000Y-119150000D03*
X164800000Y-118050000D03*
X164800000Y-115050000D03*
X164800000Y-113950000D03*
X164800000Y-112850000D03*
X164800000Y-111750000D03*
X164800000Y-110650000D03*
X152800000Y-110650000D03*
X152800000Y-111750000D03*
X152800000Y-112850000D03*
X152800000Y-113950000D03*
X152800000Y-115050000D03*
X152800000Y-118050000D03*
X152800000Y-119150000D03*
X152800000Y-120250000D03*
X152800000Y-121350000D03*
X152800000Y-122450000D03*
X152800000Y-123550000D03*
X152800000Y-124650000D03*
%TD*%
D12*
%TO.C,R11*%
X184500000Y-60325000D03*
X184500000Y-58675000D03*
%TD*%
D13*
%TO.C,C1*%
X154595000Y-80050000D03*
X155555000Y-80050000D03*
%TD*%
D14*
%TO.C,C5*%
X158625000Y-63940000D03*
X160175000Y-63940000D03*
%TD*%
D13*
%TO.C,C14*%
X162995000Y-71400000D03*
X163955000Y-71400000D03*
%TD*%
D15*
%TO.C,C6*%
X151755000Y-70000000D03*
X150795000Y-70000000D03*
%TD*%
D16*
%TO.C,C12*%
X155575000Y-76520000D03*
X155575000Y-77480000D03*
%TD*%
%TO.C,C20*%
X172100000Y-56900000D03*
X172100000Y-57860000D03*
%TD*%
D17*
%TO.C,SW1*%
X147000000Y-46600000D03*
X147000000Y-50000000D03*
%TD*%
D18*
%TO.C,J11*%
X136500000Y-106575000D03*
X136500000Y-105475000D03*
X136500000Y-104375000D03*
X136500000Y-103275000D03*
X136500000Y-102175000D03*
X136500000Y-101075000D03*
X136500000Y-99975000D03*
X136500000Y-98875000D03*
D19*
X133900000Y-110250000D03*
X142200000Y-110250000D03*
X133900000Y-96500000D03*
X142200000Y-96500000D03*
%TD*%
D20*
%TO.C,C19*%
X176675000Y-53050000D03*
X175125000Y-53050000D03*
%TD*%
D16*
%TO.C,C7*%
X158075000Y-77140000D03*
X158075000Y-78100000D03*
%TD*%
D21*
%TO.C,R23*%
X183510000Y-110000000D03*
X182490000Y-110000000D03*
%TD*%
D22*
%TO.C,D2*%
X134125000Y-76700000D03*
X136000000Y-76700000D03*
%TD*%
D23*
%TO.C,SW2*%
X156800000Y-95800000D03*
X160200000Y-95800000D03*
%TD*%
D24*
%TO.C,U5*%
X191008225Y-101264000D03*
X191008225Y-98724000D03*
X191008225Y-96184000D03*
X191008225Y-88614000D03*
X191008225Y-86074000D03*
X191008225Y-83534000D03*
X191008225Y-80994000D03*
X191008225Y-78454000D03*
X191008225Y-75914000D03*
X191008225Y-73374000D03*
X191008225Y-70834000D03*
D25*
X185458225Y-68324000D03*
X182918225Y-68324000D03*
X180378225Y-68324000D03*
X177838225Y-68324000D03*
X175298225Y-68324000D03*
X172758225Y-68324000D03*
D24*
X167208225Y-70834000D03*
X167208225Y-73374000D03*
X167208225Y-75914000D03*
X167208225Y-78454000D03*
X167208225Y-80994000D03*
X167208225Y-83534000D03*
X167208225Y-86074000D03*
X167208225Y-88614000D03*
X167208225Y-96184000D03*
X167208225Y-98724000D03*
X167208225Y-101264000D03*
%TD*%
D21*
%TO.C,R7*%
X145441668Y-54353894D03*
X144421668Y-54353894D03*
%TD*%
D26*
%TO.C,R2*%
X144431668Y-56053894D03*
X145451668Y-56053894D03*
%TD*%
D15*
%TO.C,C11*%
X152675000Y-72000000D03*
X151715000Y-72000000D03*
%TD*%
D27*
%TO.C,R8*%
X155825000Y-61790000D03*
X155825000Y-62810000D03*
%TD*%
D28*
%TO.C,R17*%
X177700000Y-46410000D03*
X177700000Y-45390000D03*
%TD*%
%TO.C,R18*%
X187500000Y-46510000D03*
X187500000Y-45490000D03*
%TD*%
D29*
%TO.C,C16*%
X154775000Y-62780000D03*
X154775000Y-61820000D03*
%TD*%
D15*
%TO.C,C18*%
X189830000Y-50500000D03*
X188870000Y-50500000D03*
%TD*%
D30*
%TO.C,Q2*%
X188000000Y-49000000D03*
X189900000Y-49000000D03*
X188950000Y-47125000D03*
%TD*%
D15*
%TO.C,C3*%
X151460000Y-56700000D03*
X150500000Y-56700000D03*
%TD*%
D16*
%TO.C,C8*%
X162175000Y-65160000D03*
X162175000Y-66120000D03*
%TD*%
D28*
%TO.C,R5*%
X155500000Y-96300000D03*
X155500000Y-95280000D03*
%TD*%
D27*
%TO.C,R3*%
X148900000Y-54990000D03*
X148900000Y-56010000D03*
%TD*%
D31*
%TO.C,R13*%
X139225000Y-76700000D03*
X137575000Y-76700000D03*
%TD*%
%TO.C,R14*%
X139150000Y-91700000D03*
X137500000Y-91700000D03*
%TD*%
D32*
%TO.C,U2*%
X156245000Y-69870000D03*
X156245000Y-71000000D03*
X156245000Y-72130000D03*
X157375000Y-69870000D03*
X157375000Y-71000000D03*
X157375000Y-72130000D03*
X158505000Y-69870000D03*
X158505000Y-71000000D03*
X158505000Y-72130000D03*
D33*
X153925000Y-68200000D03*
X153925000Y-68600000D03*
X153925000Y-69000000D03*
X153925000Y-69400000D03*
X153925000Y-69800000D03*
X153925000Y-70200000D03*
X153925000Y-70600000D03*
X153925000Y-71000000D03*
X153925000Y-71400000D03*
X153925000Y-71800000D03*
X153925000Y-72200000D03*
X153925000Y-72600000D03*
X153925000Y-73000000D03*
X153925000Y-73400000D03*
X153925000Y-73800000D03*
D34*
X154575000Y-74450000D03*
X154975000Y-74450000D03*
X155375000Y-74450000D03*
X155775000Y-74450000D03*
X156175000Y-74450000D03*
X156575000Y-74450000D03*
X156975000Y-74450000D03*
X157375000Y-74450000D03*
X157775000Y-74450000D03*
X158175000Y-74450000D03*
X158575000Y-74450000D03*
X158975000Y-74450000D03*
X159375000Y-74450000D03*
X159775000Y-74450000D03*
X160175000Y-74450000D03*
D33*
X160825000Y-73800000D03*
X160825000Y-73400000D03*
X160825000Y-73000000D03*
X160825000Y-72600000D03*
X160825000Y-72200000D03*
X160825000Y-71800000D03*
X160825000Y-71400000D03*
X160825000Y-71000000D03*
X160825000Y-70600000D03*
X160825000Y-70200000D03*
X160825000Y-69800000D03*
X160825000Y-69400000D03*
X160825000Y-69000000D03*
X160825000Y-68600000D03*
X160825000Y-68200000D03*
D34*
X160175000Y-67550000D03*
X159775000Y-67550000D03*
X159375000Y-67550000D03*
X158975000Y-67550000D03*
X158575000Y-67550000D03*
X158175000Y-67550000D03*
X157775000Y-67550000D03*
X157375000Y-67550000D03*
X156975000Y-67550000D03*
X156575000Y-67550000D03*
X156175000Y-67550000D03*
X155775000Y-67550000D03*
X155375000Y-67550000D03*
X154975000Y-67550000D03*
X154575000Y-67550000D03*
%TD*%
D35*
%TO.C,J10*%
X177250000Y-121755000D03*
X178050000Y-121755000D03*
D36*
X179250000Y-121755000D03*
X180250000Y-121755000D03*
X180750000Y-121755000D03*
X181750000Y-121755000D03*
D35*
X182950000Y-121755000D03*
X183750000Y-121755000D03*
X183750000Y-121755000D03*
X182950000Y-121755000D03*
D36*
X182250000Y-121755000D03*
X181250000Y-121755000D03*
X179750000Y-121755000D03*
X178750000Y-121755000D03*
D35*
X178050000Y-121755000D03*
X177250000Y-121755000D03*
%TD*%
D20*
%TO.C,C22*%
X176675000Y-63550000D03*
X175125000Y-63550000D03*
%TD*%
D22*
%TO.C,D3*%
X134062500Y-91900000D03*
X135937500Y-91900000D03*
%TD*%
D37*
%TO.C,U1*%
X144787500Y-58295000D03*
X144787500Y-59565000D03*
X144787500Y-60835000D03*
X144787500Y-62105000D03*
X151962500Y-62105000D03*
X151962500Y-60835000D03*
X151962500Y-59565000D03*
X151962500Y-58295000D03*
%TD*%
D21*
%TO.C,R27*%
X167620000Y-119200000D03*
X166600000Y-119200000D03*
%TD*%
D16*
%TO.C,C29*%
X149900000Y-123600000D03*
X149900000Y-124560000D03*
%TD*%
D38*
%TO.C,Q1*%
X177350000Y-48262500D03*
X175450000Y-48262500D03*
X176400000Y-50137500D03*
%TD*%
D39*
%TO.C,L1*%
X158765000Y-62040000D03*
X160165000Y-62040000D03*
%TD*%
D13*
%TO.C,C15*%
X162995000Y-68600000D03*
X163955000Y-68600000D03*
%TD*%
D40*
%TO.C,Y1*%
X155475000Y-84065000D03*
X157675000Y-84065000D03*
X157675000Y-82365000D03*
X155475000Y-82365000D03*
%TD*%
D17*
%TO.C,SW3*%
X182000000Y-111300000D03*
X182000000Y-114700000D03*
%TD*%
D15*
%TO.C,C10*%
X152580000Y-67800000D03*
X151620000Y-67800000D03*
%TD*%
D14*
%TO.C,C4*%
X158625000Y-65440000D03*
X160175000Y-65440000D03*
%TD*%
D35*
%TO.C,J8*%
X160050000Y-47905000D03*
X159250000Y-47905000D03*
D36*
X158050000Y-47905000D03*
X157050000Y-47905000D03*
X156550000Y-47905000D03*
X155550000Y-47905000D03*
D35*
X154350000Y-47905000D03*
X153550000Y-47905000D03*
X153550000Y-47905000D03*
X154350000Y-47905000D03*
D36*
X155050000Y-47905000D03*
X156050000Y-47905000D03*
X157550000Y-47905000D03*
X158550000Y-47905000D03*
D35*
X159250000Y-47905000D03*
X160050000Y-47905000D03*
%TD*%
D20*
%TO.C,C21*%
X176675000Y-61500000D03*
X175125000Y-61500000D03*
%TD*%
D28*
%TO.C,R24*%
X182000000Y-120010000D03*
X182000000Y-118990000D03*
%TD*%
D16*
%TO.C,C30*%
X151000000Y-123600000D03*
X151000000Y-124560000D03*
%TD*%
D41*
%TO.C,U3*%
X175250000Y-58580000D03*
X175250000Y-55520000D03*
D42*
X175000000Y-57680000D03*
X175000000Y-56420000D03*
D41*
X174750000Y-58580000D03*
X174750000Y-55520000D03*
D43*
X176400000Y-58050000D03*
X176400000Y-57550000D03*
X176400000Y-57050000D03*
X176400000Y-56550000D03*
X176400000Y-56050000D03*
X173600000Y-56050000D03*
X173600000Y-56550000D03*
X173600000Y-57050000D03*
X173600000Y-57550000D03*
X173600000Y-58050000D03*
%TD*%
D28*
%TO.C,R4*%
X156975000Y-78130000D03*
X156975000Y-77110000D03*
%TD*%
D22*
%TO.C,D1*%
X134062500Y-61400000D03*
X135937500Y-61400000D03*
%TD*%
D27*
%TO.C,R10*%
X172100000Y-54790000D03*
X172100000Y-55810000D03*
%TD*%
%TO.C,R16*%
X158300000Y-49720000D03*
X158300000Y-50740000D03*
%TD*%
D15*
%TO.C,C2*%
X158435000Y-80050000D03*
X157475000Y-80050000D03*
%TD*%
D27*
%TO.C,R1*%
X147700000Y-54990000D03*
X147700000Y-56010000D03*
%TD*%
D12*
%TO.C,R12*%
X137600000Y-63050000D03*
X137600000Y-61400000D03*
%TD*%
D44*
%TO.C,C26*%
X134200000Y-94200000D03*
X132300000Y-94200000D03*
%TD*%
D27*
%TO.C,R15*%
X155300000Y-49710000D03*
X155300000Y-50730000D03*
%TD*%
D13*
%TO.C,C27*%
X135520000Y-94700000D03*
X136480000Y-94700000D03*
%TD*%
D27*
%TO.C,R9*%
X156825000Y-61790000D03*
X156825000Y-62810000D03*
%TD*%
D45*
%TO.C,D4*%
X184500000Y-55062500D03*
X184500000Y-56937500D03*
%TD*%
D27*
%TO.C,R6*%
X162175000Y-63120000D03*
X162175000Y-64140000D03*
%TD*%
D13*
%TO.C,C9*%
X162995000Y-70400000D03*
X163955000Y-70400000D03*
%TD*%
D28*
%TO.C,R25*%
X179000000Y-120010000D03*
X179000000Y-118990000D03*
%TD*%
D21*
%TO.C,R26*%
X167610000Y-120300000D03*
X166590000Y-120300000D03*
%TD*%
D16*
%TO.C,C13*%
X162200000Y-74820000D03*
X162200000Y-75780000D03*
%TD*%
D13*
%TO.C,C17*%
X175520000Y-46600000D03*
X176480000Y-46600000D03*
%TD*%
D29*
%TO.C,C28*%
X151000000Y-122380000D03*
X151000000Y-121420000D03*
%TD*%
M02*
