%TF.GenerationSoftware,KiCad,Pcbnew,9.0.2*%
%TF.CreationDate,2025-12-08T13:49:20-08:00*%
%TF.ProjectId,BLV_PCB,424c565f-5043-4422-9e6b-696361645f70,rev?*%
%TF.SameCoordinates,Original*%
%TF.FileFunction,Copper,L4,Bot*%
%TF.FilePolarity,Positive*%
%FSLAX46Y46*%
G04 Gerber Fmt 4.6, Leading zero omitted, Abs format (unit mm)*
G04 Created by KiCad (PCBNEW 9.0.2) date 2025-12-08 13:49:20*
%MOMM*%
%LPD*%
G01*
G04 APERTURE LIST*
G04 Aperture macros list*
%AMRoundRect*
0 Rectangle with rounded corners*
0 $1 Rounding radius*
0 $2 $3 $4 $5 $6 $7 $8 $9 X,Y pos of 4 corners*
0 Add a 4 corners polygon primitive as box body*
4,1,4,$2,$3,$4,$5,$6,$7,$8,$9,$2,$3,0*
0 Add four circle primitives for the rounded corners*
1,1,$1+$1,$2,$3*
1,1,$1+$1,$4,$5*
1,1,$1+$1,$6,$7*
1,1,$1+$1,$8,$9*
0 Add four rect primitives between the rounded corners*
20,1,$1+$1,$2,$3,$4,$5,0*
20,1,$1+$1,$4,$5,$6,$7,0*
20,1,$1+$1,$6,$7,$8,$9,0*
20,1,$1+$1,$8,$9,$2,$3,0*%
G04 Aperture macros list end*
%TA.AperFunction,ComponentPad*%
%ADD10RoundRect,0.250000X-0.625000X0.350000X-0.625000X-0.350000X0.625000X-0.350000X0.625000X0.350000X0*%
%TD*%
%TA.AperFunction,ComponentPad*%
%ADD11O,1.750000X1.200000*%
%TD*%
%TA.AperFunction,ComponentPad*%
%ADD12R,1.700000X1.700000*%
%TD*%
%TA.AperFunction,ComponentPad*%
%ADD13C,1.700000*%
%TD*%
%TA.AperFunction,HeatsinkPad*%
%ADD14O,1.000000X2.100000*%
%TD*%
%TA.AperFunction,HeatsinkPad*%
%ADD15O,1.000000X1.600000*%
%TD*%
%TA.AperFunction,ComponentPad*%
%ADD16C,3.300000*%
%TD*%
%TA.AperFunction,ComponentPad*%
%ADD17C,2.400000*%
%TD*%
%TA.AperFunction,ComponentPad*%
%ADD18O,3.500000X2.500000*%
%TD*%
%TA.AperFunction,ComponentPad*%
%ADD19C,2.050000*%
%TD*%
%TA.AperFunction,ComponentPad*%
%ADD20C,2.250000*%
%TD*%
%TA.AperFunction,ViaPad*%
%ADD21C,0.700000*%
%TD*%
%TA.AperFunction,ViaPad*%
%ADD22C,0.600000*%
%TD*%
%TA.AperFunction,Conductor*%
%ADD23C,0.150000*%
%TD*%
%TA.AperFunction,Conductor*%
%ADD24C,0.200000*%
%TD*%
G04 APERTURE END LIST*
D10*
%TO.P,J3,1,Pin_1*%
%TO.N,/Cube2_UART_TX*%
X136500000Y-82000000D03*
D11*
%TO.P,J3,2,Pin_2*%
%TO.N,/Cube2_UART_RX*%
X136500000Y-84000000D03*
%TO.P,J3,3,Pin_3*%
%TO.N,unconnected-(J3-Pin_3-Pad3)*%
X136500000Y-86000000D03*
%TO.P,J3,4,Pin_4*%
%TO.N,GND*%
X136500000Y-88000000D03*
%TD*%
D10*
%TO.P,J2,1,Pin_1*%
%TO.N,/Cube1_UART_TX*%
X136500000Y-66740000D03*
D11*
%TO.P,J2,2,Pin_2*%
%TO.N,/Cube1_UART_RX*%
X136500000Y-68740000D03*
%TO.P,J2,3,Pin_3*%
%TO.N,unconnected-(J2-Pin_3-Pad3)*%
X136500000Y-70740000D03*
%TO.P,J2,4,Pin_4*%
%TO.N,GND*%
X136500000Y-72740000D03*
%TD*%
D12*
%TO.P,J6,1,Pin_1*%
%TO.N,GND*%
X140350000Y-87660000D03*
D13*
%TO.P,J6,2,Pin_2*%
%TO.N,/Cube2_UART_RX*%
X140350000Y-85120000D03*
%TO.P,J6,3,Pin_3*%
%TO.N,/Cube2_UART_TX*%
X140350000Y-82580000D03*
%TD*%
D14*
%TO.P,J10,S1,SHIELD*%
%TO.N,unconnected-(J10-SHIELD-PadS1)_1*%
X176180000Y-122670000D03*
D15*
%TO.N,unconnected-(J10-SHIELD-PadS1)_3*%
X176180000Y-126850000D03*
D14*
%TO.N,unconnected-(J10-SHIELD-PadS1)_2*%
X184820000Y-122670000D03*
D15*
%TO.N,unconnected-(J10-SHIELD-PadS1)*%
X184820000Y-126850000D03*
%TD*%
D16*
%TO.P,U4,*%
%TO.N,*%
X211500000Y-112600000D03*
X195500000Y-57400000D03*
D17*
X211500000Y-49200000D03*
D18*
%TO.P,U4,1,1*%
%TO.N,GND*%
X203500000Y-120720000D03*
%TO.P,U4,2,2*%
%TO.N,+BATT*%
X203500000Y-49280000D03*
%TD*%
D12*
%TO.P,J5,1,Pin_1*%
%TO.N,GND*%
X140350000Y-72420000D03*
D13*
%TO.P,J5,2,Pin_2*%
%TO.N,/Cube1_UART_RX*%
X140350000Y-69880000D03*
%TO.P,J5,3,Pin_3*%
%TO.N,/Cube1_UART_TX*%
X140350000Y-67340000D03*
%TD*%
D14*
%TO.P,J8,S1,SHIELD*%
%TO.N,unconnected-(J8-SHIELD-PadS1)*%
X161120000Y-46990000D03*
D15*
%TO.N,unconnected-(J8-SHIELD-PadS1)_3*%
X161120000Y-42810000D03*
D14*
%TO.N,unconnected-(J8-SHIELD-PadS1)_1*%
X152480000Y-46990000D03*
D15*
%TO.N,unconnected-(J8-SHIELD-PadS1)_2*%
X152480000Y-42810000D03*
%TD*%
D12*
%TO.P,J7,1,Pin_1*%
%TO.N,GND*%
X154160000Y-88900000D03*
D13*
%TO.P,J7,2,Pin_2*%
%TO.N,/MCU/SWCLK*%
X156700000Y-88900000D03*
%TO.P,J7,3,Pin_3*%
%TO.N,/MCU/SWD*%
X159240000Y-88900000D03*
%TD*%
D12*
%TO.P,J4,1,Pin_1*%
%TO.N,GND*%
X140350000Y-57180000D03*
D13*
%TO.P,J4,2,Pin_2*%
%TO.N,/Cube0_UART_RX*%
X140350000Y-54640000D03*
%TO.P,J4,3,Pin_3*%
%TO.N,/Cube0_UART_TX*%
X140350000Y-52100000D03*
%TD*%
D10*
%TO.P,J1,1,Pin_1*%
%TO.N,/Cube0_UART_TX*%
X136500000Y-51500000D03*
D11*
%TO.P,J1,2,Pin_2*%
%TO.N,/Cube0_UART_RX*%
X136500000Y-53500000D03*
%TO.P,J1,3,Pin_3*%
%TO.N,unconnected-(J1-Pin_3-Pad3)*%
X136500000Y-55500000D03*
%TO.P,J1,4,Pin_4*%
%TO.N,GND*%
X136500000Y-57500000D03*
%TD*%
D19*
%TO.P,J12,1,In*%
%TO.N,/GNSS & MicroSD/GNSS_ANT*%
X172200000Y-111600000D03*
D20*
%TO.P,J12,2,Ext*%
%TO.N,GND*%
X169660000Y-109060000D03*
X169660000Y-114140000D03*
X174740000Y-109060000D03*
X174740000Y-114140000D03*
%TD*%
D21*
%TO.N,+3V3*%
X155200000Y-124100000D03*
D22*
X135100000Y-98400000D03*
X182000000Y-64500000D03*
D21*
X150000000Y-54800000D03*
D22*
X134100000Y-103600000D03*
D21*
X165493670Y-66482022D03*
D22*
X134100000Y-99700000D03*
D21*
X151500000Y-54800000D03*
D22*
X134100000Y-98400000D03*
D21*
X153000000Y-56300000D03*
D22*
X180000000Y-62500000D03*
X178000000Y-60400000D03*
X135600000Y-93700000D03*
X184000000Y-62500000D03*
D21*
X150000000Y-122500000D03*
D22*
X182000000Y-60400000D03*
D21*
X153000000Y-54800000D03*
D22*
X172500000Y-60500000D03*
X134100000Y-102300000D03*
X134000000Y-105000000D03*
X184000000Y-64500000D03*
D21*
X150000000Y-53300000D03*
D22*
X180000000Y-64500000D03*
D21*
X155200000Y-122500000D03*
X154400000Y-123300000D03*
D22*
X135100000Y-99700000D03*
D21*
X165500000Y-64500000D03*
X154400000Y-124100000D03*
X155200000Y-123300000D03*
D22*
X135100000Y-101000000D03*
X178000000Y-62500000D03*
D21*
X151500000Y-53300000D03*
D22*
X178000000Y-64500000D03*
X135100000Y-103600000D03*
X135100000Y-102300000D03*
D21*
X154400000Y-122500000D03*
X165500000Y-62500000D03*
D22*
X180000000Y-60400000D03*
X182000000Y-62500000D03*
X135600000Y-97300000D03*
D21*
X163500000Y-66500000D03*
X163500000Y-64500000D03*
D22*
X135600000Y-96000000D03*
X135000000Y-105000000D03*
D21*
X163500000Y-62500000D03*
D22*
X134100000Y-101000000D03*
%TO.N,+1V1*%
X162175000Y-70600000D03*
X157475000Y-64440000D03*
X157768413Y-76206587D03*
X152675000Y-70000000D03*
X157475000Y-63600000D03*
%TO.N,+BATT*%
X201000000Y-51500000D03*
X206000000Y-49000000D03*
X206000000Y-47000000D03*
X196000000Y-47500000D03*
X206000000Y-51500000D03*
X203500000Y-47000000D03*
X198500000Y-47500000D03*
X203500000Y-51500000D03*
X196000000Y-49500000D03*
X201000000Y-47000000D03*
X191000000Y-49500000D03*
X193500000Y-49500000D03*
X198500000Y-49500000D03*
X201000000Y-49000000D03*
X191000000Y-47500000D03*
X193500000Y-47500000D03*
%TO.N,GND*%
X196000000Y-53500000D03*
X133500000Y-112000000D03*
X131000000Y-71000000D03*
X141000000Y-41000000D03*
X186000000Y-98500000D03*
X206000000Y-86000000D03*
X203500000Y-86000000D03*
X173500000Y-106000000D03*
X188500000Y-58500000D03*
X216000000Y-86000000D03*
X193500000Y-66000000D03*
X156000000Y-101000000D03*
X186000000Y-101000000D03*
X208500000Y-98500000D03*
X211000000Y-53500000D03*
X193500000Y-61000000D03*
X138400000Y-52500000D03*
X142700000Y-81000000D03*
X188500000Y-103500000D03*
X168500000Y-128500000D03*
X163500000Y-56000000D03*
X131000000Y-61000000D03*
X191000000Y-126000000D03*
X206000000Y-113500000D03*
X141000000Y-46000000D03*
X206000000Y-78500000D03*
X211000000Y-128500000D03*
X208500000Y-111000000D03*
X158500000Y-128500000D03*
X201000000Y-41500000D03*
X198500000Y-44000000D03*
X158500000Y-94000000D03*
X206000000Y-56000000D03*
X146000000Y-123500000D03*
X216000000Y-61000000D03*
X193500000Y-108500000D03*
X198500000Y-83500000D03*
X213500000Y-63500000D03*
D21*
X151200000Y-111800000D03*
D22*
X201000000Y-101000000D03*
X142700000Y-78500000D03*
X213500000Y-121000000D03*
X211000000Y-47000000D03*
X179900000Y-119400000D03*
X183500000Y-86000000D03*
X162000000Y-111000000D03*
X216000000Y-106000000D03*
X138500000Y-128500000D03*
X176000000Y-93500000D03*
X164775000Y-70400000D03*
X156000000Y-126000000D03*
D21*
X161175000Y-64740000D03*
D22*
X183500000Y-91000000D03*
X188500000Y-108500000D03*
X201000000Y-103500000D03*
X208500000Y-53500000D03*
X173500000Y-43500000D03*
X158750000Y-69650000D03*
X188500000Y-113500000D03*
X141000000Y-43500000D03*
X188500000Y-41500000D03*
X151000000Y-43500000D03*
X143500000Y-48500000D03*
X206000000Y-111000000D03*
X208500000Y-71000000D03*
X183500000Y-98500000D03*
X206000000Y-103500000D03*
X181000000Y-101000000D03*
X201000000Y-83500000D03*
X173500000Y-103500000D03*
X176000000Y-103500000D03*
X191000000Y-123500000D03*
X176000000Y-41000000D03*
X208500000Y-66000000D03*
X188500000Y-56000000D03*
D21*
X147200000Y-63300000D03*
D22*
X206000000Y-106000000D03*
X181000000Y-96000000D03*
X188500000Y-123500000D03*
X188500000Y-128500000D03*
X161000000Y-128500000D03*
X183500000Y-96000000D03*
X196000000Y-71000000D03*
X203500000Y-113500000D03*
X178500000Y-103500000D03*
X171000000Y-81000000D03*
X138500000Y-41000000D03*
X181000000Y-78500000D03*
X208500000Y-116000000D03*
X133500000Y-88500000D03*
X171000000Y-86000000D03*
X173500000Y-78500000D03*
X213500000Y-111000000D03*
X193500000Y-106000000D03*
X156000000Y-108500000D03*
X183500000Y-101000000D03*
X211000000Y-93500000D03*
X131000000Y-81000000D03*
X168500000Y-41000000D03*
X186000000Y-83500000D03*
X206000000Y-58500000D03*
X141000000Y-93500000D03*
X167000000Y-114000000D03*
X206000000Y-96000000D03*
X149900000Y-70000000D03*
X178500000Y-101000000D03*
X151000000Y-126000000D03*
X186000000Y-44000000D03*
X198500000Y-98500000D03*
X133500000Y-86000000D03*
X216000000Y-71000000D03*
X161000000Y-99000000D03*
X133500000Y-73500000D03*
X186000000Y-103500000D03*
X208500000Y-41500000D03*
X211000000Y-96000000D03*
X193500000Y-41500000D03*
X211000000Y-121000000D03*
X198500000Y-126000000D03*
X206000000Y-93500000D03*
X216000000Y-91000000D03*
X166000000Y-43500000D03*
X148500000Y-128500000D03*
X168500000Y-106000000D03*
X181000000Y-98500000D03*
X181350905Y-118249095D03*
X208500000Y-73500000D03*
X196000000Y-103500000D03*
X178500000Y-96000000D03*
X203500000Y-53500000D03*
X201000000Y-108500000D03*
X201000000Y-78500000D03*
X188500000Y-121000000D03*
X213500000Y-96000000D03*
X139000000Y-78500000D03*
X211000000Y-41500000D03*
X193500000Y-126000000D03*
X188500000Y-53500000D03*
X191000000Y-63500000D03*
X203500000Y-41500000D03*
X178500000Y-128500000D03*
X131000000Y-103500000D03*
X173500000Y-63500000D03*
D21*
X149200000Y-61000000D03*
D22*
X168500000Y-123500000D03*
X156000000Y-106000000D03*
X161000000Y-126000000D03*
X136000000Y-63500000D03*
X206000000Y-41500000D03*
X146000000Y-78500000D03*
X196000000Y-116000000D03*
X131000000Y-66000000D03*
X183500000Y-93500000D03*
X159500000Y-121000000D03*
X203500000Y-68500000D03*
X206000000Y-91000000D03*
X173500000Y-51000000D03*
X161000000Y-56000000D03*
X159500000Y-116000000D03*
D21*
X147200000Y-61000000D03*
D22*
X143500000Y-41000000D03*
D21*
X160000000Y-86000000D03*
D22*
X216000000Y-101000000D03*
X146000000Y-76000000D03*
X203500000Y-63500000D03*
X178500000Y-76000000D03*
X168500000Y-58500000D03*
X176000000Y-73500000D03*
X211000000Y-106000000D03*
X186000000Y-73500000D03*
D21*
X154000000Y-78500000D03*
D22*
X201000000Y-116000000D03*
X183500000Y-116000000D03*
D21*
X153500000Y-84000000D03*
D22*
X203500000Y-106000000D03*
X211000000Y-66000000D03*
X131000000Y-76000000D03*
X162000000Y-116000000D03*
X198500000Y-108500000D03*
X171000000Y-78500000D03*
X133500000Y-78500000D03*
X158500000Y-58500000D03*
X203500000Y-58500000D03*
X206000000Y-68500000D03*
X211000000Y-44000000D03*
X156000000Y-43500000D03*
X216000000Y-76000000D03*
X131000000Y-48500000D03*
X198500000Y-116000000D03*
D21*
X149200000Y-59000000D03*
D22*
X216000000Y-111000000D03*
X138500000Y-43500000D03*
X178500000Y-126000000D03*
X168500000Y-63500000D03*
X216000000Y-88500000D03*
X203500000Y-44000000D03*
X196000000Y-44000000D03*
X156000000Y-99000000D03*
X216000000Y-96000000D03*
X213500000Y-86000000D03*
X166000000Y-93500000D03*
X211000000Y-73500000D03*
X161000000Y-106000000D03*
X201000000Y-63500000D03*
X151000000Y-128500000D03*
X183500000Y-108500000D03*
X131000000Y-91000000D03*
X178500000Y-44000000D03*
X133500000Y-51000000D03*
X143500000Y-51000000D03*
X167000000Y-109000000D03*
X206000000Y-108500000D03*
X181000000Y-93500000D03*
X153500000Y-99000000D03*
X153500000Y-103500000D03*
X176000000Y-78500000D03*
X163500000Y-93500000D03*
X166000000Y-53500000D03*
X206000000Y-76000000D03*
X183500000Y-41500000D03*
X203500000Y-103500000D03*
X208500000Y-44000000D03*
X159500000Y-111000000D03*
X175000000Y-111500000D03*
X186000000Y-86000000D03*
X168500000Y-66000000D03*
X181000000Y-88500000D03*
X198500000Y-68500000D03*
X183500000Y-78500000D03*
X171000000Y-61000000D03*
X208500000Y-81000000D03*
X198500000Y-73500000D03*
X176000000Y-101000000D03*
X198500000Y-53500000D03*
D21*
X153500000Y-80000000D03*
D22*
X143500000Y-43500000D03*
X181000000Y-81000000D03*
X176000000Y-43500000D03*
X166000000Y-48500000D03*
X146000000Y-81000000D03*
X168500000Y-53500000D03*
X176000000Y-81000000D03*
X198500000Y-93500000D03*
X176000000Y-71000000D03*
X213500000Y-113500000D03*
X159500000Y-113500000D03*
X201000000Y-106000000D03*
X196000000Y-113500000D03*
X208500000Y-128500000D03*
X211000000Y-88500000D03*
X186000000Y-53500000D03*
X206000000Y-116000000D03*
X171000000Y-41000000D03*
X163500000Y-48500000D03*
X208500000Y-96000000D03*
X211000000Y-103500000D03*
X176000000Y-96000000D03*
X178500000Y-111000000D03*
X213500000Y-66000000D03*
X171000000Y-96000000D03*
X206000000Y-126000000D03*
X213500000Y-78500000D03*
D21*
X158000000Y-86000000D03*
D22*
X186000000Y-91000000D03*
X216000000Y-48500000D03*
X178500000Y-78500000D03*
X166000000Y-61000000D03*
X188500000Y-86000000D03*
X148500000Y-101500000D03*
X206000000Y-73500000D03*
X211000000Y-91000000D03*
X166000000Y-56000000D03*
X196000000Y-61000000D03*
D21*
X149000000Y-64900000D03*
D22*
X131000000Y-96000000D03*
X196000000Y-73500000D03*
X153500000Y-41000000D03*
X191000000Y-128500000D03*
X131000000Y-83500000D03*
X216000000Y-83500000D03*
X201000000Y-98500000D03*
X213500000Y-58500000D03*
X208500000Y-88500000D03*
X196000000Y-126000000D03*
X186000000Y-93500000D03*
X186000000Y-56000000D03*
X161000000Y-91500000D03*
X163500000Y-91000000D03*
X157000000Y-111000000D03*
X173500000Y-76000000D03*
X196000000Y-68500000D03*
X141000000Y-48500000D03*
X208500000Y-93500000D03*
X146000000Y-112000000D03*
X191000000Y-103500000D03*
X196000000Y-108500000D03*
X188500000Y-98500000D03*
X153500000Y-91500000D03*
X138500000Y-123500000D03*
X213500000Y-118500000D03*
X131000000Y-73500000D03*
X131000000Y-63500000D03*
X146000000Y-93500000D03*
X196000000Y-101000000D03*
D21*
X149200000Y-57000000D03*
D22*
X201000000Y-93500000D03*
X216000000Y-78500000D03*
X216000000Y-66000000D03*
X208500000Y-101000000D03*
X159500000Y-118500000D03*
X166000000Y-128500000D03*
X208500000Y-113500000D03*
X181000000Y-128500000D03*
X201000000Y-44000000D03*
X193500000Y-63500000D03*
X146000000Y-96000000D03*
X151000000Y-46000000D03*
X211000000Y-51000000D03*
X196000000Y-123500000D03*
X198500000Y-96000000D03*
X168500000Y-68500000D03*
X206000000Y-44000000D03*
X213500000Y-81000000D03*
X161000000Y-101000000D03*
X216000000Y-53500000D03*
X183500000Y-103500000D03*
X178500000Y-71000000D03*
X211000000Y-98500000D03*
X196000000Y-81000000D03*
X181000000Y-126000000D03*
D21*
X147200000Y-59000000D03*
D22*
X211000000Y-71000000D03*
X193500000Y-83500000D03*
X166000000Y-126000000D03*
X188500000Y-96000000D03*
X158500000Y-91500000D03*
X201000000Y-58500000D03*
X156000000Y-71000000D03*
X198500000Y-118500000D03*
X216000000Y-121000000D03*
D21*
X151000000Y-64900000D03*
D22*
X216000000Y-56000000D03*
X208500000Y-76000000D03*
X211000000Y-76000000D03*
X216000000Y-58500000D03*
X147000000Y-45300000D03*
X208500000Y-103500000D03*
X146000000Y-88500000D03*
X181000000Y-108500000D03*
X186000000Y-41500000D03*
X161000000Y-51000000D03*
X131000000Y-86000000D03*
X203500000Y-98500000D03*
X216000000Y-93500000D03*
X143500000Y-128500000D03*
X133500000Y-81000000D03*
X193500000Y-91000000D03*
X196000000Y-88500000D03*
X163100000Y-75800000D03*
X196000000Y-121000000D03*
X158500000Y-108500000D03*
X133500000Y-48500000D03*
X168500000Y-43500000D03*
X186000000Y-126000000D03*
X213500000Y-103500000D03*
X206000000Y-88500000D03*
X166000000Y-91000000D03*
X138400000Y-54700000D03*
X193500000Y-81000000D03*
X157000000Y-123500000D03*
X188500000Y-116000000D03*
X201000000Y-56000000D03*
X169000000Y-91000000D03*
X131000000Y-51000000D03*
X161000000Y-103500000D03*
X206000000Y-53500000D03*
X198500000Y-58500000D03*
X208500000Y-121000000D03*
X193500000Y-128500000D03*
X193500000Y-123500000D03*
X163500000Y-108500000D03*
X216000000Y-108500000D03*
X203500000Y-108500000D03*
X201000000Y-123500000D03*
X206000000Y-61000000D03*
X203500000Y-56000000D03*
X171000000Y-71000000D03*
X191000000Y-44000000D03*
X198500000Y-101000000D03*
X156000000Y-41000000D03*
X162000000Y-121000000D03*
X206000000Y-101000000D03*
X196000000Y-78500000D03*
X213500000Y-51000000D03*
X191000000Y-58500000D03*
X203500000Y-96000000D03*
X201000000Y-81000000D03*
X156000000Y-72350000D03*
X203500000Y-76000000D03*
X193500000Y-101000000D03*
X169500000Y-117000000D03*
X140200000Y-60800000D03*
X208500000Y-78500000D03*
X193500000Y-56000000D03*
X198500000Y-123500000D03*
X173500000Y-98500000D03*
X158500000Y-103500000D03*
X183500000Y-128500000D03*
X153500000Y-51000000D03*
X208500000Y-91000000D03*
X162000000Y-118500000D03*
X191000000Y-116000000D03*
X198500000Y-41500000D03*
X138500000Y-103500000D03*
X157000000Y-121000000D03*
X198500000Y-61000000D03*
X173500000Y-61000000D03*
X131000000Y-111000000D03*
X156000000Y-128500000D03*
X206000000Y-81000000D03*
X163500000Y-126000000D03*
X188500000Y-106000000D03*
X201000000Y-53500000D03*
D21*
X151200000Y-107200000D03*
D22*
X143500000Y-126000000D03*
X198500000Y-86000000D03*
X188500000Y-93500000D03*
D21*
X147200000Y-57000000D03*
D22*
X188500000Y-91000000D03*
X153500000Y-94000000D03*
X186000000Y-128500000D03*
D21*
X161175000Y-63940000D03*
D22*
X163500000Y-101000000D03*
X211000000Y-126000000D03*
X178500000Y-73500000D03*
X198500000Y-71000000D03*
X211000000Y-58500000D03*
X146000000Y-91000000D03*
X163500000Y-53500000D03*
X176000000Y-106000000D03*
X208500000Y-58500000D03*
X196000000Y-111000000D03*
X181000000Y-53500000D03*
X203500000Y-91000000D03*
X198500000Y-88500000D03*
X176000000Y-83500000D03*
X213500000Y-116000000D03*
X141000000Y-123500000D03*
X163500000Y-51000000D03*
X216000000Y-118500000D03*
X138500000Y-98500000D03*
X208500000Y-83500000D03*
X188500000Y-63500000D03*
X173500000Y-71000000D03*
X162000000Y-113500000D03*
X198500000Y-56000000D03*
X151000000Y-48500000D03*
X143500000Y-46000000D03*
X173500000Y-48500000D03*
X206000000Y-118500000D03*
X175000000Y-117000000D03*
X179000000Y-53500000D03*
X203500000Y-123500000D03*
X203500000Y-101000000D03*
X176000000Y-128500000D03*
X158500000Y-101000000D03*
X143500000Y-109000000D03*
X133500000Y-56000000D03*
X206000000Y-128500000D03*
X198500000Y-78500000D03*
X178500000Y-98500000D03*
X154700000Y-60900000D03*
X213500000Y-101000000D03*
X213500000Y-56000000D03*
D21*
X151200000Y-115200000D03*
D22*
X173500000Y-81000000D03*
X196000000Y-128500000D03*
X163500000Y-128500000D03*
X171000000Y-66000000D03*
X203500000Y-93500000D03*
X203500000Y-61000000D03*
X150600000Y-67800000D03*
X163500000Y-41000000D03*
X206000000Y-121000000D03*
X188500000Y-73500000D03*
X196000000Y-63500000D03*
X164775000Y-68600000D03*
X176000000Y-98500000D03*
X138500000Y-48500000D03*
X178500000Y-91000000D03*
X193500000Y-103500000D03*
D21*
X149200000Y-63300000D03*
D22*
X155000000Y-53500000D03*
X211000000Y-101000000D03*
X161875000Y-66890000D03*
X137000000Y-75000000D03*
X211000000Y-61000000D03*
X193500000Y-113500000D03*
X188500000Y-118500000D03*
X208500000Y-106000000D03*
X188500000Y-88500000D03*
X216000000Y-113500000D03*
X211000000Y-78500000D03*
D21*
X152800000Y-116600000D03*
D22*
X191000000Y-106000000D03*
X211000000Y-83500000D03*
X153500000Y-128500000D03*
X203500000Y-81000000D03*
X178500000Y-113500000D03*
X138500000Y-96000000D03*
X198500000Y-121000000D03*
X178500000Y-81000000D03*
X196000000Y-98500000D03*
X158800000Y-78800000D03*
X173500000Y-88500000D03*
X186000000Y-71000000D03*
X188500000Y-83500000D03*
X201000000Y-96000000D03*
X159500000Y-123500000D03*
X131000000Y-58500000D03*
X158500000Y-41000000D03*
X166000000Y-58500000D03*
X153500000Y-43500000D03*
X131000000Y-93500000D03*
X172100000Y-108900000D03*
X201000000Y-86000000D03*
X193500000Y-86000000D03*
X164775000Y-71400000D03*
X158500000Y-106000000D03*
X148500000Y-126000000D03*
X201000000Y-61000000D03*
X143500000Y-112000000D03*
X181000000Y-91000000D03*
X168500000Y-103500000D03*
X198500000Y-91000000D03*
X158750000Y-72350000D03*
X131000000Y-78500000D03*
D21*
X152800000Y-108600000D03*
D22*
X181000000Y-41500000D03*
X161000000Y-58500000D03*
X211000000Y-68500000D03*
X193500000Y-44000000D03*
X193500000Y-121000000D03*
X143500000Y-88500000D03*
X211000000Y-81000000D03*
X208500000Y-49000000D03*
X216000000Y-98500000D03*
X191000000Y-118500000D03*
X133500000Y-53500000D03*
X213500000Y-91000000D03*
X213500000Y-76000000D03*
X196000000Y-76000000D03*
X148500000Y-41000000D03*
X173500000Y-121000000D03*
X173500000Y-83500000D03*
X193500000Y-53500000D03*
X213500000Y-106000000D03*
X198500000Y-106000000D03*
X178500000Y-116000000D03*
X196000000Y-96000000D03*
X181000000Y-106000000D03*
X208500000Y-118500000D03*
X166000000Y-41000000D03*
X181000000Y-73500000D03*
X208500000Y-68500000D03*
X140000000Y-65000000D03*
X198500000Y-103500000D03*
X208500000Y-61000000D03*
X186000000Y-106000000D03*
X178500000Y-83500000D03*
X163500000Y-43500000D03*
X196000000Y-86000000D03*
X216000000Y-116000000D03*
X188500000Y-111000000D03*
X208500000Y-47000000D03*
X171000000Y-88500000D03*
X148500000Y-43500000D03*
X213500000Y-93500000D03*
X216000000Y-68500000D03*
X198500000Y-111000000D03*
X138500000Y-46000000D03*
X157375000Y-71000000D03*
X174500000Y-57100000D03*
X191000000Y-41500000D03*
X173500000Y-73500000D03*
X156000000Y-69650000D03*
X193500000Y-116000000D03*
X143000000Y-58000000D03*
X178500000Y-93500000D03*
D21*
X160000000Y-84000000D03*
D22*
X203500000Y-66000000D03*
X133500000Y-83500000D03*
X163500000Y-58500000D03*
X201000000Y-71000000D03*
X198500000Y-128500000D03*
X146000000Y-83500000D03*
X203500000Y-111000000D03*
X201000000Y-73500000D03*
X143500000Y-91000000D03*
X146000000Y-86000000D03*
X131000000Y-98500000D03*
X146000000Y-128500000D03*
X211000000Y-116000000D03*
X193500000Y-93500000D03*
X188500000Y-71000000D03*
X166000000Y-51000000D03*
X158500000Y-53500000D03*
X186000000Y-123500000D03*
X208500000Y-51000000D03*
X136500000Y-78500000D03*
X183500000Y-126000000D03*
X131000000Y-108500000D03*
X171000000Y-51000000D03*
X193500000Y-58500000D03*
X153500000Y-126000000D03*
X213500000Y-73500000D03*
X171000000Y-76000000D03*
X201000000Y-91000000D03*
X171000000Y-103500000D03*
X203500000Y-88500000D03*
D21*
X153500000Y-82000000D03*
D22*
X198500000Y-66000000D03*
X146000000Y-41000000D03*
X157000000Y-116000000D03*
X171000000Y-98500000D03*
X206000000Y-63500000D03*
X208500000Y-108500000D03*
X206000000Y-66000000D03*
X143500000Y-93500000D03*
X163500000Y-88500000D03*
X131000000Y-53500000D03*
X175500000Y-57100000D03*
X173500000Y-86000000D03*
X191000000Y-111000000D03*
X211000000Y-86000000D03*
X171000000Y-48500000D03*
X201000000Y-68500000D03*
X156000000Y-103500000D03*
X181000000Y-71000000D03*
D21*
X160000000Y-82000000D03*
D22*
X161000000Y-41000000D03*
X155575000Y-78300000D03*
X181000000Y-44000000D03*
X198500000Y-81000000D03*
D21*
X154000000Y-86000000D03*
D22*
X186000000Y-96000000D03*
X168500000Y-126000000D03*
X171000000Y-101000000D03*
X131000000Y-68500000D03*
X178500000Y-106000000D03*
X216000000Y-73500000D03*
X181000000Y-103500000D03*
X151000000Y-41000000D03*
X146000000Y-43500000D03*
X216000000Y-51000000D03*
X193500000Y-118500000D03*
X131000000Y-88500000D03*
X203500000Y-128500000D03*
X158500000Y-126000000D03*
X188500000Y-61000000D03*
X211000000Y-63500000D03*
X133500000Y-68500000D03*
X136000000Y-112000000D03*
X193500000Y-96000000D03*
X139500000Y-75000000D03*
X206000000Y-71000000D03*
X191000000Y-108500000D03*
X203500000Y-116000000D03*
X184000000Y-118500000D03*
X201000000Y-126000000D03*
X171000000Y-43500000D03*
X183500000Y-106000000D03*
X141000000Y-101000000D03*
X143500000Y-98500000D03*
X141000000Y-128500000D03*
X176000000Y-86000000D03*
X203500000Y-78500000D03*
X216000000Y-103500000D03*
X163500000Y-99000000D03*
X178500000Y-108500000D03*
X168500000Y-51000000D03*
X213500000Y-98500000D03*
X173500000Y-123500000D03*
X196000000Y-66000000D03*
X216000000Y-63500000D03*
D21*
X151200000Y-113400000D03*
D22*
X173500000Y-101000000D03*
X211000000Y-108500000D03*
X146000000Y-109000000D03*
X198500000Y-113500000D03*
X175000000Y-57900000D03*
X193500000Y-98500000D03*
X203500000Y-126000000D03*
X157375000Y-69650000D03*
X201000000Y-121000000D03*
X158750000Y-71000000D03*
X168500000Y-48500000D03*
X151000000Y-51000000D03*
X196000000Y-106000000D03*
X133500000Y-71000000D03*
X168500000Y-61000000D03*
X213500000Y-61000000D03*
X201000000Y-113500000D03*
X183500000Y-53500000D03*
X181000000Y-76000000D03*
X201000000Y-66000000D03*
X157375000Y-72350000D03*
X138500000Y-101000000D03*
X173500000Y-96000000D03*
X141000000Y-91000000D03*
X171000000Y-121000000D03*
X183500000Y-71000000D03*
X146000000Y-126000000D03*
X171000000Y-73500000D03*
X141000000Y-126000000D03*
X211000000Y-123500000D03*
X157000000Y-118500000D03*
X186000000Y-58500000D03*
X161000000Y-53500000D03*
X193500000Y-88500000D03*
X203500000Y-118500000D03*
X143500000Y-107000000D03*
X201000000Y-111000000D03*
X143500000Y-123500000D03*
X138500000Y-126000000D03*
X191000000Y-56000000D03*
X173500000Y-66000000D03*
X201000000Y-88500000D03*
X186000000Y-116000000D03*
X148500000Y-123500000D03*
D21*
X160000000Y-80000000D03*
D22*
X206000000Y-98500000D03*
X146000000Y-106000000D03*
X171000000Y-68500000D03*
X171000000Y-63500000D03*
X171000000Y-123500000D03*
X158500000Y-56000000D03*
X201000000Y-118500000D03*
X172200000Y-114200000D03*
X203500000Y-71000000D03*
X186000000Y-88500000D03*
X213500000Y-108500000D03*
X183500000Y-44000000D03*
X211000000Y-56000000D03*
X208500000Y-123500000D03*
X188500000Y-101000000D03*
X181000000Y-116000000D03*
X213500000Y-71000000D03*
X188500000Y-126000000D03*
X133500000Y-63500000D03*
X186000000Y-108500000D03*
X208500000Y-63500000D03*
X198500000Y-76000000D03*
X176000000Y-76000000D03*
X131000000Y-101000000D03*
X186000000Y-118500000D03*
X191000000Y-113500000D03*
X141000000Y-98500000D03*
X153500000Y-101000000D03*
X168500000Y-56000000D03*
X206000000Y-123500000D03*
X213500000Y-83500000D03*
X193500000Y-111000000D03*
X186000000Y-121000000D03*
X213500000Y-53500000D03*
X208500000Y-126000000D03*
X188500000Y-44000000D03*
X137500000Y-65000000D03*
D21*
X151200000Y-110200000D03*
D22*
X191000000Y-121000000D03*
X178500000Y-41500000D03*
X162000000Y-123500000D03*
X183500000Y-88500000D03*
X148000000Y-75000000D03*
X150700000Y-72000000D03*
X213500000Y-68500000D03*
X171000000Y-83500000D03*
X211000000Y-118500000D03*
X201000000Y-76000000D03*
X173500000Y-41000000D03*
X157000000Y-113500000D03*
X158500000Y-43500000D03*
X206000000Y-83500000D03*
X141000000Y-109000000D03*
X163500000Y-61000000D03*
X131000000Y-56000000D03*
X203500000Y-83500000D03*
X171000000Y-106000000D03*
X191000000Y-61000000D03*
X133500000Y-58500000D03*
X208500000Y-86000000D03*
X201000000Y-128500000D03*
X216000000Y-81000000D03*
X203500000Y-73500000D03*
X208500000Y-56000000D03*
X196000000Y-118500000D03*
X175000000Y-56200000D03*
X196000000Y-93500000D03*
D21*
X156000000Y-86000000D03*
X151200000Y-108600000D03*
D22*
X193500000Y-78500000D03*
X196000000Y-91000000D03*
X161000000Y-108500000D03*
X198500000Y-63500000D03*
X196000000Y-83500000D03*
X191000000Y-53500000D03*
X131000000Y-106000000D03*
X133500000Y-66000000D03*
X196000000Y-41500000D03*
X213500000Y-88500000D03*
X143000000Y-59000000D03*
X156000000Y-94000000D03*
X140200000Y-59100000D03*
%TO.N,/GNSS & MicroSD/SPI_CS1*%
X138100000Y-105500000D03*
X148200000Y-93400000D03*
%TO.N,/GNSS & MicroSD/SPI_MOSI*%
X148400000Y-104400000D03*
X152200000Y-104400000D03*
%TO.N,/GNSS & MicroSD/SPI_MISO*%
X149250000Y-100000000D03*
X149250000Y-103400000D03*
%TO.N,/Power/Vin*%
X176700000Y-51800000D03*
X172100000Y-53800000D03*
%TO.N,/GNSS & MicroSD/SPI_CS0*%
X150200000Y-101100000D03*
X150200000Y-103400000D03*
%TD*%
D23*
%TO.N,/GNSS & MicroSD/SPI_CS1*%
X148200000Y-95400000D02*
X138100000Y-105500000D01*
X148200000Y-93400000D02*
X148200000Y-95400000D01*
%TO.N,/GNSS & MicroSD/SPI_MOSI*%
X148400000Y-104400000D02*
X152200000Y-104400000D01*
%TO.N,/GNSS & MicroSD/SPI_MISO*%
X149250000Y-100000000D02*
X149250000Y-103400000D01*
D24*
%TO.N,/Power/Vin*%
X176700000Y-51800000D02*
X174100000Y-51800000D01*
X174100000Y-51800000D02*
X172100000Y-53800000D01*
D23*
%TO.N,/GNSS & MicroSD/SPI_CS0*%
X150200000Y-103400000D02*
X150200000Y-101100000D01*
%TD*%
%TA.AperFunction,Conductor*%
%TO.N,+BATT*%
G36*
X207211971Y-46002381D02*
G01*
X207290618Y-46018024D01*
X207335308Y-46036535D01*
X207391626Y-46074166D01*
X207397519Y-46080059D01*
X207402251Y-46082119D01*
X207425832Y-46108371D01*
X207463462Y-46164688D01*
X207481976Y-46209387D01*
X207497617Y-46288019D01*
X207500000Y-46312210D01*
X207500000Y-52187789D01*
X207497617Y-52211980D01*
X207481976Y-52290612D01*
X207478786Y-52298313D01*
X207478694Y-52303473D01*
X207463462Y-52335311D01*
X207425836Y-52391623D01*
X207391623Y-52425836D01*
X207335311Y-52463462D01*
X207290612Y-52481976D01*
X207211980Y-52497617D01*
X207187789Y-52500000D01*
X200136475Y-52500000D01*
X200112284Y-52497617D01*
X200033651Y-52481976D01*
X199988951Y-52463461D01*
X199922285Y-52418916D01*
X199903495Y-52403495D01*
X198587871Y-51087870D01*
X198587863Y-51087864D01*
X198490542Y-51022836D01*
X198490538Y-51022834D01*
X198375740Y-51000000D01*
X198375736Y-51000000D01*
X189812211Y-51000000D01*
X189788020Y-50997617D01*
X189709387Y-50981976D01*
X189664689Y-50963462D01*
X189608373Y-50925833D01*
X189574166Y-50891626D01*
X189536535Y-50835308D01*
X189518024Y-50790618D01*
X189502381Y-50711971D01*
X189500000Y-50687789D01*
X189500000Y-46312210D01*
X189502381Y-46288029D01*
X189518025Y-46209379D01*
X189536534Y-46164693D01*
X189574168Y-46108370D01*
X189608370Y-46074168D01*
X189664693Y-46036534D01*
X189709379Y-46018025D01*
X189788028Y-46002381D01*
X189812211Y-46000000D01*
X207187789Y-46000000D01*
X207211971Y-46002381D01*
G37*
%TD.AperFunction*%
%TD*%
%TA.AperFunction,Conductor*%
%TO.N,+3V3*%
G36*
X152300952Y-52501061D02*
G01*
X152406116Y-52514906D01*
X152437383Y-52523284D01*
X152527808Y-52560739D01*
X152555842Y-52576924D01*
X152640003Y-52641503D01*
X152652198Y-52652198D01*
X153847801Y-53847801D01*
X153858496Y-53859996D01*
X153923075Y-53944157D01*
X153939260Y-53972191D01*
X153976715Y-54062616D01*
X153985093Y-54093882D01*
X153998939Y-54199046D01*
X154000000Y-54215232D01*
X154000000Y-55292886D01*
X154000001Y-55292902D01*
X154017036Y-55422301D01*
X154017038Y-55422306D01*
X154066984Y-55542888D01*
X154066987Y-55542893D01*
X154146445Y-55646445D01*
X154146451Y-55646452D01*
X155353547Y-56853548D01*
X155353553Y-56853553D01*
X155457107Y-56933013D01*
X155457109Y-56933013D01*
X155457111Y-56933015D01*
X155517402Y-56957988D01*
X155577697Y-56982963D01*
X155707107Y-57000000D01*
X160284767Y-57000000D01*
X160300952Y-57001061D01*
X160406116Y-57014906D01*
X160437383Y-57023284D01*
X160527808Y-57060739D01*
X160555842Y-57076924D01*
X160640003Y-57141503D01*
X160652198Y-57152198D01*
X161333518Y-57833519D01*
X161367003Y-57894842D01*
X161362019Y-57964534D01*
X161320147Y-58020467D01*
X161254683Y-58044884D01*
X161198387Y-58035762D01*
X161193189Y-58033609D01*
X161193186Y-58033608D01*
X161065892Y-57999500D01*
X160934108Y-57999500D01*
X160806812Y-58033608D01*
X160692686Y-58099500D01*
X160692683Y-58099502D01*
X160599502Y-58192683D01*
X160599500Y-58192686D01*
X160533608Y-58306812D01*
X160499500Y-58434108D01*
X160499500Y-58565891D01*
X160533608Y-58693187D01*
X160537253Y-58699500D01*
X160599500Y-58807314D01*
X160692686Y-58900500D01*
X160806814Y-58966392D01*
X160934108Y-59000500D01*
X160934110Y-59000500D01*
X161065890Y-59000500D01*
X161065892Y-59000500D01*
X161193186Y-58966392D01*
X161307314Y-58900500D01*
X161400500Y-58807314D01*
X161466392Y-58693186D01*
X161500500Y-58565892D01*
X161500500Y-58434108D01*
X161466392Y-58306814D01*
X161466387Y-58306806D01*
X161464238Y-58301616D01*
X161456769Y-58232147D01*
X161488043Y-58169667D01*
X161548132Y-58134014D01*
X161617957Y-58136507D01*
X161666480Y-58166481D01*
X162853547Y-59353548D01*
X162853553Y-59353553D01*
X162957107Y-59433013D01*
X162957109Y-59433013D01*
X162957111Y-59433015D01*
X163017402Y-59457988D01*
X163077697Y-59482963D01*
X163207107Y-59500000D01*
X184284767Y-59500000D01*
X184300952Y-59501061D01*
X184406116Y-59514906D01*
X184437383Y-59523284D01*
X184527808Y-59560739D01*
X184555842Y-59576924D01*
X184640003Y-59641503D01*
X184652198Y-59652198D01*
X186347801Y-61347801D01*
X186358496Y-61359996D01*
X186423075Y-61444157D01*
X186439260Y-61472191D01*
X186476715Y-61562616D01*
X186485093Y-61593882D01*
X186498939Y-61699046D01*
X186500000Y-61715232D01*
X186500000Y-63540210D01*
X186521600Y-63685578D01*
X186521600Y-63685580D01*
X186584534Y-63818394D01*
X186584536Y-63818396D01*
X186683369Y-63927174D01*
X186809559Y-64002517D01*
X194981970Y-67368993D01*
X194998305Y-67377178D01*
X195100810Y-67438380D01*
X195129019Y-67461461D01*
X195203074Y-67542967D01*
X195223354Y-67573255D01*
X195270509Y-67672770D01*
X195281106Y-67707642D01*
X195298653Y-67825728D01*
X195300000Y-67843954D01*
X195300000Y-74196396D01*
X195298718Y-74214181D01*
X195282007Y-74329489D01*
X195271910Y-74363593D01*
X195226933Y-74461213D01*
X195207570Y-74491047D01*
X195130780Y-74578674D01*
X195118095Y-74591203D01*
X167648664Y-98072917D01*
X167630828Y-98085621D01*
X167507689Y-98157847D01*
X167466766Y-98172954D01*
X167326236Y-98198066D01*
X167304423Y-98200000D01*
X150707107Y-98200000D01*
X150707101Y-98200000D01*
X150707097Y-98200001D01*
X150577698Y-98217036D01*
X150577693Y-98217038D01*
X150457111Y-98266984D01*
X150457106Y-98266987D01*
X150353554Y-98346445D01*
X150353547Y-98346451D01*
X149229993Y-99470006D01*
X149174405Y-99502100D01*
X149056812Y-99533608D01*
X148942686Y-99599500D01*
X148942683Y-99599502D01*
X148849502Y-99692683D01*
X148849500Y-99692686D01*
X148783609Y-99806812D01*
X148752099Y-99924407D01*
X148720005Y-99979994D01*
X140846451Y-107853547D01*
X140846445Y-107853554D01*
X140766987Y-107957106D01*
X140766984Y-107957111D01*
X140717038Y-108077693D01*
X140717036Y-108077698D01*
X140700001Y-108207097D01*
X140700000Y-108207113D01*
X140700000Y-108540823D01*
X140680315Y-108607862D01*
X140663682Y-108628504D01*
X140599500Y-108692686D01*
X140533608Y-108806812D01*
X140499500Y-108934108D01*
X140499500Y-109065891D01*
X140533608Y-109193187D01*
X140566554Y-109250250D01*
X140599500Y-109307314D01*
X140599502Y-109307316D01*
X140663681Y-109371495D01*
X140697166Y-109432818D01*
X140700000Y-109459176D01*
X140700000Y-111091869D01*
X140717503Y-111223005D01*
X140717504Y-111223008D01*
X140768789Y-111344965D01*
X140850261Y-111449195D01*
X140850276Y-111449212D01*
X149585448Y-119998527D01*
X151484664Y-121857334D01*
X151587506Y-121934794D01*
X151706718Y-121983424D01*
X151834395Y-122000000D01*
X155191874Y-122000000D01*
X155208059Y-122001061D01*
X155313223Y-122014906D01*
X155344491Y-122023284D01*
X155434918Y-122060740D01*
X155462952Y-122076925D01*
X155540602Y-122136509D01*
X155563491Y-122159398D01*
X155623074Y-122237048D01*
X155639259Y-122265081D01*
X155676715Y-122355508D01*
X155685093Y-122386775D01*
X155698939Y-122491939D01*
X155700000Y-122508125D01*
X155700000Y-124091874D01*
X155698939Y-124108060D01*
X155685093Y-124213224D01*
X155676715Y-124244491D01*
X155639259Y-124334918D01*
X155623074Y-124362951D01*
X155563491Y-124440601D01*
X155540601Y-124463491D01*
X155462951Y-124523074D01*
X155434918Y-124539259D01*
X155344491Y-124576715D01*
X155313224Y-124585093D01*
X155219398Y-124597446D01*
X155208058Y-124598939D01*
X155191874Y-124600000D01*
X154315233Y-124600000D01*
X154299048Y-124598939D01*
X154286024Y-124597224D01*
X154193882Y-124585093D01*
X154162616Y-124576715D01*
X154072191Y-124539260D01*
X154044157Y-124523075D01*
X153959996Y-124458496D01*
X153947801Y-124447801D01*
X153646451Y-124146450D01*
X153646445Y-124146445D01*
X153542893Y-124066987D01*
X153542888Y-124066984D01*
X153422306Y-124017038D01*
X153422301Y-124017036D01*
X153292902Y-124000001D01*
X153292899Y-124000000D01*
X153292893Y-124000000D01*
X153292886Y-124000000D01*
X149715233Y-124000000D01*
X149699048Y-123998939D01*
X149686024Y-123997224D01*
X149593882Y-123985093D01*
X149562616Y-123976715D01*
X149472191Y-123939260D01*
X149444157Y-123923075D01*
X149359996Y-123858496D01*
X149347801Y-123847801D01*
X149036819Y-123536819D01*
X149003334Y-123475496D01*
X149000500Y-123449138D01*
X149000500Y-123434110D01*
X149000500Y-123434108D01*
X148966392Y-123306814D01*
X148900500Y-123192686D01*
X148807314Y-123099500D01*
X148696919Y-123035763D01*
X148693187Y-123033608D01*
X148629539Y-123016554D01*
X148565892Y-122999500D01*
X148550862Y-122999500D01*
X148483823Y-122979815D01*
X148463181Y-122963181D01*
X145501436Y-120001436D01*
X145500153Y-120000147D01*
X145499837Y-119999829D01*
X145498551Y-119998527D01*
X133649174Y-107951660D01*
X133638685Y-107939514D01*
X133575359Y-107855799D01*
X133559496Y-107827971D01*
X133522798Y-107738329D01*
X133514597Y-107707382D01*
X133501037Y-107603272D01*
X133500000Y-107587271D01*
X133500000Y-93708125D01*
X133501061Y-93691940D01*
X133514906Y-93586776D01*
X133523284Y-93555508D01*
X133560740Y-93465081D01*
X133576923Y-93437050D01*
X133636513Y-93359392D01*
X133659392Y-93336513D01*
X133737050Y-93276923D01*
X133765079Y-93260740D01*
X133855509Y-93223283D01*
X133886775Y-93214906D01*
X133991941Y-93201061D01*
X134008126Y-93200000D01*
X135691874Y-93200000D01*
X135708059Y-93201061D01*
X135813223Y-93214906D01*
X135844491Y-93223284D01*
X135934918Y-93260740D01*
X135962952Y-93276925D01*
X136040602Y-93336509D01*
X136063491Y-93359398D01*
X136123074Y-93437048D01*
X136139259Y-93465081D01*
X136176715Y-93555508D01*
X136185093Y-93586775D01*
X136198939Y-93691939D01*
X136200000Y-93708125D01*
X136200000Y-97656741D01*
X136198680Y-97674783D01*
X136181483Y-97791717D01*
X136171096Y-97826270D01*
X136124855Y-97924996D01*
X136104960Y-97955097D01*
X136026138Y-98043166D01*
X136013123Y-98055729D01*
X135779909Y-98250075D01*
X135779909Y-98250076D01*
X135682880Y-98358486D01*
X135621169Y-98490241D01*
X135621168Y-98490241D01*
X135621168Y-98490244D01*
X135600000Y-98634187D01*
X135600000Y-105915038D01*
X135613884Y-106032047D01*
X135654765Y-106142558D01*
X135654766Y-106142559D01*
X135654767Y-106142562D01*
X135698039Y-106207116D01*
X135720372Y-106240434D01*
X136050339Y-106625396D01*
X136158142Y-106719656D01*
X136288242Y-106779493D01*
X136429967Y-106800000D01*
X137651730Y-106800000D01*
X137651737Y-106800000D01*
X137781872Y-106782768D01*
X137903038Y-106732259D01*
X138006881Y-106651955D01*
X145952643Y-98634187D01*
X149401733Y-95153840D01*
X149413935Y-95143050D01*
X149498335Y-95077782D01*
X149526468Y-95061426D01*
X149617336Y-95023547D01*
X149648760Y-95015077D01*
X149729550Y-95004379D01*
X149754519Y-95001073D01*
X149770796Y-95000000D01*
X166390156Y-95000000D01*
X166390161Y-95000000D01*
X166508083Y-94985896D01*
X166619352Y-94944378D01*
X166717690Y-94877789D01*
X173461901Y-89030807D01*
X173525449Y-89001767D01*
X173543128Y-89000500D01*
X173565890Y-89000500D01*
X173565892Y-89000500D01*
X173693186Y-88966392D01*
X173807314Y-88900500D01*
X173900500Y-88807314D01*
X173966392Y-88693186D01*
X173991373Y-88599952D01*
X174027736Y-88540294D01*
X174029831Y-88538433D01*
X192527529Y-72501616D01*
X192620674Y-72394074D01*
X192679759Y-72264651D01*
X192700000Y-72123827D01*
X192700000Y-69913826D01*
X192679387Y-69771739D01*
X192619246Y-69641369D01*
X192524537Y-69533463D01*
X192524536Y-69533462D01*
X192524532Y-69533459D01*
X192403071Y-69456921D01*
X188753288Y-67834795D01*
X183596962Y-65543094D01*
X183596960Y-65543093D01*
X183497689Y-65510892D01*
X183497686Y-65510891D01*
X183426566Y-65503428D01*
X183393893Y-65500000D01*
X183393890Y-65500000D01*
X173567758Y-65500000D01*
X173565892Y-65499500D01*
X173434108Y-65499500D01*
X173432242Y-65500000D01*
X171077816Y-65500000D01*
X171070187Y-65499500D01*
X171065892Y-65499500D01*
X170934108Y-65499500D01*
X170929813Y-65499500D01*
X170922184Y-65500000D01*
X168567758Y-65500000D01*
X168565892Y-65499500D01*
X168434108Y-65499500D01*
X168432242Y-65500000D01*
X167000007Y-65500000D01*
X167000000Y-65500000D01*
X166999994Y-65500000D01*
X166999990Y-65500001D01*
X166870591Y-65517036D01*
X166870586Y-65517038D01*
X166750004Y-65566984D01*
X166750003Y-65566984D01*
X166646447Y-65646447D01*
X166566984Y-65750003D01*
X166566984Y-65750004D01*
X166517038Y-65870586D01*
X166517036Y-65870591D01*
X166500001Y-65999990D01*
X166500000Y-66000006D01*
X166500000Y-66991874D01*
X166498939Y-67008059D01*
X166498939Y-67008060D01*
X166485093Y-67113224D01*
X166476715Y-67144491D01*
X166439259Y-67234918D01*
X166423074Y-67262951D01*
X166363491Y-67340601D01*
X166340601Y-67363491D01*
X166262951Y-67423074D01*
X166234918Y-67439259D01*
X166144491Y-67476715D01*
X166113224Y-67485093D01*
X166019398Y-67497446D01*
X166008058Y-67498939D01*
X165991874Y-67500000D01*
X163008126Y-67500000D01*
X162991941Y-67498939D01*
X162978917Y-67497224D01*
X162886775Y-67485093D01*
X162855508Y-67476715D01*
X162765081Y-67439259D01*
X162737048Y-67423074D01*
X162659398Y-67363491D01*
X162636508Y-67340601D01*
X162576925Y-67262951D01*
X162560740Y-67234918D01*
X162523284Y-67144491D01*
X162514906Y-67113223D01*
X162501061Y-67008059D01*
X162500000Y-66991874D01*
X162500000Y-63434108D01*
X167999500Y-63434108D01*
X167999500Y-63565891D01*
X168033608Y-63693187D01*
X168053428Y-63727515D01*
X168099500Y-63807314D01*
X168192686Y-63900500D01*
X168306814Y-63966392D01*
X168434108Y-64000500D01*
X168434110Y-64000500D01*
X168565890Y-64000500D01*
X168565892Y-64000500D01*
X168693186Y-63966392D01*
X168807314Y-63900500D01*
X168900500Y-63807314D01*
X168966392Y-63693186D01*
X169000500Y-63565892D01*
X169000500Y-63434108D01*
X170499500Y-63434108D01*
X170499500Y-63565891D01*
X170533608Y-63693187D01*
X170553428Y-63727515D01*
X170599500Y-63807314D01*
X170692686Y-63900500D01*
X170806814Y-63966392D01*
X170934108Y-64000500D01*
X170934110Y-64000500D01*
X171065890Y-64000500D01*
X171065892Y-64000500D01*
X171193186Y-63966392D01*
X171307314Y-63900500D01*
X171400500Y-63807314D01*
X171466392Y-63693186D01*
X171500500Y-63565892D01*
X171500500Y-63434108D01*
X172999500Y-63434108D01*
X172999500Y-63565891D01*
X173033608Y-63693187D01*
X173053428Y-63727515D01*
X173099500Y-63807314D01*
X173192686Y-63900500D01*
X173306814Y-63966392D01*
X173434108Y-64000500D01*
X173434110Y-64000500D01*
X173565890Y-64000500D01*
X173565892Y-64000500D01*
X173693186Y-63966392D01*
X173807314Y-63900500D01*
X173900500Y-63807314D01*
X173966392Y-63693186D01*
X174000500Y-63565892D01*
X174000500Y-63434108D01*
X173966392Y-63306814D01*
X173900500Y-63192686D01*
X173807314Y-63099500D01*
X173750250Y-63066554D01*
X173693187Y-63033608D01*
X173606885Y-63010484D01*
X173565892Y-62999500D01*
X173434108Y-62999500D01*
X173306812Y-63033608D01*
X173192686Y-63099500D01*
X173192683Y-63099502D01*
X173099502Y-63192683D01*
X173099500Y-63192686D01*
X173033608Y-63306812D01*
X172999500Y-63434108D01*
X171500500Y-63434108D01*
X171466392Y-63306814D01*
X171400500Y-63192686D01*
X171307314Y-63099500D01*
X171250250Y-63066554D01*
X171193187Y-63033608D01*
X171106885Y-63010484D01*
X171065892Y-62999500D01*
X170934108Y-62999500D01*
X170806812Y-63033608D01*
X170692686Y-63099500D01*
X170692683Y-63099502D01*
X170599502Y-63192683D01*
X170599500Y-63192686D01*
X170533608Y-63306812D01*
X170499500Y-63434108D01*
X169000500Y-63434108D01*
X168966392Y-63306814D01*
X168900500Y-63192686D01*
X168807314Y-63099500D01*
X168750250Y-63066554D01*
X168693187Y-63033608D01*
X168606885Y-63010484D01*
X168565892Y-62999500D01*
X168434108Y-62999500D01*
X168306812Y-63033608D01*
X168192686Y-63099500D01*
X168192683Y-63099502D01*
X168099502Y-63192683D01*
X168099500Y-63192686D01*
X168033608Y-63306812D01*
X167999500Y-63434108D01*
X162500000Y-63434108D01*
X162500000Y-62207113D01*
X162500000Y-62207107D01*
X162482963Y-62077697D01*
X162433013Y-61957107D01*
X162353553Y-61853553D01*
X162353548Y-61853547D01*
X161434109Y-60934108D01*
X162999500Y-60934108D01*
X162999500Y-61065891D01*
X163033608Y-61193187D01*
X163044750Y-61212485D01*
X163099500Y-61307314D01*
X163192686Y-61400500D01*
X163306814Y-61466392D01*
X163434108Y-61500500D01*
X163434110Y-61500500D01*
X163565890Y-61500500D01*
X163565892Y-61500500D01*
X163693186Y-61466392D01*
X163807314Y-61400500D01*
X163900500Y-61307314D01*
X163966392Y-61193186D01*
X164000500Y-61065892D01*
X164000500Y-60934108D01*
X165499500Y-60934108D01*
X165499500Y-61065891D01*
X165533608Y-61193187D01*
X165544750Y-61212485D01*
X165599500Y-61307314D01*
X165692686Y-61400500D01*
X165806814Y-61466392D01*
X165934108Y-61500500D01*
X165934110Y-61500500D01*
X166065890Y-61500500D01*
X166065892Y-61500500D01*
X166193186Y-61466392D01*
X166307314Y-61400500D01*
X166400500Y-61307314D01*
X166466392Y-61193186D01*
X166500500Y-61065892D01*
X166500500Y-60934108D01*
X167999500Y-60934108D01*
X167999500Y-61065891D01*
X168033608Y-61193187D01*
X168044750Y-61212485D01*
X168099500Y-61307314D01*
X168192686Y-61400500D01*
X168306814Y-61466392D01*
X168434108Y-61500500D01*
X168434110Y-61500500D01*
X168565890Y-61500500D01*
X168565892Y-61500500D01*
X168693186Y-61466392D01*
X168807314Y-61400500D01*
X168900500Y-61307314D01*
X168966392Y-61193186D01*
X169000500Y-61065892D01*
X169000500Y-60934108D01*
X170499500Y-60934108D01*
X170499500Y-61065891D01*
X170533608Y-61193187D01*
X170544750Y-61212485D01*
X170599500Y-61307314D01*
X170692686Y-61400500D01*
X170806814Y-61466392D01*
X170934108Y-61500500D01*
X170934110Y-61500500D01*
X171065890Y-61500500D01*
X171065892Y-61500500D01*
X171193186Y-61466392D01*
X171307314Y-61400500D01*
X171400500Y-61307314D01*
X171466392Y-61193186D01*
X171500500Y-61065892D01*
X171500500Y-60934108D01*
X172999500Y-60934108D01*
X172999500Y-61065891D01*
X173033608Y-61193187D01*
X173044750Y-61212485D01*
X173099500Y-61307314D01*
X173192686Y-61400500D01*
X173306814Y-61466392D01*
X173434108Y-61500500D01*
X173434110Y-61500500D01*
X173565890Y-61500500D01*
X173565892Y-61500500D01*
X173693186Y-61466392D01*
X173807314Y-61400500D01*
X173900500Y-61307314D01*
X173966392Y-61193186D01*
X174000500Y-61065892D01*
X174000500Y-60934108D01*
X173966392Y-60806814D01*
X173900500Y-60692686D01*
X173807314Y-60599500D01*
X173738017Y-60559491D01*
X173693187Y-60533608D01*
X173629539Y-60516554D01*
X173565892Y-60499500D01*
X173434108Y-60499500D01*
X173306812Y-60533608D01*
X173192686Y-60599500D01*
X173192683Y-60599502D01*
X173099502Y-60692683D01*
X173099500Y-60692686D01*
X173033608Y-60806812D01*
X172999500Y-60934108D01*
X171500500Y-60934108D01*
X171466392Y-60806814D01*
X171400500Y-60692686D01*
X171307314Y-60599500D01*
X171238017Y-60559491D01*
X171193187Y-60533608D01*
X171129539Y-60516554D01*
X171065892Y-60499500D01*
X170934108Y-60499500D01*
X170806812Y-60533608D01*
X170692686Y-60599500D01*
X170692683Y-60599502D01*
X170599502Y-60692683D01*
X170599500Y-60692686D01*
X170533608Y-60806812D01*
X170499500Y-60934108D01*
X169000500Y-60934108D01*
X168966392Y-60806814D01*
X168900500Y-60692686D01*
X168807314Y-60599500D01*
X168738017Y-60559491D01*
X168693187Y-60533608D01*
X168629539Y-60516554D01*
X168565892Y-60499500D01*
X168434108Y-60499500D01*
X168306812Y-60533608D01*
X168192686Y-60599500D01*
X168192683Y-60599502D01*
X168099502Y-60692683D01*
X168099500Y-60692686D01*
X168033608Y-60806812D01*
X167999500Y-60934108D01*
X166500500Y-60934108D01*
X166466392Y-60806814D01*
X166400500Y-60692686D01*
X166307314Y-60599500D01*
X166238017Y-60559491D01*
X166193187Y-60533608D01*
X166129539Y-60516554D01*
X166065892Y-60499500D01*
X165934108Y-60499500D01*
X165806812Y-60533608D01*
X165692686Y-60599500D01*
X165692683Y-60599502D01*
X165599502Y-60692683D01*
X165599500Y-60692686D01*
X165533608Y-60806812D01*
X165499500Y-60934108D01*
X164000500Y-60934108D01*
X163966392Y-60806814D01*
X163900500Y-60692686D01*
X163807314Y-60599500D01*
X163738017Y-60559491D01*
X163693187Y-60533608D01*
X163629539Y-60516554D01*
X163565892Y-60499500D01*
X163434108Y-60499500D01*
X163306812Y-60533608D01*
X163192686Y-60599500D01*
X163192683Y-60599502D01*
X163099502Y-60692683D01*
X163099500Y-60692686D01*
X163033608Y-60806812D01*
X162999500Y-60934108D01*
X161434109Y-60934108D01*
X159646452Y-59146451D01*
X159646445Y-59146445D01*
X159542893Y-59066987D01*
X159542888Y-59066984D01*
X159422306Y-59017038D01*
X159422301Y-59017036D01*
X159292902Y-59000001D01*
X159292899Y-59000000D01*
X159292893Y-59000000D01*
X159292886Y-59000000D01*
X159004027Y-59000000D01*
X158936988Y-58980315D01*
X158891233Y-58927511D01*
X158881289Y-58858353D01*
X158896640Y-58814000D01*
X158924079Y-58766473D01*
X158966392Y-58693186D01*
X159000500Y-58565892D01*
X159000500Y-58434108D01*
X158966392Y-58306814D01*
X158900500Y-58192686D01*
X158807314Y-58099500D01*
X158749103Y-58065892D01*
X158693187Y-58033608D01*
X158606157Y-58010289D01*
X158565892Y-57999500D01*
X158434108Y-57999500D01*
X158306812Y-58033608D01*
X158192686Y-58099500D01*
X158192683Y-58099502D01*
X158099502Y-58192683D01*
X158099500Y-58192686D01*
X158033608Y-58306812D01*
X158017644Y-58366392D01*
X157999500Y-58434108D01*
X157999500Y-58565892D01*
X158017644Y-58633608D01*
X158033609Y-58693188D01*
X158033609Y-58693189D01*
X158103360Y-58814000D01*
X158119833Y-58881900D01*
X158096981Y-58947927D01*
X158042060Y-58991117D01*
X157995973Y-59000000D01*
X154215233Y-59000000D01*
X154199048Y-58998939D01*
X154186024Y-58997224D01*
X154093882Y-58985093D01*
X154062616Y-58976715D01*
X153972191Y-58939260D01*
X153944157Y-58923075D01*
X153859996Y-58858496D01*
X153847801Y-58847801D01*
X150646452Y-55646451D01*
X150646445Y-55646445D01*
X150542893Y-55566987D01*
X150542888Y-55566984D01*
X150422306Y-55517038D01*
X150422301Y-55517036D01*
X150292902Y-55500001D01*
X150292899Y-55500000D01*
X150292893Y-55500000D01*
X150292886Y-55500000D01*
X149590233Y-55500000D01*
X149574048Y-55498939D01*
X149561024Y-55497224D01*
X149468882Y-55485093D01*
X149437616Y-55476715D01*
X149347191Y-55439260D01*
X149319157Y-55423075D01*
X149234996Y-55358496D01*
X149222801Y-55347801D01*
X148652198Y-54777198D01*
X148641503Y-54765003D01*
X148576924Y-54680842D01*
X148560739Y-54652808D01*
X148523284Y-54562383D01*
X148514906Y-54531116D01*
X148501061Y-54425952D01*
X148500000Y-54409767D01*
X148500000Y-53371482D01*
X148501061Y-53355297D01*
X148514906Y-53250133D01*
X148523284Y-53218866D01*
X148560739Y-53128441D01*
X148576924Y-53100407D01*
X148641503Y-53016246D01*
X148652190Y-53004059D01*
X149004059Y-52652190D01*
X149016246Y-52641503D01*
X149100407Y-52576924D01*
X149128441Y-52560739D01*
X149218866Y-52523284D01*
X149250132Y-52514906D01*
X149355298Y-52501061D01*
X149371483Y-52500000D01*
X152284767Y-52500000D01*
X152300952Y-52501061D01*
G37*
%TD.AperFunction*%
%TD*%
%TA.AperFunction,Conductor*%
%TO.N,+1V1*%
G36*
X157918039Y-63419685D02*
G01*
X157963794Y-63472489D01*
X157975000Y-63524000D01*
X157975000Y-65600000D01*
X162638681Y-70263681D01*
X162672166Y-70325004D01*
X162675000Y-70351362D01*
X162675000Y-72248638D01*
X162655315Y-72315677D01*
X162638681Y-72336319D01*
X158311319Y-76663681D01*
X158249996Y-76697166D01*
X158223638Y-76700000D01*
X157399000Y-76700000D01*
X157331961Y-76680315D01*
X157286206Y-76627511D01*
X157275000Y-76576000D01*
X157275000Y-73474500D01*
X157294685Y-73407461D01*
X157347489Y-73361706D01*
X157399000Y-73350500D01*
X157473543Y-73350500D01*
X157603582Y-73324632D01*
X157666835Y-73312051D01*
X157848914Y-73236632D01*
X157993609Y-73139950D01*
X158060286Y-73119072D01*
X158127667Y-73137556D01*
X158131391Y-73139950D01*
X158276079Y-73236628D01*
X158276092Y-73236635D01*
X158458160Y-73312049D01*
X158458165Y-73312051D01*
X158458169Y-73312051D01*
X158458170Y-73312052D01*
X158651456Y-73350500D01*
X158651459Y-73350500D01*
X158848543Y-73350500D01*
X158978582Y-73324632D01*
X159041835Y-73312051D01*
X159223914Y-73236632D01*
X159387782Y-73127139D01*
X159527139Y-72987782D01*
X159636632Y-72823914D01*
X159712051Y-72641835D01*
X159750500Y-72448541D01*
X159750500Y-72251459D01*
X159750500Y-72251456D01*
X159712052Y-72058170D01*
X159712051Y-72058169D01*
X159712051Y-72058165D01*
X159712049Y-72058160D01*
X159636635Y-71876092D01*
X159636628Y-71876079D01*
X159548302Y-71743891D01*
X159527424Y-71677214D01*
X159545908Y-71609834D01*
X159548302Y-71606109D01*
X159636628Y-71473920D01*
X159636628Y-71473919D01*
X159636632Y-71473914D01*
X159712051Y-71291835D01*
X159750500Y-71098541D01*
X159750500Y-70901459D01*
X159750500Y-70901456D01*
X159712052Y-70708170D01*
X159712051Y-70708169D01*
X159712051Y-70708165D01*
X159712049Y-70708160D01*
X159636635Y-70526092D01*
X159636628Y-70526079D01*
X159548302Y-70393891D01*
X159527424Y-70327214D01*
X159545908Y-70259834D01*
X159548302Y-70256109D01*
X159636628Y-70123920D01*
X159636628Y-70123919D01*
X159636632Y-70123914D01*
X159712051Y-69941835D01*
X159750500Y-69748541D01*
X159750500Y-69551459D01*
X159750500Y-69551456D01*
X159712052Y-69358170D01*
X159712051Y-69358169D01*
X159712051Y-69358165D01*
X159712049Y-69358160D01*
X159636635Y-69176092D01*
X159636628Y-69176079D01*
X159527139Y-69012218D01*
X159527136Y-69012214D01*
X159387785Y-68872863D01*
X159387781Y-68872860D01*
X159223920Y-68763371D01*
X159223907Y-68763364D01*
X159041839Y-68687950D01*
X159041829Y-68687947D01*
X158848543Y-68649500D01*
X158848541Y-68649500D01*
X158651459Y-68649500D01*
X158651457Y-68649500D01*
X158458170Y-68687947D01*
X158458160Y-68687950D01*
X158276092Y-68763364D01*
X158276079Y-68763371D01*
X158131391Y-68860049D01*
X158064713Y-68880927D01*
X157997333Y-68862442D01*
X157993609Y-68860049D01*
X157848920Y-68763371D01*
X157848907Y-68763364D01*
X157666839Y-68687950D01*
X157666829Y-68687947D01*
X157473543Y-68649500D01*
X157473541Y-68649500D01*
X157276459Y-68649500D01*
X157276457Y-68649500D01*
X157083170Y-68687947D01*
X157083160Y-68687950D01*
X156901092Y-68763364D01*
X156901079Y-68763371D01*
X156756391Y-68860049D01*
X156689713Y-68880927D01*
X156622333Y-68862442D01*
X156618609Y-68860049D01*
X156473920Y-68763371D01*
X156473907Y-68763364D01*
X156291839Y-68687950D01*
X156291829Y-68687947D01*
X156098543Y-68649500D01*
X156098541Y-68649500D01*
X155901459Y-68649500D01*
X155901457Y-68649500D01*
X155708170Y-68687947D01*
X155708160Y-68687950D01*
X155526092Y-68763364D01*
X155526079Y-68763371D01*
X155362218Y-68872860D01*
X155362214Y-68872863D01*
X155222863Y-69012214D01*
X155222860Y-69012218D01*
X155113371Y-69176079D01*
X155113364Y-69176092D01*
X155037950Y-69358160D01*
X155037947Y-69358170D01*
X154999500Y-69551456D01*
X154999500Y-69551459D01*
X154999500Y-69748541D01*
X154999500Y-69748543D01*
X154999499Y-69748543D01*
X155037947Y-69941829D01*
X155037950Y-69941839D01*
X155113364Y-70123907D01*
X155113371Y-70123920D01*
X155201697Y-70256109D01*
X155207670Y-70275186D01*
X155218176Y-70292193D01*
X155217896Y-70307846D01*
X155222575Y-70322787D01*
X155217286Y-70342064D01*
X155216930Y-70362051D01*
X155204911Y-70387171D01*
X155204090Y-70390167D01*
X155201698Y-70393889D01*
X155167622Y-70444889D01*
X155114011Y-70489695D01*
X155064519Y-70500000D01*
X152299000Y-70500000D01*
X152231961Y-70480315D01*
X152186206Y-70427511D01*
X152175000Y-70376000D01*
X152175000Y-69651362D01*
X152194685Y-69584323D01*
X152211319Y-69563681D01*
X152598921Y-69176079D01*
X153173890Y-68601109D01*
X153176111Y-68598945D01*
X157075000Y-64900000D01*
X157075000Y-63524000D01*
X157094685Y-63456961D01*
X157147489Y-63411206D01*
X157199000Y-63400000D01*
X157851000Y-63400000D01*
X157918039Y-63419685D01*
G37*
%TD.AperFunction*%
%TD*%
%TA.AperFunction,Conductor*%
%TO.N,GND*%
G36*
X215502855Y-40200632D02*
G01*
X215890991Y-40218576D01*
X215902381Y-40219632D01*
X216284363Y-40272916D01*
X216295607Y-40275018D01*
X216671043Y-40363320D01*
X216682033Y-40366447D01*
X217047732Y-40489017D01*
X217058399Y-40493150D01*
X217411212Y-40648932D01*
X217421465Y-40654037D01*
X217758382Y-40841699D01*
X217768120Y-40847728D01*
X218035848Y-41031126D01*
X218086303Y-41065688D01*
X218095443Y-41072591D01*
X218392143Y-41318968D01*
X218400607Y-41326684D01*
X218673315Y-41599392D01*
X218681031Y-41607856D01*
X218927408Y-41904556D01*
X218934311Y-41913696D01*
X219152271Y-42231879D01*
X219158300Y-42241617D01*
X219345962Y-42578534D01*
X219351067Y-42588787D01*
X219506849Y-42941600D01*
X219510987Y-42952280D01*
X219633548Y-43317953D01*
X219636682Y-43328969D01*
X219724979Y-43704384D01*
X219727084Y-43715643D01*
X219780366Y-44097611D01*
X219781423Y-44109016D01*
X219799366Y-44497143D01*
X219799498Y-44502869D01*
X219799496Y-125460113D01*
X219799496Y-125497124D01*
X219799364Y-125502851D01*
X219781419Y-125890980D01*
X219780362Y-125902384D01*
X219727080Y-126284352D01*
X219724975Y-126295611D01*
X219636679Y-126671027D01*
X219633545Y-126682043D01*
X219510984Y-127047715D01*
X219506847Y-127058395D01*
X219351065Y-127411209D01*
X219345959Y-127421462D01*
X219158297Y-127758379D01*
X219152268Y-127768117D01*
X218934308Y-128086300D01*
X218927405Y-128095440D01*
X218681028Y-128392141D01*
X218673312Y-128400605D01*
X218400605Y-128673312D01*
X218392141Y-128681028D01*
X218095440Y-128927405D01*
X218086300Y-128934308D01*
X217768117Y-129152268D01*
X217758379Y-129158297D01*
X217421462Y-129345959D01*
X217411209Y-129351065D01*
X217058395Y-129506847D01*
X217047715Y-129510984D01*
X216682043Y-129633545D01*
X216671027Y-129636679D01*
X216295611Y-129724975D01*
X216284352Y-129727080D01*
X215902384Y-129780362D01*
X215890980Y-129781419D01*
X215502851Y-129799364D01*
X215497124Y-129799496D01*
X134502872Y-129799496D01*
X134497145Y-129799364D01*
X134109015Y-129781419D01*
X134097611Y-129780362D01*
X133715643Y-129727080D01*
X133704384Y-129724975D01*
X133328969Y-129636678D01*
X133317953Y-129633544D01*
X132952272Y-129510980D01*
X132941592Y-129506842D01*
X132588796Y-129351067D01*
X132578548Y-129345964D01*
X132375212Y-129232707D01*
X132241618Y-129158295D01*
X132231880Y-129152266D01*
X131913698Y-128934307D01*
X131904558Y-128927404D01*
X131607857Y-128681027D01*
X131599393Y-128673311D01*
X131326687Y-128400604D01*
X131318971Y-128392140D01*
X131072593Y-128095438D01*
X131065690Y-128086298D01*
X131025741Y-128027980D01*
X130850245Y-127771786D01*
X130847731Y-127768116D01*
X130841702Y-127758378D01*
X130787068Y-127660292D01*
X130654028Y-127421440D01*
X130648936Y-127411213D01*
X130493150Y-127058390D01*
X130489022Y-127047736D01*
X130366450Y-126682029D01*
X130363323Y-126671039D01*
X130275021Y-126295603D01*
X130272918Y-126284352D01*
X130268645Y-126253722D01*
X130219636Y-125902377D01*
X130218580Y-125890980D01*
X130216251Y-125840602D01*
X130200634Y-125502829D01*
X130200503Y-125497187D01*
X130200503Y-125388549D01*
X132799500Y-125388549D01*
X132799500Y-125611450D01*
X132799501Y-125611466D01*
X132828594Y-125832452D01*
X132828595Y-125832457D01*
X132828596Y-125832463D01*
X132854252Y-125928213D01*
X132886290Y-126047780D01*
X132886293Y-126047790D01*
X132937257Y-126170827D01*
X132971595Y-126253726D01*
X133083052Y-126446774D01*
X133083057Y-126446780D01*
X133083058Y-126446782D01*
X133218751Y-126623622D01*
X133218757Y-126623629D01*
X133376370Y-126781242D01*
X133376376Y-126781247D01*
X133553226Y-126916948D01*
X133746274Y-127028405D01*
X133952219Y-127113710D01*
X134167537Y-127171404D01*
X134388543Y-127200500D01*
X134388550Y-127200500D01*
X134611450Y-127200500D01*
X134611457Y-127200500D01*
X134832463Y-127171404D01*
X135047781Y-127113710D01*
X135253726Y-127028405D01*
X135446774Y-126916948D01*
X135623624Y-126781247D01*
X135781247Y-126623624D01*
X135898241Y-126471153D01*
X175379500Y-126471153D01*
X175379500Y-127228846D01*
X175410261Y-127383489D01*
X175410264Y-127383501D01*
X175470602Y-127529172D01*
X175470609Y-127529185D01*
X175558210Y-127660288D01*
X175558213Y-127660292D01*
X175669707Y-127771786D01*
X175669711Y-127771789D01*
X175800814Y-127859390D01*
X175800827Y-127859397D01*
X175946498Y-127919735D01*
X175946503Y-127919737D01*
X176101153Y-127950499D01*
X176101156Y-127950500D01*
X176101158Y-127950500D01*
X176258844Y-127950500D01*
X176258845Y-127950499D01*
X176413497Y-127919737D01*
X176559179Y-127859394D01*
X176690289Y-127771789D01*
X176801789Y-127660289D01*
X176889394Y-127529179D01*
X176949737Y-127383497D01*
X176980500Y-127228842D01*
X176980500Y-126471158D01*
X176980500Y-126471155D01*
X176980499Y-126471153D01*
X184019500Y-126471153D01*
X184019500Y-127228846D01*
X184050261Y-127383489D01*
X184050264Y-127383501D01*
X184110602Y-127529172D01*
X184110609Y-127529185D01*
X184198210Y-127660288D01*
X184198213Y-127660292D01*
X184309707Y-127771786D01*
X184309711Y-127771789D01*
X184440814Y-127859390D01*
X184440827Y-127859397D01*
X184586498Y-127919735D01*
X184586503Y-127919737D01*
X184741153Y-127950499D01*
X184741156Y-127950500D01*
X184741158Y-127950500D01*
X184898844Y-127950500D01*
X184898845Y-127950499D01*
X185053497Y-127919737D01*
X185199179Y-127859394D01*
X185330289Y-127771789D01*
X185441789Y-127660289D01*
X185529394Y-127529179D01*
X185589737Y-127383497D01*
X185620500Y-127228842D01*
X185620500Y-126471158D01*
X185620500Y-126471155D01*
X185620499Y-126471153D01*
X185615648Y-126446766D01*
X185589737Y-126316503D01*
X185581083Y-126295611D01*
X185529397Y-126170827D01*
X185529390Y-126170814D01*
X185441789Y-126039711D01*
X185441786Y-126039707D01*
X185330292Y-125928213D01*
X185330288Y-125928210D01*
X185199185Y-125840609D01*
X185199172Y-125840602D01*
X185053501Y-125780264D01*
X185053489Y-125780261D01*
X184898845Y-125749500D01*
X184898842Y-125749500D01*
X184741158Y-125749500D01*
X184741155Y-125749500D01*
X184586510Y-125780261D01*
X184586498Y-125780264D01*
X184440827Y-125840602D01*
X184440814Y-125840609D01*
X184309711Y-125928210D01*
X184309707Y-125928213D01*
X184198213Y-126039707D01*
X184198210Y-126039711D01*
X184110609Y-126170814D01*
X184110602Y-126170827D01*
X184050264Y-126316498D01*
X184050261Y-126316510D01*
X184019500Y-126471153D01*
X176980499Y-126471153D01*
X176975648Y-126446766D01*
X176949737Y-126316503D01*
X176941083Y-126295611D01*
X176889397Y-126170827D01*
X176889390Y-126170814D01*
X176801789Y-126039711D01*
X176801786Y-126039707D01*
X176690292Y-125928213D01*
X176690288Y-125928210D01*
X176559185Y-125840609D01*
X176559172Y-125840602D01*
X176413501Y-125780264D01*
X176413489Y-125780261D01*
X176258845Y-125749500D01*
X176258842Y-125749500D01*
X176101158Y-125749500D01*
X176101155Y-125749500D01*
X175946510Y-125780261D01*
X175946498Y-125780264D01*
X175800827Y-125840602D01*
X175800814Y-125840609D01*
X175669711Y-125928210D01*
X175669707Y-125928213D01*
X175558213Y-126039707D01*
X175558210Y-126039711D01*
X175470609Y-126170814D01*
X175470602Y-126170827D01*
X175410264Y-126316498D01*
X175410261Y-126316510D01*
X175379500Y-126471153D01*
X135898241Y-126471153D01*
X135916948Y-126446774D01*
X136028405Y-126253726D01*
X136113710Y-126047781D01*
X136171404Y-125832463D01*
X136200500Y-125611457D01*
X136200500Y-125388549D01*
X213799500Y-125388549D01*
X213799500Y-125611450D01*
X213799501Y-125611466D01*
X213828594Y-125832452D01*
X213828595Y-125832457D01*
X213828596Y-125832463D01*
X213854252Y-125928213D01*
X213886290Y-126047780D01*
X213886293Y-126047790D01*
X213937257Y-126170827D01*
X213971595Y-126253726D01*
X214083052Y-126446774D01*
X214083057Y-126446780D01*
X214083058Y-126446782D01*
X214218751Y-126623622D01*
X214218757Y-126623629D01*
X214376370Y-126781242D01*
X214376376Y-126781247D01*
X214553226Y-126916948D01*
X214746274Y-127028405D01*
X214952219Y-127113710D01*
X215167537Y-127171404D01*
X215388543Y-127200500D01*
X215388550Y-127200500D01*
X215611450Y-127200500D01*
X215611457Y-127200500D01*
X215832463Y-127171404D01*
X216047781Y-127113710D01*
X216253726Y-127028405D01*
X216446774Y-126916948D01*
X216623624Y-126781247D01*
X216781247Y-126623624D01*
X216916948Y-126446774D01*
X217028405Y-126253726D01*
X217113710Y-126047781D01*
X217171404Y-125832463D01*
X217200500Y-125611457D01*
X217200500Y-125388543D01*
X217171404Y-125167537D01*
X217113710Y-124952219D01*
X217028405Y-124746274D01*
X216916948Y-124553226D01*
X216781247Y-124376376D01*
X216781242Y-124376370D01*
X216623629Y-124218757D01*
X216623622Y-124218751D01*
X216446782Y-124083058D01*
X216446780Y-124083057D01*
X216446774Y-124083052D01*
X216253726Y-123971595D01*
X216253722Y-123971593D01*
X216047790Y-123886293D01*
X216047783Y-123886291D01*
X216047781Y-123886290D01*
X215832463Y-123828596D01*
X215832457Y-123828595D01*
X215832452Y-123828594D01*
X215611466Y-123799501D01*
X215611463Y-123799500D01*
X215611457Y-123799500D01*
X215388543Y-123799500D01*
X215388537Y-123799500D01*
X215388533Y-123799501D01*
X215167547Y-123828594D01*
X215167540Y-123828595D01*
X215167537Y-123828596D01*
X215118300Y-123841789D01*
X214952219Y-123886290D01*
X214952209Y-123886293D01*
X214746277Y-123971593D01*
X214746273Y-123971595D01*
X214553226Y-124083052D01*
X214553217Y-124083058D01*
X214376377Y-124218751D01*
X214376370Y-124218757D01*
X214218757Y-124376370D01*
X214218751Y-124376377D01*
X214083058Y-124553217D01*
X214083052Y-124553226D01*
X213971595Y-124746273D01*
X213971593Y-124746277D01*
X213886293Y-124952209D01*
X213886290Y-124952219D01*
X213828597Y-125167534D01*
X213828594Y-125167547D01*
X213799501Y-125388533D01*
X213799500Y-125388549D01*
X136200500Y-125388549D01*
X136200500Y-125388543D01*
X136171404Y-125167537D01*
X136113710Y-124952219D01*
X136028405Y-124746274D01*
X135916948Y-124553226D01*
X135781247Y-124376376D01*
X135781242Y-124376370D01*
X135623629Y-124218757D01*
X135623622Y-124218751D01*
X135446782Y-124083058D01*
X135446780Y-124083057D01*
X135446774Y-124083052D01*
X135253726Y-123971595D01*
X135253722Y-123971593D01*
X135047790Y-123886293D01*
X135047783Y-123886291D01*
X135047781Y-123886290D01*
X134832463Y-123828596D01*
X134832457Y-123828595D01*
X134832452Y-123828594D01*
X134611466Y-123799501D01*
X134611463Y-123799500D01*
X134611457Y-123799500D01*
X134388543Y-123799500D01*
X134388537Y-123799500D01*
X134388533Y-123799501D01*
X134167547Y-123828594D01*
X134167540Y-123828595D01*
X134167537Y-123828596D01*
X134118300Y-123841789D01*
X133952219Y-123886290D01*
X133952209Y-123886293D01*
X133746277Y-123971593D01*
X133746273Y-123971595D01*
X133553226Y-124083052D01*
X133553217Y-124083058D01*
X133376377Y-124218751D01*
X133376370Y-124218757D01*
X133218757Y-124376370D01*
X133218751Y-124376377D01*
X133083058Y-124553217D01*
X133083052Y-124553226D01*
X132971595Y-124746273D01*
X132971593Y-124746277D01*
X132886293Y-124952209D01*
X132886290Y-124952219D01*
X132828597Y-125167534D01*
X132828594Y-125167547D01*
X132799501Y-125388533D01*
X132799500Y-125388549D01*
X130200503Y-125388549D01*
X130200502Y-93708137D01*
X133194500Y-93708137D01*
X133194500Y-107587270D01*
X133195139Y-107607020D01*
X133196176Y-107623028D01*
X133198098Y-107642751D01*
X133211653Y-107746824D01*
X133211655Y-107746835D01*
X133219291Y-107785647D01*
X133227490Y-107816582D01*
X133227498Y-107816610D01*
X133240071Y-107854070D01*
X133276769Y-107943711D01*
X133276782Y-107943741D01*
X133294084Y-107979254D01*
X133294093Y-107979272D01*
X133309943Y-108007076D01*
X133309952Y-108007091D01*
X133331708Y-108040092D01*
X133331722Y-108040113D01*
X133395035Y-108123811D01*
X133407470Y-108139188D01*
X133417961Y-108151337D01*
X133431361Y-108165875D01*
X135537521Y-110307138D01*
X145280752Y-120212756D01*
X145280870Y-120212875D01*
X145281243Y-120213253D01*
X145282432Y-120214457D01*
X145282433Y-120214457D01*
X145282485Y-120214510D01*
X145283221Y-120215252D01*
X145283379Y-120215412D01*
X145284889Y-120216929D01*
X145285535Y-120217578D01*
X146779978Y-121712020D01*
X148247160Y-123179202D01*
X148268384Y-123198266D01*
X148271493Y-123201059D01*
X148292174Y-123217724D01*
X148297672Y-123222051D01*
X148297675Y-123222053D01*
X148397751Y-123272939D01*
X148464790Y-123292624D01*
X148464794Y-123292624D01*
X148464796Y-123292625D01*
X148489187Y-123296132D01*
X148503632Y-123299095D01*
X148538795Y-123308516D01*
X148559500Y-123314063D01*
X148589403Y-123326449D01*
X148605598Y-123335799D01*
X148631275Y-123355503D01*
X148644494Y-123368722D01*
X148664199Y-123394402D01*
X148673546Y-123410591D01*
X148685935Y-123440500D01*
X148694097Y-123470963D01*
X148697611Y-123489799D01*
X148699580Y-123508116D01*
X148700420Y-123515160D01*
X148700420Y-123515162D01*
X148735200Y-123621901D01*
X148735204Y-123621911D01*
X148768689Y-123683233D01*
X148820789Y-123752829D01*
X148820807Y-123752850D01*
X149131778Y-124063821D01*
X149142938Y-124074273D01*
X149146368Y-124077486D01*
X149158563Y-124088181D01*
X149174019Y-124100865D01*
X149174031Y-124100874D01*
X149258158Y-124165428D01*
X149258178Y-124165442D01*
X149258180Y-124165444D01*
X149291410Y-124187648D01*
X149319444Y-124203833D01*
X149355282Y-124221505D01*
X149445707Y-124258960D01*
X149483544Y-124271805D01*
X149514810Y-124280183D01*
X149554004Y-124287979D01*
X149659170Y-124301825D01*
X149679064Y-124303785D01*
X149695249Y-124304846D01*
X149715233Y-124305500D01*
X153264752Y-124305500D01*
X153280936Y-124306561D01*
X153326361Y-124312541D01*
X153357630Y-124320919D01*
X153373740Y-124327592D01*
X153401772Y-124343776D01*
X153438142Y-124371683D01*
X153450330Y-124382371D01*
X153694535Y-124626577D01*
X153731794Y-124663836D01*
X153742981Y-124674314D01*
X153746368Y-124677486D01*
X153758563Y-124688181D01*
X153774019Y-124700865D01*
X153774031Y-124700874D01*
X153858158Y-124765428D01*
X153858172Y-124765438D01*
X153858180Y-124765444D01*
X153891410Y-124787648D01*
X153919444Y-124803833D01*
X153955282Y-124821505D01*
X154045707Y-124858960D01*
X154083544Y-124871805D01*
X154114810Y-124880183D01*
X154154004Y-124887979D01*
X154259170Y-124901825D01*
X154279064Y-124903785D01*
X154295249Y-124904846D01*
X154315233Y-124905500D01*
X154315246Y-124905500D01*
X155191861Y-124905500D01*
X155191874Y-124905500D01*
X155211859Y-124904846D01*
X155228043Y-124903785D01*
X155228053Y-124903783D01*
X155228068Y-124903783D01*
X155242315Y-124902378D01*
X155247936Y-124901825D01*
X155353102Y-124887979D01*
X155392294Y-124880183D01*
X155423561Y-124871805D01*
X155461401Y-124858960D01*
X155551828Y-124821504D01*
X155587669Y-124803829D01*
X155615702Y-124787644D01*
X155648928Y-124765443D01*
X155726578Y-124705860D01*
X155756622Y-124679512D01*
X155779512Y-124656622D01*
X155805860Y-124626578D01*
X155865443Y-124548928D01*
X155887644Y-124515702D01*
X155903829Y-124487669D01*
X155921504Y-124451828D01*
X155958960Y-124361401D01*
X155971805Y-124323561D01*
X155980183Y-124292294D01*
X155987979Y-124253102D01*
X156001825Y-124147938D01*
X156003785Y-124128043D01*
X156004846Y-124111857D01*
X156005500Y-124091874D01*
X156005500Y-122508125D01*
X156004846Y-122488142D01*
X156003785Y-122471956D01*
X156001825Y-122452061D01*
X155987979Y-122346897D01*
X155980183Y-122307705D01*
X155971805Y-122276438D01*
X155958960Y-122238598D01*
X155921504Y-122148171D01*
X155903829Y-122112330D01*
X155887644Y-122084297D01*
X155865443Y-122051071D01*
X155865438Y-122051063D01*
X155857833Y-122041153D01*
X175379500Y-122041153D01*
X175379500Y-123298846D01*
X175410261Y-123453489D01*
X175410264Y-123453501D01*
X175470602Y-123599172D01*
X175470609Y-123599185D01*
X175558210Y-123730288D01*
X175558213Y-123730292D01*
X175669707Y-123841786D01*
X175669711Y-123841789D01*
X175800814Y-123929390D01*
X175800827Y-123929397D01*
X175902699Y-123971593D01*
X175946503Y-123989737D01*
X176101153Y-124020499D01*
X176101156Y-124020500D01*
X176101158Y-124020500D01*
X176258844Y-124020500D01*
X176258845Y-124020499D01*
X176413497Y-123989737D01*
X176559179Y-123929394D01*
X176690289Y-123841789D01*
X176801789Y-123730289D01*
X176889394Y-123599179D01*
X176890503Y-123596503D01*
X176924195Y-123515162D01*
X176949737Y-123453497D01*
X176968555Y-123358888D01*
X177000939Y-123296980D01*
X177061654Y-123262406D01*
X177131424Y-123266145D01*
X177188096Y-123307011D01*
X177209946Y-123350986D01*
X177212065Y-123358892D01*
X177213497Y-123364237D01*
X177269515Y-123461263D01*
X177348737Y-123540485D01*
X177445763Y-123596503D01*
X177553982Y-123625500D01*
X177553984Y-123625500D01*
X177666016Y-123625500D01*
X177666018Y-123625500D01*
X177774237Y-123596503D01*
X177871263Y-123540485D01*
X177950485Y-123461263D01*
X178006503Y-123364237D01*
X178035500Y-123256018D01*
X178035500Y-123143982D01*
X182964500Y-123143982D01*
X182964500Y-123256018D01*
X182993497Y-123364237D01*
X183049515Y-123461263D01*
X183128737Y-123540485D01*
X183225763Y-123596503D01*
X183333982Y-123625500D01*
X183333984Y-123625500D01*
X183446016Y-123625500D01*
X183446018Y-123625500D01*
X183554237Y-123596503D01*
X183651263Y-123540485D01*
X183730485Y-123461263D01*
X183786503Y-123364237D01*
X183790052Y-123350990D01*
X183826415Y-123291330D01*
X183889262Y-123260799D01*
X183958637Y-123269093D01*
X184012516Y-123313577D01*
X184031444Y-123358891D01*
X184050261Y-123453489D01*
X184050264Y-123453501D01*
X184110602Y-123599172D01*
X184110609Y-123599185D01*
X184198210Y-123730288D01*
X184198213Y-123730292D01*
X184309707Y-123841786D01*
X184309711Y-123841789D01*
X184440814Y-123929390D01*
X184440827Y-123929397D01*
X184542699Y-123971593D01*
X184586503Y-123989737D01*
X184741153Y-124020499D01*
X184741156Y-124020500D01*
X184741158Y-124020500D01*
X184898844Y-124020500D01*
X184898845Y-124020499D01*
X185053497Y-123989737D01*
X185199179Y-123929394D01*
X185330289Y-123841789D01*
X185441789Y-123730289D01*
X185529394Y-123599179D01*
X185530503Y-123596503D01*
X185564195Y-123515162D01*
X185589737Y-123453497D01*
X185620500Y-123298842D01*
X185620500Y-122041158D01*
X185620500Y-122041155D01*
X185620499Y-122041153D01*
X185607026Y-121973421D01*
X185589737Y-121886503D01*
X185568221Y-121834558D01*
X185529397Y-121740827D01*
X185529390Y-121740814D01*
X185441789Y-121609711D01*
X185441786Y-121609707D01*
X185330292Y-121498213D01*
X185330288Y-121498210D01*
X185199185Y-121410609D01*
X185199172Y-121410602D01*
X185053501Y-121350264D01*
X185053489Y-121350261D01*
X184898845Y-121319500D01*
X184898842Y-121319500D01*
X184741158Y-121319500D01*
X184741155Y-121319500D01*
X184586510Y-121350261D01*
X184586498Y-121350264D01*
X184440827Y-121410602D01*
X184440814Y-121410609D01*
X184309711Y-121498210D01*
X184309707Y-121498213D01*
X184198213Y-121609707D01*
X184198210Y-121609711D01*
X184110609Y-121740814D01*
X184110602Y-121740827D01*
X184050264Y-121886498D01*
X184050261Y-121886510D01*
X184019500Y-122041153D01*
X184019500Y-122976551D01*
X183999815Y-123043590D01*
X183947011Y-123089345D01*
X183877853Y-123099289D01*
X183814297Y-123070264D01*
X183788113Y-123038551D01*
X183752317Y-122976551D01*
X183730485Y-122938737D01*
X183651263Y-122859515D01*
X183554237Y-122803497D01*
X183446018Y-122774500D01*
X183333982Y-122774500D01*
X183225763Y-122803497D01*
X183225760Y-122803498D01*
X183128740Y-122859513D01*
X183128734Y-122859517D01*
X183049517Y-122938734D01*
X183049513Y-122938740D01*
X182993498Y-123035760D01*
X182993497Y-123035763D01*
X182964500Y-123143982D01*
X178035500Y-123143982D01*
X178006503Y-123035763D01*
X177950485Y-122938737D01*
X177871263Y-122859515D01*
X177774237Y-122803497D01*
X177666018Y-122774500D01*
X177553982Y-122774500D01*
X177445763Y-122803497D01*
X177445760Y-122803498D01*
X177348740Y-122859513D01*
X177348734Y-122859517D01*
X177269517Y-122938734D01*
X177269513Y-122938740D01*
X177211887Y-123038551D01*
X177161320Y-123086767D01*
X177092713Y-123099989D01*
X177027848Y-123074021D01*
X176987320Y-123017107D01*
X176980500Y-122976551D01*
X176980500Y-122041155D01*
X176980499Y-122041153D01*
X176967026Y-121973421D01*
X176949737Y-121886503D01*
X176928221Y-121834558D01*
X176889397Y-121740827D01*
X176889390Y-121740814D01*
X176801789Y-121609711D01*
X176801786Y-121609707D01*
X176690292Y-121498213D01*
X176690288Y-121498210D01*
X176559185Y-121410609D01*
X176559172Y-121410602D01*
X176413501Y-121350264D01*
X176413489Y-121350261D01*
X176258845Y-121319500D01*
X176258842Y-121319500D01*
X176101158Y-121319500D01*
X176101155Y-121319500D01*
X175946510Y-121350261D01*
X175946498Y-121350264D01*
X175800827Y-121410602D01*
X175800814Y-121410609D01*
X175669711Y-121498210D01*
X175669707Y-121498213D01*
X175558213Y-121609707D01*
X175558210Y-121609711D01*
X175470609Y-121740814D01*
X175470602Y-121740827D01*
X175410264Y-121886498D01*
X175410261Y-121886510D01*
X175379500Y-122041153D01*
X155857833Y-122041153D01*
X155833717Y-122009725D01*
X155805860Y-121973421D01*
X155779512Y-121943377D01*
X155756623Y-121920488D01*
X155756622Y-121920487D01*
X155756618Y-121920483D01*
X155726588Y-121894147D01*
X155726577Y-121894138D01*
X155648935Y-121834559D01*
X155648933Y-121834558D01*
X155615714Y-121812362D01*
X155615713Y-121812361D01*
X155615699Y-121812352D01*
X155615689Y-121812346D01*
X155587659Y-121796163D01*
X155551835Y-121778498D01*
X155551815Y-121778489D01*
X155461409Y-121741042D01*
X155461407Y-121741041D01*
X155423565Y-121728195D01*
X155392283Y-121719813D01*
X155353103Y-121712021D01*
X155353098Y-121712020D01*
X155322033Y-121707930D01*
X155247925Y-121698173D01*
X155228063Y-121696216D01*
X155211861Y-121695154D01*
X155208111Y-121695031D01*
X155191874Y-121694500D01*
X155191861Y-121694500D01*
X151862155Y-121694500D01*
X151846191Y-121693468D01*
X151832146Y-121691644D01*
X151801350Y-121687646D01*
X151770483Y-121679493D01*
X151754526Y-121672984D01*
X151726761Y-121657219D01*
X151690631Y-121630006D01*
X151678509Y-121619584D01*
X151668417Y-121609707D01*
X141334512Y-111495675D01*
X170874500Y-111495675D01*
X170874500Y-111704324D01*
X170907137Y-111910389D01*
X170971612Y-112108820D01*
X171027579Y-112218661D01*
X171066330Y-112294714D01*
X171188965Y-112463505D01*
X171336495Y-112611035D01*
X171505286Y-112733670D01*
X171593116Y-112778421D01*
X171691179Y-112828387D01*
X171691181Y-112828387D01*
X171691184Y-112828389D01*
X171797545Y-112862948D01*
X171889610Y-112892862D01*
X172095676Y-112925500D01*
X172095681Y-112925500D01*
X172304324Y-112925500D01*
X172510389Y-112892862D01*
X172708816Y-112828389D01*
X172894714Y-112733670D01*
X173063505Y-112611035D01*
X173202391Y-112472149D01*
X209549500Y-112472149D01*
X209549500Y-112727850D01*
X209562737Y-112828387D01*
X209582874Y-112981340D01*
X209649050Y-113228312D01*
X209649053Y-113228322D01*
X209746894Y-113464531D01*
X209746899Y-113464542D01*
X209874734Y-113685957D01*
X209874745Y-113685973D01*
X210030388Y-113888811D01*
X210030394Y-113888818D01*
X210211181Y-114069605D01*
X210211187Y-114069610D01*
X210414035Y-114225261D01*
X210414042Y-114225265D01*
X210635457Y-114353100D01*
X210635462Y-114353102D01*
X210635465Y-114353104D01*
X210871687Y-114450950D01*
X211118660Y-114517126D01*
X211372157Y-114550500D01*
X211372164Y-114550500D01*
X211627836Y-114550500D01*
X211627843Y-114550500D01*
X211881340Y-114517126D01*
X212128313Y-114450950D01*
X212364535Y-114353104D01*
X212585965Y-114225261D01*
X212788813Y-114069610D01*
X212969610Y-113888813D01*
X213125261Y-113685965D01*
X213253104Y-113464535D01*
X213350950Y-113228313D01*
X213417126Y-112981340D01*
X213450500Y-112727843D01*
X213450500Y-112472157D01*
X213417126Y-112218660D01*
X213350950Y-111971687D01*
X213253104Y-111735465D01*
X213253102Y-111735462D01*
X213253100Y-111735457D01*
X213125265Y-111514042D01*
X213125261Y-111514035D01*
X212969610Y-111311187D01*
X212969605Y-111311181D01*
X212788818Y-111130394D01*
X212788811Y-111130388D01*
X212585973Y-110974745D01*
X212585971Y-110974743D01*
X212585965Y-110974739D01*
X212585960Y-110974736D01*
X212585957Y-110974734D01*
X212364542Y-110846899D01*
X212364531Y-110846894D01*
X212128322Y-110749053D01*
X212128315Y-110749051D01*
X212128313Y-110749050D01*
X211881340Y-110682874D01*
X211825007Y-110675457D01*
X211627850Y-110649500D01*
X211627843Y-110649500D01*
X211372157Y-110649500D01*
X211372149Y-110649500D01*
X211146826Y-110679165D01*
X211118660Y-110682874D01*
X210918551Y-110736493D01*
X210871687Y-110749050D01*
X210871677Y-110749053D01*
X210635468Y-110846894D01*
X210635457Y-110846899D01*
X210414042Y-110974734D01*
X210414026Y-110974745D01*
X210211188Y-111130388D01*
X210211181Y-111130394D01*
X210030394Y-111311181D01*
X210030388Y-111311188D01*
X209874745Y-111514026D01*
X209874734Y-111514042D01*
X209746899Y-111735457D01*
X209746894Y-111735468D01*
X209649053Y-111971677D01*
X209649050Y-111971687D01*
X209612306Y-112108820D01*
X209582874Y-112218661D01*
X209549500Y-112472149D01*
X173202391Y-112472149D01*
X173211035Y-112463505D01*
X173333670Y-112294714D01*
X173428389Y-112108816D01*
X173492862Y-111910389D01*
X173520567Y-111735468D01*
X173525500Y-111704324D01*
X173525500Y-111495675D01*
X173492862Y-111289610D01*
X173428387Y-111091179D01*
X173333669Y-110905285D01*
X173291249Y-110846899D01*
X173211035Y-110736495D01*
X173063505Y-110588965D01*
X172894714Y-110466330D01*
X172708820Y-110371612D01*
X172510389Y-110307137D01*
X172304324Y-110274500D01*
X172304319Y-110274500D01*
X172095681Y-110274500D01*
X172095676Y-110274500D01*
X171889610Y-110307137D01*
X171691179Y-110371612D01*
X171505285Y-110466330D01*
X171336493Y-110588966D01*
X171188966Y-110736493D01*
X171066330Y-110905285D01*
X170971612Y-111091179D01*
X170907137Y-111289610D01*
X170874500Y-111495675D01*
X141334512Y-111495675D01*
X141084348Y-111250834D01*
X141073391Y-111238585D01*
X141044786Y-111201990D01*
X141028180Y-111173696D01*
X141021338Y-111157426D01*
X141012732Y-111125761D01*
X141006590Y-111079739D01*
X141005500Y-111063336D01*
X141005500Y-109459175D01*
X141005390Y-109457134D01*
X141003749Y-109426517D01*
X141000915Y-109400159D01*
X141000080Y-109393154D01*
X140965297Y-109286407D01*
X140965295Y-109286402D01*
X140931810Y-109225080D01*
X140879710Y-109155484D01*
X140879699Y-109155471D01*
X140855500Y-109131272D01*
X140835798Y-109105596D01*
X140826449Y-109089403D01*
X140814064Y-109059500D01*
X140809222Y-109041431D01*
X140805000Y-109009347D01*
X140805000Y-108990648D01*
X140809221Y-108958569D01*
X140814065Y-108940492D01*
X140826453Y-108910587D01*
X140835799Y-108894401D01*
X140855500Y-108868726D01*
X140879703Y-108844525D01*
X140901565Y-108820186D01*
X140918198Y-108799544D01*
X140922553Y-108794010D01*
X140973439Y-108693934D01*
X140993124Y-108626895D01*
X141005500Y-108540823D01*
X141005500Y-108235252D01*
X141006559Y-108219084D01*
X141012543Y-108173622D01*
X141020920Y-108142362D01*
X141027594Y-108126253D01*
X141043773Y-108098229D01*
X141071692Y-108061843D01*
X141082372Y-108049666D01*
X148662821Y-100469218D01*
X148724142Y-100435735D01*
X148793834Y-100440719D01*
X148849767Y-100482591D01*
X148874184Y-100548055D01*
X148874500Y-100556901D01*
X148874500Y-102874902D01*
X148854815Y-102941941D01*
X148838181Y-102962583D01*
X148769481Y-103031282D01*
X148769475Y-103031290D01*
X148690426Y-103168209D01*
X148690423Y-103168216D01*
X148649500Y-103320943D01*
X148649500Y-103479056D01*
X148690423Y-103631783D01*
X148690424Y-103631786D01*
X148693978Y-103637942D01*
X148710448Y-103705843D01*
X148687594Y-103771869D01*
X148632671Y-103815058D01*
X148563118Y-103821697D01*
X148554501Y-103819715D01*
X148479057Y-103799500D01*
X148320943Y-103799500D01*
X148168216Y-103840423D01*
X148168209Y-103840426D01*
X148031290Y-103919475D01*
X148031282Y-103919481D01*
X147919481Y-104031282D01*
X147919475Y-104031290D01*
X147840426Y-104168209D01*
X147840423Y-104168216D01*
X147799500Y-104320943D01*
X147799500Y-104479056D01*
X147840423Y-104631783D01*
X147840426Y-104631790D01*
X147919475Y-104768709D01*
X147919479Y-104768714D01*
X147919480Y-104768716D01*
X148031284Y-104880520D01*
X148031286Y-104880521D01*
X148031290Y-104880524D01*
X148135040Y-104940423D01*
X148168216Y-104959577D01*
X148320943Y-105000500D01*
X148320945Y-105000500D01*
X148479055Y-105000500D01*
X148479057Y-105000500D01*
X148631784Y-104959577D01*
X148768716Y-104880520D01*
X148837417Y-104811819D01*
X148898740Y-104778334D01*
X148925098Y-104775500D01*
X151674902Y-104775500D01*
X151741941Y-104795185D01*
X151762583Y-104811819D01*
X151831284Y-104880520D01*
X151831286Y-104880521D01*
X151831290Y-104880524D01*
X151935040Y-104940423D01*
X151968216Y-104959577D01*
X152120943Y-105000500D01*
X152120945Y-105000500D01*
X152279055Y-105000500D01*
X152279057Y-105000500D01*
X152431784Y-104959577D01*
X152568716Y-104880520D01*
X152680520Y-104768716D01*
X152759577Y-104631784D01*
X152800500Y-104479057D01*
X152800500Y-104320943D01*
X152759577Y-104168216D01*
X152759573Y-104168209D01*
X152680524Y-104031290D01*
X152680518Y-104031282D01*
X152568717Y-103919481D01*
X152568709Y-103919475D01*
X152431790Y-103840426D01*
X152431786Y-103840424D01*
X152431784Y-103840423D01*
X152279057Y-103799500D01*
X152120943Y-103799500D01*
X151968216Y-103840423D01*
X151968209Y-103840426D01*
X151831290Y-103919475D01*
X151831282Y-103919481D01*
X151762583Y-103988181D01*
X151701260Y-104021666D01*
X151674902Y-104024500D01*
X150724098Y-104024500D01*
X150657059Y-104004815D01*
X150611304Y-103952011D01*
X150601360Y-103882853D01*
X150630385Y-103819297D01*
X150636417Y-103812819D01*
X150649736Y-103799500D01*
X150680520Y-103768716D01*
X150759577Y-103631784D01*
X150800500Y-103479057D01*
X150800500Y-103320943D01*
X150759577Y-103168216D01*
X150759573Y-103168209D01*
X150680524Y-103031290D01*
X150680518Y-103031282D01*
X150611819Y-102962583D01*
X150578334Y-102901260D01*
X150575500Y-102874902D01*
X150575500Y-101625098D01*
X150595185Y-101558059D01*
X150611819Y-101537417D01*
X150680520Y-101468716D01*
X150759577Y-101331784D01*
X150800500Y-101179057D01*
X150800500Y-101020943D01*
X150759577Y-100868216D01*
X150759573Y-100868209D01*
X150680524Y-100731290D01*
X150680518Y-100731282D01*
X150568717Y-100619481D01*
X150568709Y-100619475D01*
X150431790Y-100540426D01*
X150431786Y-100540424D01*
X150431784Y-100540423D01*
X150279057Y-100499500D01*
X150120943Y-100499500D01*
X149968216Y-100540423D01*
X149968209Y-100540426D01*
X149831287Y-100619476D01*
X149824985Y-100624313D01*
X149811740Y-100629433D01*
X149801011Y-100638730D01*
X149779801Y-100641779D01*
X149759815Y-100649506D01*
X149745906Y-100646653D01*
X149731853Y-100648674D01*
X149712361Y-100639772D01*
X149691371Y-100635467D01*
X149681212Y-100625547D01*
X149668297Y-100619649D01*
X149656711Y-100601621D01*
X149641382Y-100586652D01*
X149637463Y-100571669D01*
X149630523Y-100560871D01*
X149625500Y-100525936D01*
X149625500Y-100525098D01*
X149645185Y-100458059D01*
X149661819Y-100437417D01*
X149663501Y-100435735D01*
X149730520Y-100368716D01*
X149809577Y-100231784D01*
X149850500Y-100079057D01*
X149850500Y-99920943D01*
X149809577Y-99768216D01*
X149809573Y-99768209D01*
X149730524Y-99631290D01*
X149730521Y-99631286D01*
X149730520Y-99631284D01*
X149703317Y-99604081D01*
X149669833Y-99542757D01*
X149674819Y-99473066D01*
X149703317Y-99428722D01*
X150549666Y-98582372D01*
X150561844Y-98571692D01*
X150598232Y-98543771D01*
X150626255Y-98527592D01*
X150642376Y-98520915D01*
X150673633Y-98512541D01*
X150700957Y-98508944D01*
X150719062Y-98506561D01*
X150735246Y-98505500D01*
X167304420Y-98505500D01*
X167304423Y-98505500D01*
X167314540Y-98505052D01*
X167331409Y-98504306D01*
X167343164Y-98503263D01*
X167353217Y-98502372D01*
X167355436Y-98502075D01*
X167379974Y-98498803D01*
X167436121Y-98488769D01*
X167520506Y-98473690D01*
X167572565Y-98459549D01*
X167613488Y-98444442D01*
X167662252Y-98421363D01*
X167785391Y-98349137D01*
X167808064Y-98334454D01*
X167825900Y-98321750D01*
X167847171Y-98305135D01*
X195316602Y-74823421D01*
X195318072Y-74822069D01*
X195332765Y-74808566D01*
X195334083Y-74807263D01*
X195345460Y-74796027D01*
X195360541Y-74780020D01*
X195437331Y-74692393D01*
X195463829Y-74657365D01*
X195483192Y-74627531D01*
X195504399Y-74589052D01*
X195549376Y-74491432D01*
X195564841Y-74450320D01*
X195574938Y-74416216D01*
X195584348Y-74373306D01*
X195601059Y-74257998D01*
X195603427Y-74236145D01*
X195604709Y-74218360D01*
X195605500Y-74196396D01*
X195605500Y-67843954D01*
X195604669Y-67821437D01*
X195603322Y-67803211D01*
X195600835Y-67780825D01*
X195583288Y-67662739D01*
X195573408Y-67618817D01*
X195562811Y-67583945D01*
X195546583Y-67541953D01*
X195499428Y-67442438D01*
X195477204Y-67403284D01*
X195477203Y-67403281D01*
X195456933Y-67373009D01*
X195456930Y-67373006D01*
X195456924Y-67372996D01*
X195429183Y-67337528D01*
X195360021Y-67261407D01*
X195355134Y-67256028D01*
X195348210Y-67249454D01*
X195322478Y-67225021D01*
X195294269Y-67201940D01*
X195257422Y-67176077D01*
X195154917Y-67114875D01*
X195135161Y-67104046D01*
X195118831Y-67095864D01*
X195098316Y-67086514D01*
X186955262Y-63732131D01*
X186938925Y-63723946D01*
X186894771Y-63697583D01*
X186866565Y-63674505D01*
X186853555Y-63660186D01*
X186833278Y-63629901D01*
X186824997Y-63612426D01*
X186814402Y-63577555D01*
X186806846Y-63526698D01*
X186805500Y-63508475D01*
X186805500Y-61715244D01*
X186805500Y-61715232D01*
X186804846Y-61695249D01*
X186803785Y-61679063D01*
X186801825Y-61659168D01*
X186787979Y-61554004D01*
X186780183Y-61514810D01*
X186771805Y-61483544D01*
X186758960Y-61445707D01*
X186721505Y-61355282D01*
X186703833Y-61319444D01*
X186687648Y-61291410D01*
X186665444Y-61258180D01*
X186665442Y-61258178D01*
X186665428Y-61258158D01*
X186613198Y-61190091D01*
X186600865Y-61174019D01*
X186588181Y-61158563D01*
X186577486Y-61146368D01*
X186574273Y-61142938D01*
X186563821Y-61131778D01*
X184868220Y-59436177D01*
X184853650Y-59422531D01*
X184853631Y-59422513D01*
X184841436Y-59411818D01*
X184825980Y-59399134D01*
X184804141Y-59382376D01*
X184741840Y-59334570D01*
X184741811Y-59334549D01*
X184715735Y-59317126D01*
X184708589Y-59312351D01*
X184708586Y-59312349D01*
X184680561Y-59296169D01*
X184644713Y-59278492D01*
X184554289Y-59241037D01*
X184554283Y-59241035D01*
X184516465Y-59228197D01*
X184516428Y-59228186D01*
X184485182Y-59219814D01*
X184445988Y-59212019D01*
X184340818Y-59198173D01*
X184320956Y-59196216D01*
X184304754Y-59195154D01*
X184301004Y-59195031D01*
X184284767Y-59194500D01*
X184284754Y-59194500D01*
X163235254Y-59194500D01*
X163219071Y-59193439D01*
X163198065Y-59190673D01*
X163173629Y-59187456D01*
X163142371Y-59179080D01*
X163126266Y-59172410D01*
X163098226Y-59156222D01*
X163094157Y-59153100D01*
X163084107Y-59145388D01*
X163061851Y-59128310D01*
X163049657Y-59117616D01*
X161882496Y-57950455D01*
X161827042Y-57906578D01*
X161827035Y-57906574D01*
X161827033Y-57906572D01*
X161778510Y-57876598D01*
X161778505Y-57876595D01*
X161778498Y-57876591D01*
X161738411Y-57855756D01*
X161733624Y-57854683D01*
X161672513Y-57820812D01*
X161642846Y-57772100D01*
X161635134Y-57748431D01*
X161601649Y-57687108D01*
X161601647Y-57687104D01*
X161549547Y-57617508D01*
X161549542Y-57617503D01*
X161549539Y-57617498D01*
X161549534Y-57617493D01*
X161549529Y-57617487D01*
X161287821Y-57355779D01*
X161204191Y-57272149D01*
X193549500Y-57272149D01*
X193549500Y-57527850D01*
X193570467Y-57687104D01*
X193582874Y-57781340D01*
X193649050Y-58028312D01*
X193649053Y-58028322D01*
X193746894Y-58264531D01*
X193746899Y-58264542D01*
X193874734Y-58485957D01*
X193874745Y-58485973D01*
X194030388Y-58688811D01*
X194030394Y-58688818D01*
X194211181Y-58869605D01*
X194211187Y-58869610D01*
X194414035Y-59025261D01*
X194414042Y-59025265D01*
X194635457Y-59153100D01*
X194635462Y-59153102D01*
X194635465Y-59153104D01*
X194757936Y-59203833D01*
X194847759Y-59241039D01*
X194871687Y-59250950D01*
X195118660Y-59317126D01*
X195372157Y-59350500D01*
X195372164Y-59350500D01*
X195627836Y-59350500D01*
X195627843Y-59350500D01*
X195881340Y-59317126D01*
X196128313Y-59250950D01*
X196364535Y-59153104D01*
X196585965Y-59025261D01*
X196788813Y-58869610D01*
X196969610Y-58688813D01*
X197125261Y-58485965D01*
X197253104Y-58264535D01*
X197350950Y-58028313D01*
X197417126Y-57781340D01*
X197450500Y-57527843D01*
X197450500Y-57272157D01*
X197417126Y-57018660D01*
X197350950Y-56771687D01*
X197253104Y-56535465D01*
X197253102Y-56535462D01*
X197253100Y-56535457D01*
X197125265Y-56314042D01*
X197125261Y-56314035D01*
X197080452Y-56255638D01*
X196969611Y-56111188D01*
X196969605Y-56111181D01*
X196788818Y-55930394D01*
X196788811Y-55930388D01*
X196585973Y-55774745D01*
X196585971Y-55774743D01*
X196585965Y-55774739D01*
X196585960Y-55774736D01*
X196585957Y-55774734D01*
X196364542Y-55646899D01*
X196364531Y-55646894D01*
X196128322Y-55549053D01*
X196128315Y-55549051D01*
X196128313Y-55549050D01*
X195881340Y-55482874D01*
X195825007Y-55475457D01*
X195627850Y-55449500D01*
X195627843Y-55449500D01*
X195372157Y-55449500D01*
X195372149Y-55449500D01*
X195146826Y-55479165D01*
X195118660Y-55482874D01*
X194871687Y-55549050D01*
X194871677Y-55549053D01*
X194635468Y-55646894D01*
X194635457Y-55646899D01*
X194414042Y-55774734D01*
X194414026Y-55774745D01*
X194211188Y-55930388D01*
X194211181Y-55930394D01*
X194030394Y-56111181D01*
X194030388Y-56111188D01*
X193874745Y-56314026D01*
X193874734Y-56314042D01*
X193746899Y-56535457D01*
X193746894Y-56535468D01*
X193649053Y-56771677D01*
X193649050Y-56771687D01*
X193608637Y-56922513D01*
X193582874Y-57018661D01*
X193549500Y-57272149D01*
X161204191Y-57272149D01*
X160868220Y-56936177D01*
X160853650Y-56922531D01*
X160853631Y-56922513D01*
X160841436Y-56911818D01*
X160825980Y-56899134D01*
X160825967Y-56899124D01*
X160741840Y-56834570D01*
X160741811Y-56834549D01*
X160719866Y-56819886D01*
X160708589Y-56812351D01*
X160708586Y-56812349D01*
X160680561Y-56796169D01*
X160644713Y-56778492D01*
X160554289Y-56741037D01*
X160554283Y-56741035D01*
X160516465Y-56728197D01*
X160516428Y-56728186D01*
X160485182Y-56719814D01*
X160445988Y-56712019D01*
X160340818Y-56698173D01*
X160320956Y-56696216D01*
X160304754Y-56695154D01*
X160301004Y-56695031D01*
X160284767Y-56694500D01*
X160284754Y-56694500D01*
X155735254Y-56694500D01*
X155719071Y-56693439D01*
X155698065Y-56690673D01*
X155673629Y-56687456D01*
X155642371Y-56679080D01*
X155626266Y-56672410D01*
X155598226Y-56656222D01*
X155561851Y-56628310D01*
X155549657Y-56617616D01*
X154382380Y-55450339D01*
X154371684Y-55438143D01*
X154343775Y-55401770D01*
X154327594Y-55373744D01*
X154320922Y-55357639D01*
X154312543Y-55326373D01*
X154306559Y-55280914D01*
X154305500Y-55264745D01*
X154305500Y-54215244D01*
X154305500Y-54215232D01*
X154304846Y-54195249D01*
X154303785Y-54179063D01*
X154301825Y-54159168D01*
X154287979Y-54054004D01*
X154280183Y-54014810D01*
X154271805Y-53983544D01*
X154258960Y-53945707D01*
X154221505Y-53855282D01*
X154203833Y-53819444D01*
X154187648Y-53791410D01*
X154165444Y-53758180D01*
X154165436Y-53758170D01*
X154165428Y-53758158D01*
X154136871Y-53720943D01*
X171499500Y-53720943D01*
X171499500Y-53879057D01*
X171517357Y-53945698D01*
X171540423Y-54031783D01*
X171540426Y-54031790D01*
X171619475Y-54168709D01*
X171619479Y-54168714D01*
X171619480Y-54168716D01*
X171731284Y-54280520D01*
X171731286Y-54280521D01*
X171731290Y-54280524D01*
X171761588Y-54298016D01*
X171868216Y-54359577D01*
X172020943Y-54400500D01*
X172020945Y-54400500D01*
X172179055Y-54400500D01*
X172179057Y-54400500D01*
X172331784Y-54359577D01*
X172468716Y-54280520D01*
X172580520Y-54168716D01*
X172659577Y-54031784D01*
X172700500Y-53879057D01*
X172700500Y-53817255D01*
X172720185Y-53750216D01*
X172736819Y-53729574D01*
X174229574Y-52236819D01*
X174290897Y-52203334D01*
X174317255Y-52200500D01*
X176199902Y-52200500D01*
X176266941Y-52220185D01*
X176287583Y-52236819D01*
X176331284Y-52280520D01*
X176331286Y-52280521D01*
X176331290Y-52280524D01*
X176424876Y-52334555D01*
X176468216Y-52359577D01*
X176620943Y-52400500D01*
X176620945Y-52400500D01*
X176779055Y-52400500D01*
X176779057Y-52400500D01*
X176931784Y-52359577D01*
X177068716Y-52280520D01*
X177180520Y-52168716D01*
X177259577Y-52031784D01*
X177300500Y-51879057D01*
X177300500Y-51720943D01*
X177259577Y-51568216D01*
X177259573Y-51568209D01*
X177180524Y-51431290D01*
X177180518Y-51431282D01*
X177068717Y-51319481D01*
X177068709Y-51319475D01*
X176931790Y-51240426D01*
X176931786Y-51240424D01*
X176931784Y-51240423D01*
X176779057Y-51199500D01*
X176620943Y-51199500D01*
X176468216Y-51240423D01*
X176468209Y-51240426D01*
X176331290Y-51319475D01*
X176331282Y-51319481D01*
X176287583Y-51363181D01*
X176226260Y-51396666D01*
X176199902Y-51399500D01*
X174047273Y-51399500D01*
X173945410Y-51426793D01*
X173854087Y-51479520D01*
X173854084Y-51479522D01*
X172170426Y-53163181D01*
X172109103Y-53196666D01*
X172082745Y-53199500D01*
X172020943Y-53199500D01*
X171868216Y-53240423D01*
X171868209Y-53240426D01*
X171731290Y-53319475D01*
X171731282Y-53319481D01*
X171619481Y-53431282D01*
X171619475Y-53431290D01*
X171540426Y-53568209D01*
X171540423Y-53568216D01*
X171499500Y-53720943D01*
X154136871Y-53720943D01*
X154100874Y-53674031D01*
X154100865Y-53674019D01*
X154088181Y-53658563D01*
X154077486Y-53646368D01*
X154074273Y-53642938D01*
X154063821Y-53631778D01*
X152868220Y-52436177D01*
X152853650Y-52422531D01*
X152853631Y-52422513D01*
X152841436Y-52411818D01*
X152825980Y-52399134D01*
X152813916Y-52389877D01*
X152741840Y-52334570D01*
X152741811Y-52334549D01*
X152719866Y-52319886D01*
X152708589Y-52312351D01*
X152708586Y-52312349D01*
X152680561Y-52296169D01*
X152644713Y-52278492D01*
X152554289Y-52241037D01*
X152554283Y-52241035D01*
X152516465Y-52228197D01*
X152516428Y-52228186D01*
X152485182Y-52219814D01*
X152445988Y-52212019D01*
X152340818Y-52198173D01*
X152320956Y-52196216D01*
X152304754Y-52195154D01*
X152301004Y-52195031D01*
X152284767Y-52194500D01*
X149371483Y-52194500D01*
X149354163Y-52195066D01*
X149351497Y-52195154D01*
X149335307Y-52196215D01*
X149315412Y-52198175D01*
X149210258Y-52212018D01*
X149210253Y-52212019D01*
X149171070Y-52219814D01*
X149171060Y-52219816D01*
X149171053Y-52219817D01*
X149171039Y-52219821D01*
X149139787Y-52228195D01*
X149101948Y-52241042D01*
X149101947Y-52241042D01*
X149011540Y-52278490D01*
X148975687Y-52296169D01*
X148947662Y-52312349D01*
X148947661Y-52312350D01*
X148914437Y-52334549D01*
X148914428Y-52334556D01*
X148830256Y-52399144D01*
X148814812Y-52411817D01*
X148802648Y-52422484D01*
X148788028Y-52436178D01*
X148436178Y-52788028D01*
X148422484Y-52802648D01*
X148411817Y-52814812D01*
X148399144Y-52830256D01*
X148334556Y-52914428D01*
X148334549Y-52914437D01*
X148312350Y-52947661D01*
X148312349Y-52947662D01*
X148296169Y-52975687D01*
X148278492Y-53011535D01*
X148241037Y-53101959D01*
X148241035Y-53101965D01*
X148228197Y-53139783D01*
X148228186Y-53139820D01*
X148219814Y-53171066D01*
X148212019Y-53210260D01*
X148198173Y-53315430D01*
X148196216Y-53335292D01*
X148195154Y-53351494D01*
X148194500Y-53371494D01*
X148194500Y-54409754D01*
X148195154Y-54429754D01*
X148196216Y-54445956D01*
X148198173Y-54465818D01*
X148212019Y-54570988D01*
X148219814Y-54610182D01*
X148228186Y-54641428D01*
X148228197Y-54641465D01*
X148241035Y-54679283D01*
X148241037Y-54679289D01*
X148278492Y-54769713D01*
X148296169Y-54805561D01*
X148312349Y-54833586D01*
X148312350Y-54833587D01*
X148334549Y-54866811D01*
X148334570Y-54866840D01*
X148367235Y-54909409D01*
X148399134Y-54950980D01*
X148411818Y-54966436D01*
X148422513Y-54978631D01*
X148422531Y-54978650D01*
X148436177Y-54993220D01*
X149006778Y-55563821D01*
X149017938Y-55574273D01*
X149021368Y-55577486D01*
X149033563Y-55588181D01*
X149049019Y-55600865D01*
X149049031Y-55600874D01*
X149133158Y-55665428D01*
X149133178Y-55665442D01*
X149133180Y-55665444D01*
X149166410Y-55687648D01*
X149194444Y-55703833D01*
X149230282Y-55721505D01*
X149320707Y-55758960D01*
X149358544Y-55771805D01*
X149389810Y-55780183D01*
X149429004Y-55787979D01*
X149534170Y-55801825D01*
X149554064Y-55803785D01*
X149570249Y-55804846D01*
X149590233Y-55805500D01*
X150264752Y-55805500D01*
X150280936Y-55806561D01*
X150307072Y-55810001D01*
X150326362Y-55812541D01*
X150357623Y-55820916D01*
X150373738Y-55827591D01*
X150401768Y-55843773D01*
X150438144Y-55871685D01*
X150450339Y-55882380D01*
X153631778Y-59063821D01*
X153642938Y-59074273D01*
X153646368Y-59077486D01*
X153658563Y-59088181D01*
X153674019Y-59100865D01*
X153674031Y-59100874D01*
X153758158Y-59165428D01*
X153758178Y-59165442D01*
X153758180Y-59165444D01*
X153791410Y-59187648D01*
X153819444Y-59203833D01*
X153855282Y-59221505D01*
X153878826Y-59231257D01*
X153926366Y-59250949D01*
X153945707Y-59258960D01*
X153983544Y-59271805D01*
X154014810Y-59280183D01*
X154054004Y-59287979D01*
X154159170Y-59301825D01*
X154179064Y-59303785D01*
X154195249Y-59304846D01*
X154215233Y-59305500D01*
X154215246Y-59305500D01*
X157995967Y-59305500D01*
X157995973Y-59305500D01*
X158053792Y-59299979D01*
X158099879Y-59291096D01*
X158131406Y-59283260D01*
X158131408Y-59283259D01*
X158230899Y-59231262D01*
X158230901Y-59231259D01*
X158230907Y-59231257D01*
X158285828Y-59188067D01*
X158330089Y-59145388D01*
X158385679Y-59047846D01*
X158385681Y-59047838D01*
X158386286Y-59046506D01*
X158386746Y-59045971D01*
X158388517Y-59042865D01*
X158389124Y-59043211D01*
X158431888Y-58993570D01*
X158498870Y-58973693D01*
X158565966Y-58993184D01*
X158606266Y-59035092D01*
X158612941Y-59046506D01*
X158660352Y-59127571D01*
X158693790Y-59166161D01*
X158706108Y-59180376D01*
X158706118Y-59180387D01*
X158750834Y-59222548D01*
X158750836Y-59222549D01*
X158750840Y-59222553D01*
X158850916Y-59273439D01*
X158917955Y-59293124D01*
X159004027Y-59305500D01*
X159264752Y-59305500D01*
X159280936Y-59306561D01*
X159307072Y-59310001D01*
X159326362Y-59312541D01*
X159357624Y-59320916D01*
X159373739Y-59327591D01*
X159401769Y-59343774D01*
X159438138Y-59371680D01*
X159450334Y-59382376D01*
X161042286Y-60974327D01*
X162117618Y-62049659D01*
X162128312Y-62061853D01*
X162156221Y-62098224D01*
X162172409Y-62126263D01*
X162179080Y-62142370D01*
X162187456Y-62173629D01*
X162193439Y-62219065D01*
X162194500Y-62235254D01*
X162194500Y-66991861D01*
X162195154Y-67011861D01*
X162196216Y-67028063D01*
X162198173Y-67047925D01*
X162203254Y-67086514D01*
X162209387Y-67133102D01*
X162212021Y-67153103D01*
X162219813Y-67192283D01*
X162228195Y-67223565D01*
X162241041Y-67261407D01*
X162241042Y-67261409D01*
X162278495Y-67351830D01*
X162296156Y-67387642D01*
X162296167Y-67387663D01*
X162312354Y-67415701D01*
X162334560Y-67448935D01*
X162372762Y-67498719D01*
X162394139Y-67526578D01*
X162420487Y-67556622D01*
X162443377Y-67579512D01*
X162473421Y-67605860D01*
X162504721Y-67629877D01*
X162551063Y-67665438D01*
X162584297Y-67687644D01*
X162612330Y-67703829D01*
X162612350Y-67703838D01*
X162612356Y-67703842D01*
X162648168Y-67721503D01*
X162690791Y-67739158D01*
X162738598Y-67758960D01*
X162776438Y-67771805D01*
X162807705Y-67780183D01*
X162846897Y-67787979D01*
X162929411Y-67798842D01*
X162952046Y-67801823D01*
X162952053Y-67801823D01*
X162952063Y-67801825D01*
X162971957Y-67803785D01*
X162988142Y-67804846D01*
X163008126Y-67805500D01*
X163008139Y-67805500D01*
X165991861Y-67805500D01*
X165991874Y-67805500D01*
X166011859Y-67804846D01*
X166028043Y-67803785D01*
X166028053Y-67803783D01*
X166028068Y-67803783D01*
X166042315Y-67802378D01*
X166047936Y-67801825D01*
X166153102Y-67787979D01*
X166192294Y-67780183D01*
X166223561Y-67771805D01*
X166261401Y-67758960D01*
X166351828Y-67721504D01*
X166387669Y-67703829D01*
X166415702Y-67687644D01*
X166448928Y-67665443D01*
X166455781Y-67660185D01*
X166481434Y-67640500D01*
X166526578Y-67605860D01*
X166556622Y-67579512D01*
X166579512Y-67556622D01*
X166605860Y-67526578D01*
X166665443Y-67448928D01*
X166687644Y-67415702D01*
X166703829Y-67387669D01*
X166721504Y-67351828D01*
X166758960Y-67261401D01*
X166771805Y-67223561D01*
X166780183Y-67192294D01*
X166787979Y-67153102D01*
X166801825Y-67047938D01*
X166803785Y-67028043D01*
X166804846Y-67011857D01*
X166805500Y-66991874D01*
X166805500Y-66028145D01*
X166806561Y-66011962D01*
X166808520Y-65997078D01*
X166812542Y-65966522D01*
X166820917Y-65935264D01*
X166827592Y-65919148D01*
X166843773Y-65891122D01*
X166854399Y-65877274D01*
X166877276Y-65854398D01*
X166891120Y-65843775D01*
X166919155Y-65827588D01*
X166935264Y-65820917D01*
X166966528Y-65812541D01*
X167011953Y-65806561D01*
X167028137Y-65805500D01*
X168432248Y-65805500D01*
X168435818Y-65805266D01*
X168443929Y-65805000D01*
X168556071Y-65805000D01*
X168564182Y-65805266D01*
X168567752Y-65805500D01*
X168567758Y-65805500D01*
X170922176Y-65805500D01*
X170922184Y-65805500D01*
X170933752Y-65805121D01*
X170935443Y-65805066D01*
X170939497Y-65805000D01*
X171060503Y-65805000D01*
X171064557Y-65805066D01*
X171066247Y-65805121D01*
X171077816Y-65805500D01*
X171077824Y-65805500D01*
X173432248Y-65805500D01*
X173435818Y-65805266D01*
X173443929Y-65805000D01*
X173556071Y-65805000D01*
X173564182Y-65805266D01*
X173567752Y-65805500D01*
X173567758Y-65805500D01*
X183371421Y-65805500D01*
X183384360Y-65806177D01*
X183420978Y-65810019D01*
X183446297Y-65815392D01*
X183481317Y-65826751D01*
X183493416Y-65831386D01*
X192250671Y-69723501D01*
X192266418Y-69731906D01*
X192308949Y-69758707D01*
X192336032Y-69781814D01*
X192348536Y-69796060D01*
X192367939Y-69825915D01*
X192375880Y-69843129D01*
X192385997Y-69877266D01*
X192392404Y-69921425D01*
X192393215Y-69927011D01*
X192394500Y-69944815D01*
X192394500Y-72093117D01*
X192393238Y-72110761D01*
X192386148Y-72160083D01*
X192376210Y-72193939D01*
X192368401Y-72211043D01*
X192349333Y-72240724D01*
X192316707Y-72278394D01*
X192304202Y-72290905D01*
X173829653Y-88307654D01*
X173827031Y-88309954D01*
X173824848Y-88311893D01*
X173766870Y-88381297D01*
X173730513Y-88440945D01*
X173696283Y-88520882D01*
X173696277Y-88520899D01*
X173685935Y-88559498D01*
X173673548Y-88589403D01*
X173664199Y-88605596D01*
X173644493Y-88631277D01*
X173631276Y-88644494D01*
X173605596Y-88664199D01*
X173589407Y-88673546D01*
X173559495Y-88685936D01*
X173534707Y-88692577D01*
X173511491Y-88696483D01*
X173503618Y-88697047D01*
X173398472Y-88723904D01*
X173334918Y-88752947D01*
X173261786Y-88799973D01*
X173261783Y-88799976D01*
X166536902Y-94630198D01*
X166525202Y-94639180D01*
X166490603Y-94662609D01*
X166464422Y-94676112D01*
X166449410Y-94681713D01*
X166420793Y-94688658D01*
X166392610Y-94692029D01*
X166379294Y-94693622D01*
X166364569Y-94694500D01*
X149770796Y-94694500D01*
X149765437Y-94694676D01*
X149750690Y-94695162D01*
X149734425Y-94696234D01*
X149714424Y-94698215D01*
X149608657Y-94712221D01*
X149608630Y-94712225D01*
X149569264Y-94720101D01*
X149537830Y-94728573D01*
X149537825Y-94728575D01*
X149499794Y-94741564D01*
X149499788Y-94741566D01*
X149408940Y-94779436D01*
X149408933Y-94779439D01*
X149372924Y-94797315D01*
X149372920Y-94797317D01*
X149356502Y-94806861D01*
X149344778Y-94813678D01*
X149311448Y-94836113D01*
X149227052Y-94901377D01*
X149211560Y-94914195D01*
X149199350Y-94924993D01*
X149184753Y-94938782D01*
X148787576Y-95339557D01*
X148726404Y-95373318D01*
X148656691Y-95368648D01*
X148600569Y-95327029D01*
X148575857Y-95261676D01*
X148575500Y-95252272D01*
X148575500Y-93925098D01*
X148595185Y-93858059D01*
X148611819Y-93837417D01*
X148680520Y-93768716D01*
X148759577Y-93631784D01*
X148800500Y-93479057D01*
X148800500Y-93320943D01*
X148759577Y-93168216D01*
X148732024Y-93120492D01*
X148680524Y-93031290D01*
X148680518Y-93031282D01*
X148568717Y-92919481D01*
X148568709Y-92919475D01*
X148431790Y-92840426D01*
X148431786Y-92840424D01*
X148431784Y-92840423D01*
X148279057Y-92799500D01*
X148120943Y-92799500D01*
X147968216Y-92840423D01*
X147968209Y-92840426D01*
X147831290Y-92919475D01*
X147831282Y-92919481D01*
X147719481Y-93031282D01*
X147719475Y-93031290D01*
X147640426Y-93168209D01*
X147640423Y-93168216D01*
X147599500Y-93320943D01*
X147599500Y-93479057D01*
X147607178Y-93507709D01*
X147640423Y-93631783D01*
X147640426Y-93631790D01*
X147719475Y-93768709D01*
X147719481Y-93768717D01*
X147788181Y-93837417D01*
X147821666Y-93898740D01*
X147824500Y-93925098D01*
X147824500Y-95193101D01*
X147804815Y-95260140D01*
X147788181Y-95280782D01*
X138205782Y-104863181D01*
X138144459Y-104896666D01*
X138118101Y-104899500D01*
X138020943Y-104899500D01*
X137868216Y-104940423D01*
X137868209Y-104940426D01*
X137731290Y-105019475D01*
X137731282Y-105019481D01*
X137619481Y-105131282D01*
X137619475Y-105131290D01*
X137540426Y-105268209D01*
X137540423Y-105268216D01*
X137499500Y-105420943D01*
X137499500Y-105579056D01*
X137540423Y-105731783D01*
X137540426Y-105731790D01*
X137619475Y-105868709D01*
X137619479Y-105868714D01*
X137619480Y-105868716D01*
X137731284Y-105980520D01*
X137731286Y-105980521D01*
X137731290Y-105980524D01*
X137850303Y-106049235D01*
X137868216Y-106059577D01*
X137895422Y-106066866D01*
X137900362Y-106069878D01*
X137906138Y-106070265D01*
X137929864Y-106087859D01*
X137955082Y-106103230D01*
X137957610Y-106108435D01*
X137962260Y-106111883D01*
X137972706Y-106139509D01*
X137985612Y-106166076D01*
X137984924Y-106171823D01*
X137986972Y-106177237D01*
X137980824Y-106206124D01*
X137977318Y-106235452D01*
X137973318Y-106241389D01*
X137972428Y-106245576D01*
X137951405Y-106273926D01*
X137809813Y-106416802D01*
X137797593Y-106427608D01*
X137761144Y-106455795D01*
X137732999Y-106472158D01*
X137716816Y-106478904D01*
X137685386Y-106487377D01*
X137657358Y-106491089D01*
X137639701Y-106493427D01*
X137623425Y-106494500D01*
X136460880Y-106494500D01*
X136443119Y-106493221D01*
X136393486Y-106486038D01*
X136359440Y-106475976D01*
X136342255Y-106468072D01*
X136312448Y-106448765D01*
X136274701Y-106415759D01*
X136262176Y-106403110D01*
X135968845Y-106060891D01*
X135959992Y-106049235D01*
X135936904Y-106014791D01*
X135923607Y-105988769D01*
X135918088Y-105973849D01*
X135911250Y-105945438D01*
X135906364Y-105904256D01*
X135905500Y-105889647D01*
X135905500Y-98665597D01*
X135906819Y-98647557D01*
X135914227Y-98597178D01*
X135924614Y-98562626D01*
X135932747Y-98545260D01*
X135952639Y-98515164D01*
X135986607Y-98477211D01*
X135999603Y-98464666D01*
X136208700Y-98290420D01*
X136225294Y-98275533D01*
X136238309Y-98262970D01*
X136253779Y-98246905D01*
X136332601Y-98158836D01*
X136359823Y-98123546D01*
X136379718Y-98093445D01*
X136401512Y-98054576D01*
X136447753Y-97955850D01*
X136463663Y-97914219D01*
X136474050Y-97879666D01*
X136483732Y-97836167D01*
X136500929Y-97719233D01*
X136503366Y-97697075D01*
X136504686Y-97679033D01*
X136505500Y-97656741D01*
X136505500Y-93708125D01*
X136504846Y-93688142D01*
X136503785Y-93671956D01*
X136501825Y-93652061D01*
X136487979Y-93546897D01*
X136480183Y-93507705D01*
X136471805Y-93476438D01*
X136458960Y-93438598D01*
X136421504Y-93348171D01*
X136421500Y-93348163D01*
X136403842Y-93312356D01*
X136403831Y-93312335D01*
X136403829Y-93312330D01*
X136387644Y-93284297D01*
X136365438Y-93251063D01*
X136333717Y-93209725D01*
X136305860Y-93173421D01*
X136279512Y-93143377D01*
X136256623Y-93120488D01*
X136256622Y-93120487D01*
X136256618Y-93120483D01*
X136226588Y-93094147D01*
X136226577Y-93094138D01*
X136148935Y-93034559D01*
X136148933Y-93034558D01*
X136115714Y-93012362D01*
X136115702Y-93012354D01*
X136115699Y-93012352D01*
X136115689Y-93012346D01*
X136087659Y-92996163D01*
X136051835Y-92978498D01*
X136051815Y-92978489D01*
X135961409Y-92941042D01*
X135961407Y-92941041D01*
X135923565Y-92928195D01*
X135923550Y-92928191D01*
X135892290Y-92919815D01*
X135892291Y-92919815D01*
X135892283Y-92919813D01*
X135853103Y-92912021D01*
X135853098Y-92912020D01*
X135822033Y-92907930D01*
X135747925Y-92898173D01*
X135728063Y-92896216D01*
X135711861Y-92895154D01*
X135708111Y-92895031D01*
X135691874Y-92894500D01*
X134008126Y-92894500D01*
X133990806Y-92895066D01*
X133988140Y-92895154D01*
X133971950Y-92896215D01*
X133952055Y-92898175D01*
X133846904Y-92912018D01*
X133807725Y-92919811D01*
X133807700Y-92919816D01*
X133776468Y-92928184D01*
X133776445Y-92928191D01*
X133738602Y-92941036D01*
X133738599Y-92941037D01*
X133648159Y-92978498D01*
X133612332Y-92996167D01*
X133612329Y-92996169D01*
X133584302Y-93012350D01*
X133551064Y-93034560D01*
X133473420Y-93094139D01*
X133443366Y-93120496D01*
X133420496Y-93143366D01*
X133394147Y-93173411D01*
X133380055Y-93191775D01*
X133334555Y-93251072D01*
X133334548Y-93251081D01*
X133334546Y-93251085D01*
X133312348Y-93284305D01*
X133296162Y-93312341D01*
X133278498Y-93348163D01*
X133278489Y-93348183D01*
X133241042Y-93438589D01*
X133241041Y-93438591D01*
X133228195Y-93476433D01*
X133219813Y-93507715D01*
X133212021Y-93546895D01*
X133198173Y-93652073D01*
X133196216Y-93671935D01*
X133195154Y-93688137D01*
X133195154Y-93688141D01*
X133194567Y-93706097D01*
X133194500Y-93708137D01*
X130200502Y-93708137D01*
X130200502Y-88809448D01*
X155549500Y-88809448D01*
X155549500Y-88990551D01*
X155577829Y-89169410D01*
X155633787Y-89341636D01*
X155633788Y-89341639D01*
X155716006Y-89502997D01*
X155822441Y-89649494D01*
X155822445Y-89649499D01*
X155950500Y-89777554D01*
X155950505Y-89777558D01*
X156078287Y-89870396D01*
X156097006Y-89883996D01*
X156202484Y-89937740D01*
X156258360Y-89966211D01*
X156258363Y-89966212D01*
X156344476Y-89994191D01*
X156430591Y-90022171D01*
X156513429Y-90035291D01*
X156609449Y-90050500D01*
X156609454Y-90050500D01*
X156790551Y-90050500D01*
X156877259Y-90036765D01*
X156969409Y-90022171D01*
X157141639Y-89966211D01*
X157302994Y-89883996D01*
X157449501Y-89777553D01*
X157577553Y-89649501D01*
X157683996Y-89502994D01*
X157766211Y-89341639D01*
X157822171Y-89169409D01*
X157836422Y-89079425D01*
X157847527Y-89009321D01*
X157877456Y-88946186D01*
X157936768Y-88909255D01*
X158006630Y-88910253D01*
X158064863Y-88948863D01*
X158092473Y-89009321D01*
X158117829Y-89169410D01*
X158173787Y-89341636D01*
X158173788Y-89341639D01*
X158256006Y-89502997D01*
X158362441Y-89649494D01*
X158362445Y-89649499D01*
X158490500Y-89777554D01*
X158490505Y-89777558D01*
X158618287Y-89870396D01*
X158637006Y-89883996D01*
X158742484Y-89937740D01*
X158798360Y-89966211D01*
X158798363Y-89966212D01*
X158884476Y-89994191D01*
X158970591Y-90022171D01*
X159053429Y-90035291D01*
X159149449Y-90050500D01*
X159149454Y-90050500D01*
X159330551Y-90050500D01*
X159417259Y-90036765D01*
X159509409Y-90022171D01*
X159681639Y-89966211D01*
X159842994Y-89883996D01*
X159989501Y-89777553D01*
X160117553Y-89649501D01*
X160223996Y-89502994D01*
X160306211Y-89341639D01*
X160362171Y-89169409D01*
X160376765Y-89077259D01*
X160390500Y-88990551D01*
X160390500Y-88809448D01*
X160372697Y-88697049D01*
X160362171Y-88630591D01*
X160334191Y-88544476D01*
X160306212Y-88458363D01*
X160306211Y-88458360D01*
X160277740Y-88402484D01*
X160223996Y-88297006D01*
X160210396Y-88278287D01*
X160117558Y-88150505D01*
X160117554Y-88150500D01*
X159989499Y-88022445D01*
X159989494Y-88022441D01*
X159842997Y-87916006D01*
X159842996Y-87916005D01*
X159842994Y-87916004D01*
X159791300Y-87889664D01*
X159681639Y-87833788D01*
X159681636Y-87833787D01*
X159509410Y-87777829D01*
X159330551Y-87749500D01*
X159330546Y-87749500D01*
X159149454Y-87749500D01*
X159149449Y-87749500D01*
X158970589Y-87777829D01*
X158798363Y-87833787D01*
X158798360Y-87833788D01*
X158637002Y-87916006D01*
X158490505Y-88022441D01*
X158490500Y-88022445D01*
X158362445Y-88150500D01*
X158362441Y-88150505D01*
X158256006Y-88297002D01*
X158173788Y-88458360D01*
X158173787Y-88458363D01*
X158117829Y-88630589D01*
X158092473Y-88790678D01*
X158062544Y-88853813D01*
X158003232Y-88890744D01*
X157933369Y-88889746D01*
X157875137Y-88851136D01*
X157847527Y-88790678D01*
X157832697Y-88697049D01*
X157822171Y-88630591D01*
X157794191Y-88544476D01*
X157766212Y-88458363D01*
X157766211Y-88458360D01*
X157737740Y-88402484D01*
X157683996Y-88297006D01*
X157670396Y-88278287D01*
X157577558Y-88150505D01*
X157577554Y-88150500D01*
X157449499Y-88022445D01*
X157449494Y-88022441D01*
X157302997Y-87916006D01*
X157302996Y-87916005D01*
X157302994Y-87916004D01*
X157251300Y-87889664D01*
X157141639Y-87833788D01*
X157141636Y-87833787D01*
X156969410Y-87777829D01*
X156790551Y-87749500D01*
X156790546Y-87749500D01*
X156609454Y-87749500D01*
X156609449Y-87749500D01*
X156430589Y-87777829D01*
X156258363Y-87833787D01*
X156258360Y-87833788D01*
X156097002Y-87916006D01*
X155950505Y-88022441D01*
X155950500Y-88022445D01*
X155822445Y-88150500D01*
X155822441Y-88150505D01*
X155716006Y-88297002D01*
X155633788Y-88458360D01*
X155633787Y-88458363D01*
X155577829Y-88630589D01*
X155549500Y-88809448D01*
X130200502Y-88809448D01*
X130200501Y-81606898D01*
X135324500Y-81606898D01*
X135324500Y-82393102D01*
X135330126Y-82439954D01*
X135335122Y-82481561D01*
X135335122Y-82481563D01*
X135335123Y-82481564D01*
X135352722Y-82526192D01*
X135390639Y-82622343D01*
X135482077Y-82742922D01*
X135602656Y-82834360D01*
X135602657Y-82834360D01*
X135602658Y-82834361D01*
X135743436Y-82889877D01*
X135831898Y-82900500D01*
X135831903Y-82900500D01*
X135902920Y-82900500D01*
X135969959Y-82920185D01*
X136015714Y-82972989D01*
X136025658Y-83042147D01*
X135996633Y-83105703D01*
X135950372Y-83139060D01*
X135934134Y-83145786D01*
X135798458Y-83201983D01*
X135798446Y-83201990D01*
X135650965Y-83300535D01*
X135650961Y-83300538D01*
X135525538Y-83425961D01*
X135525535Y-83425965D01*
X135426990Y-83573446D01*
X135426983Y-83573459D01*
X135359106Y-83737332D01*
X135359103Y-83737341D01*
X135324500Y-83911304D01*
X135324500Y-84088695D01*
X135359103Y-84262658D01*
X135359106Y-84262667D01*
X135426983Y-84426540D01*
X135426990Y-84426553D01*
X135525535Y-84574034D01*
X135525538Y-84574038D01*
X135650961Y-84699461D01*
X135650965Y-84699464D01*
X135798446Y-84798009D01*
X135798459Y-84798016D01*
X135921363Y-84848923D01*
X135962334Y-84865894D01*
X135982594Y-84869924D01*
X136025118Y-84878383D01*
X136087028Y-84910768D01*
X136121603Y-84971484D01*
X136117863Y-85041253D01*
X136076996Y-85097925D01*
X136025118Y-85121617D01*
X135962340Y-85134104D01*
X135962332Y-85134106D01*
X135798459Y-85201983D01*
X135798446Y-85201990D01*
X135650965Y-85300535D01*
X135650961Y-85300538D01*
X135525538Y-85425961D01*
X135525535Y-85425965D01*
X135426990Y-85573446D01*
X135426983Y-85573459D01*
X135359106Y-85737332D01*
X135359103Y-85737341D01*
X135324500Y-85911304D01*
X135324500Y-86088695D01*
X135359103Y-86262658D01*
X135359106Y-86262667D01*
X135426983Y-86426540D01*
X135426990Y-86426553D01*
X135525535Y-86574034D01*
X135525538Y-86574038D01*
X135650961Y-86699461D01*
X135650965Y-86699464D01*
X135798446Y-86798009D01*
X135798459Y-86798016D01*
X135921363Y-86848923D01*
X135962334Y-86865894D01*
X135962336Y-86865894D01*
X135962341Y-86865896D01*
X136136304Y-86900499D01*
X136136307Y-86900500D01*
X136136309Y-86900500D01*
X136863693Y-86900500D01*
X136863694Y-86900499D01*
X136921682Y-86888964D01*
X137037658Y-86865896D01*
X137037661Y-86865894D01*
X137037666Y-86865894D01*
X137201547Y-86798013D01*
X137349035Y-86699464D01*
X137474464Y-86574035D01*
X137573013Y-86426547D01*
X137640894Y-86262666D01*
X137675500Y-86088691D01*
X137675500Y-85911309D01*
X137675500Y-85911306D01*
X137675499Y-85911304D01*
X137640896Y-85737341D01*
X137640893Y-85737332D01*
X137573016Y-85573459D01*
X137573009Y-85573446D01*
X137474464Y-85425965D01*
X137474461Y-85425961D01*
X137349038Y-85300538D01*
X137349034Y-85300535D01*
X137201553Y-85201990D01*
X137201540Y-85201983D01*
X137037667Y-85134106D01*
X137037658Y-85134103D01*
X136974882Y-85121617D01*
X136912971Y-85089232D01*
X136878397Y-85028517D01*
X136882136Y-84958747D01*
X136923003Y-84902075D01*
X136974882Y-84878383D01*
X137037658Y-84865896D01*
X137037661Y-84865894D01*
X137037666Y-84865894D01*
X137201547Y-84798013D01*
X137349035Y-84699464D01*
X137474464Y-84574035D01*
X137573013Y-84426547D01*
X137640894Y-84262666D01*
X137644917Y-84242445D01*
X137675499Y-84088695D01*
X137675500Y-84088693D01*
X137675500Y-83911306D01*
X137675499Y-83911304D01*
X137640896Y-83737341D01*
X137640893Y-83737332D01*
X137573016Y-83573459D01*
X137573009Y-83573446D01*
X137474464Y-83425965D01*
X137474461Y-83425961D01*
X137349038Y-83300538D01*
X137349034Y-83300535D01*
X137201553Y-83201990D01*
X137201541Y-83201983D01*
X137069718Y-83147382D01*
X137049627Y-83139060D01*
X136995224Y-83095221D01*
X136973159Y-83028927D01*
X136990438Y-82961227D01*
X137041575Y-82913617D01*
X137097080Y-82900500D01*
X137168097Y-82900500D01*
X137168102Y-82900500D01*
X137256564Y-82889877D01*
X137397342Y-82834361D01*
X137517922Y-82742922D01*
X137609361Y-82622342D01*
X137661768Y-82489448D01*
X139199500Y-82489448D01*
X139199500Y-82670551D01*
X139227829Y-82849410D01*
X139283787Y-83021636D01*
X139283788Y-83021639D01*
X139366006Y-83182997D01*
X139472441Y-83329494D01*
X139472445Y-83329499D01*
X139600500Y-83457554D01*
X139600505Y-83457558D01*
X139728287Y-83550396D01*
X139747006Y-83563996D01*
X139852484Y-83617740D01*
X139908360Y-83646211D01*
X139908363Y-83646212D01*
X139994476Y-83674191D01*
X140080591Y-83702171D01*
X140153639Y-83713740D01*
X140240678Y-83727527D01*
X140303813Y-83757456D01*
X140340744Y-83816768D01*
X140339746Y-83886631D01*
X140301136Y-83944863D01*
X140240678Y-83972473D01*
X140080589Y-83997829D01*
X139908363Y-84053787D01*
X139908360Y-84053788D01*
X139747002Y-84136006D01*
X139600505Y-84242441D01*
X139600500Y-84242445D01*
X139472445Y-84370500D01*
X139472441Y-84370505D01*
X139366006Y-84517002D01*
X139283788Y-84678360D01*
X139283787Y-84678363D01*
X139227829Y-84850589D01*
X139199500Y-85029448D01*
X139199500Y-85210551D01*
X139227829Y-85389410D01*
X139283787Y-85561636D01*
X139283788Y-85561639D01*
X139366006Y-85722997D01*
X139472441Y-85869494D01*
X139472445Y-85869499D01*
X139600500Y-85997554D01*
X139600505Y-85997558D01*
X139725940Y-86088691D01*
X139747006Y-86103996D01*
X139852484Y-86157740D01*
X139908360Y-86186211D01*
X139908363Y-86186212D01*
X139994476Y-86214191D01*
X140080591Y-86242171D01*
X140163429Y-86255291D01*
X140259449Y-86270500D01*
X140259454Y-86270500D01*
X140440551Y-86270500D01*
X140527259Y-86256765D01*
X140619409Y-86242171D01*
X140791639Y-86186211D01*
X140952994Y-86103996D01*
X141099501Y-85997553D01*
X141227553Y-85869501D01*
X141333996Y-85722994D01*
X141416211Y-85561639D01*
X141472171Y-85389409D01*
X141486765Y-85297259D01*
X141500500Y-85210551D01*
X141500500Y-85029448D01*
X141480076Y-84900500D01*
X141472171Y-84850591D01*
X141416211Y-84678361D01*
X141416211Y-84678360D01*
X141363055Y-84574038D01*
X141333996Y-84517006D01*
X141320396Y-84498287D01*
X141227558Y-84370505D01*
X141227554Y-84370500D01*
X141099499Y-84242445D01*
X141099494Y-84242441D01*
X140952997Y-84136006D01*
X140952996Y-84136005D01*
X140952994Y-84136004D01*
X140901300Y-84109664D01*
X140791639Y-84053788D01*
X140791636Y-84053787D01*
X140619410Y-83997829D01*
X140459321Y-83972473D01*
X140396186Y-83942544D01*
X140359255Y-83883232D01*
X140360253Y-83813370D01*
X140398863Y-83755137D01*
X140459321Y-83727527D01*
X140529425Y-83716422D01*
X140619409Y-83702171D01*
X140791639Y-83646211D01*
X140952994Y-83563996D01*
X141099501Y-83457553D01*
X141227553Y-83329501D01*
X141333996Y-83182994D01*
X141416211Y-83021639D01*
X141472171Y-82849409D01*
X141489037Y-82742922D01*
X141500500Y-82670551D01*
X141500500Y-82489448D01*
X141484019Y-82385397D01*
X141472171Y-82310591D01*
X141416211Y-82138361D01*
X141416211Y-82138360D01*
X141387740Y-82082484D01*
X141333996Y-81977006D01*
X141320396Y-81958287D01*
X141227558Y-81830505D01*
X141227554Y-81830500D01*
X141099499Y-81702445D01*
X141099494Y-81702441D01*
X140952997Y-81596006D01*
X140952996Y-81596005D01*
X140952994Y-81596004D01*
X140901300Y-81569664D01*
X140791639Y-81513788D01*
X140791636Y-81513787D01*
X140619410Y-81457829D01*
X140440551Y-81429500D01*
X140440546Y-81429500D01*
X140259454Y-81429500D01*
X140259449Y-81429500D01*
X140080589Y-81457829D01*
X139908363Y-81513787D01*
X139908360Y-81513788D01*
X139747002Y-81596006D01*
X139600505Y-81702441D01*
X139600500Y-81702445D01*
X139472445Y-81830500D01*
X139472441Y-81830505D01*
X139366006Y-81977002D01*
X139283788Y-82138360D01*
X139283787Y-82138363D01*
X139227829Y-82310589D01*
X139199500Y-82489448D01*
X137661768Y-82489448D01*
X137664877Y-82481564D01*
X137675500Y-82393102D01*
X137675500Y-81606898D01*
X137664877Y-81518436D01*
X137609361Y-81377658D01*
X137609360Y-81377657D01*
X137609360Y-81377656D01*
X137517922Y-81257077D01*
X137397343Y-81165639D01*
X137256561Y-81110122D01*
X137210926Y-81104642D01*
X137168102Y-81099500D01*
X135831898Y-81099500D01*
X135792853Y-81104188D01*
X135743438Y-81110122D01*
X135602656Y-81165639D01*
X135482077Y-81257077D01*
X135390639Y-81377656D01*
X135335122Y-81518438D01*
X135329188Y-81567853D01*
X135324500Y-81606898D01*
X130200501Y-81606898D01*
X130200501Y-74823421D01*
X130200501Y-66346898D01*
X135324500Y-66346898D01*
X135324500Y-67133102D01*
X135326902Y-67153102D01*
X135335122Y-67221561D01*
X135335122Y-67221563D01*
X135335123Y-67221564D01*
X135348712Y-67256022D01*
X135390639Y-67362343D01*
X135482077Y-67482922D01*
X135602656Y-67574360D01*
X135602657Y-67574360D01*
X135602658Y-67574361D01*
X135743436Y-67629877D01*
X135831898Y-67640500D01*
X135831903Y-67640500D01*
X135902920Y-67640500D01*
X135969959Y-67660185D01*
X136015714Y-67712989D01*
X136025658Y-67782147D01*
X135996633Y-67845703D01*
X135950372Y-67879060D01*
X135934134Y-67885786D01*
X135798458Y-67941983D01*
X135798446Y-67941990D01*
X135650965Y-68040535D01*
X135650961Y-68040538D01*
X135525538Y-68165961D01*
X135525535Y-68165965D01*
X135426990Y-68313446D01*
X135426983Y-68313459D01*
X135359106Y-68477332D01*
X135359103Y-68477341D01*
X135324500Y-68651304D01*
X135324500Y-68828695D01*
X135359103Y-69002658D01*
X135359106Y-69002667D01*
X135426983Y-69166540D01*
X135426990Y-69166553D01*
X135525535Y-69314034D01*
X135525538Y-69314038D01*
X135650961Y-69439461D01*
X135650965Y-69439464D01*
X135798446Y-69538009D01*
X135798459Y-69538016D01*
X135889984Y-69575926D01*
X135962334Y-69605894D01*
X135977748Y-69608960D01*
X136025118Y-69618383D01*
X136087028Y-69650768D01*
X136121603Y-69711484D01*
X136117863Y-69781253D01*
X136076996Y-69837925D01*
X136025118Y-69861617D01*
X135962340Y-69874104D01*
X135962332Y-69874106D01*
X135798459Y-69941983D01*
X135798446Y-69941990D01*
X135650965Y-70040535D01*
X135650961Y-70040538D01*
X135525538Y-70165961D01*
X135525535Y-70165965D01*
X135426990Y-70313446D01*
X135426983Y-70313459D01*
X135359106Y-70477332D01*
X135359103Y-70477341D01*
X135324500Y-70651304D01*
X135324500Y-70828695D01*
X135359103Y-71002658D01*
X135359106Y-71002667D01*
X135426983Y-71166540D01*
X135426990Y-71166553D01*
X135525535Y-71314034D01*
X135525538Y-71314038D01*
X135650961Y-71439461D01*
X135650965Y-71439464D01*
X135798446Y-71538009D01*
X135798459Y-71538016D01*
X135921363Y-71588923D01*
X135962334Y-71605894D01*
X135962336Y-71605894D01*
X135962341Y-71605896D01*
X136136304Y-71640499D01*
X136136307Y-71640500D01*
X136136309Y-71640500D01*
X136863693Y-71640500D01*
X136863694Y-71640499D01*
X136921682Y-71628964D01*
X137037658Y-71605896D01*
X137037661Y-71605894D01*
X137037666Y-71605894D01*
X137201547Y-71538013D01*
X137349035Y-71439464D01*
X137474464Y-71314035D01*
X137573013Y-71166547D01*
X137640894Y-71002666D01*
X137640993Y-71002171D01*
X137675499Y-70828695D01*
X137675500Y-70828693D01*
X137675500Y-70651306D01*
X137675499Y-70651304D01*
X137640896Y-70477341D01*
X137640893Y-70477332D01*
X137573016Y-70313459D01*
X137573009Y-70313446D01*
X137474464Y-70165965D01*
X137474461Y-70165961D01*
X137349038Y-70040538D01*
X137349034Y-70040535D01*
X137201553Y-69941990D01*
X137201540Y-69941983D01*
X137037667Y-69874106D01*
X137037658Y-69874103D01*
X136974882Y-69861617D01*
X136912971Y-69829232D01*
X136878397Y-69768517D01*
X136882136Y-69698747D01*
X136923003Y-69642075D01*
X136974882Y-69618383D01*
X137037658Y-69605896D01*
X137037661Y-69605894D01*
X137037666Y-69605894D01*
X137177535Y-69547958D01*
X137201540Y-69538016D01*
X137201540Y-69538015D01*
X137201547Y-69538013D01*
X137349035Y-69439464D01*
X137474464Y-69314035D01*
X137573013Y-69166547D01*
X137640894Y-69002666D01*
X137675500Y-68828691D01*
X137675500Y-68651309D01*
X137675500Y-68651306D01*
X137675499Y-68651304D01*
X137640896Y-68477341D01*
X137640893Y-68477332D01*
X137573016Y-68313459D01*
X137573009Y-68313446D01*
X137474464Y-68165965D01*
X137474461Y-68165961D01*
X137349038Y-68040538D01*
X137349034Y-68040535D01*
X137201553Y-67941990D01*
X137201541Y-67941983D01*
X137069718Y-67887382D01*
X137049627Y-67879060D01*
X136995224Y-67835221D01*
X136973159Y-67768927D01*
X136990438Y-67701227D01*
X137041575Y-67653617D01*
X137097080Y-67640500D01*
X137168097Y-67640500D01*
X137168102Y-67640500D01*
X137256564Y-67629877D01*
X137397342Y-67574361D01*
X137517922Y-67482922D01*
X137609361Y-67362342D01*
X137653881Y-67249448D01*
X139199500Y-67249448D01*
X139199500Y-67430551D01*
X139227829Y-67609410D01*
X139283787Y-67781636D01*
X139283788Y-67781639D01*
X139333428Y-67879061D01*
X139365492Y-67941990D01*
X139366006Y-67942997D01*
X139472441Y-68089494D01*
X139472445Y-68089499D01*
X139600500Y-68217554D01*
X139600505Y-68217558D01*
X139728287Y-68310396D01*
X139747006Y-68323996D01*
X139852484Y-68377740D01*
X139908360Y-68406211D01*
X139908363Y-68406212D01*
X139994476Y-68434191D01*
X140080591Y-68462171D01*
X140153639Y-68473740D01*
X140240678Y-68487527D01*
X140303813Y-68517456D01*
X140340744Y-68576768D01*
X140339746Y-68646631D01*
X140301136Y-68704863D01*
X140240678Y-68732473D01*
X140080589Y-68757829D01*
X139908363Y-68813787D01*
X139908360Y-68813788D01*
X139747002Y-68896006D01*
X139600505Y-69002441D01*
X139600500Y-69002445D01*
X139472445Y-69130500D01*
X139472441Y-69130505D01*
X139366006Y-69277002D01*
X139283788Y-69438360D01*
X139283787Y-69438363D01*
X139227829Y-69610589D01*
X139199500Y-69789448D01*
X139199500Y-69970551D01*
X139227829Y-70149410D01*
X139283787Y-70321636D01*
X139283788Y-70321639D01*
X139339664Y-70431300D01*
X139348670Y-70448975D01*
X139366006Y-70482997D01*
X139472441Y-70629494D01*
X139472445Y-70629499D01*
X139600500Y-70757554D01*
X139600505Y-70757558D01*
X139698415Y-70828693D01*
X139747006Y-70863996D01*
X139822908Y-70902670D01*
X139908360Y-70946211D01*
X139908363Y-70946212D01*
X139968734Y-70965827D01*
X140080591Y-71002171D01*
X140163429Y-71015291D01*
X140259449Y-71030500D01*
X140259454Y-71030500D01*
X140440551Y-71030500D01*
X140527259Y-71016765D01*
X140619409Y-71002171D01*
X140791639Y-70946211D01*
X140952994Y-70863996D01*
X141099501Y-70757553D01*
X141227553Y-70629501D01*
X141333996Y-70482994D01*
X141416211Y-70321639D01*
X141472171Y-70149409D01*
X141488494Y-70046352D01*
X141500500Y-69970551D01*
X141500500Y-69789448D01*
X141481108Y-69667013D01*
X141478629Y-69651362D01*
X151469500Y-69651362D01*
X151469500Y-70376000D01*
X151469501Y-70376009D01*
X151485623Y-70525965D01*
X151485625Y-70525977D01*
X151496818Y-70577431D01*
X151499393Y-70588815D01*
X151514314Y-70629501D01*
X151557953Y-70748492D01*
X151653025Y-70889516D01*
X151689766Y-70931917D01*
X151698786Y-70942327D01*
X151725871Y-70970942D01*
X151741380Y-70987327D01*
X151876971Y-71089997D01*
X152033193Y-71157236D01*
X152100232Y-71176921D01*
X152130163Y-71184999D01*
X152268944Y-71201850D01*
X152298998Y-71205500D01*
X152299000Y-71205500D01*
X155064518Y-71205500D01*
X155064519Y-71205500D01*
X155208331Y-71190687D01*
X155245401Y-71182968D01*
X155257598Y-71180429D01*
X155257636Y-71180420D01*
X155257823Y-71180382D01*
X155263044Y-71179274D01*
X155423740Y-71123570D01*
X155566436Y-71031028D01*
X155620047Y-70986222D01*
X155643385Y-70965830D01*
X155754230Y-70836835D01*
X155788306Y-70785835D01*
X155795201Y-70775313D01*
X155797593Y-70771591D01*
X155820112Y-70734038D01*
X155822535Y-70729998D01*
X155822879Y-70730204D01*
X155841317Y-70691668D01*
X155853336Y-70666548D01*
X155898814Y-70543060D01*
X155904407Y-70502971D01*
X155916698Y-70448975D01*
X155920189Y-70389870D01*
X155920872Y-70384977D01*
X155922317Y-70374625D01*
X155922317Y-70374621D01*
X155922318Y-70374615D01*
X155922674Y-70354628D01*
X155922803Y-70347396D01*
X155922997Y-70342316D01*
X155926727Y-70279194D01*
X155924031Y-70264604D01*
X155922010Y-70245293D01*
X155921946Y-70242818D01*
X155889679Y-70075829D01*
X155873285Y-70040320D01*
X155865054Y-70015926D01*
X155830241Y-69947089D01*
X155818388Y-69921415D01*
X155814931Y-69915819D01*
X155809769Y-69906608D01*
X155788304Y-69864164D01*
X155788299Y-69864154D01*
X155745355Y-69799884D01*
X155733897Y-69778446D01*
X155721007Y-69747325D01*
X155713952Y-69724066D01*
X155707383Y-69691041D01*
X155705000Y-69666850D01*
X155705000Y-69633155D01*
X155707382Y-69608965D01*
X155707383Y-69608960D01*
X155713953Y-69575924D01*
X155721010Y-69552666D01*
X155733899Y-69521549D01*
X155745357Y-69500111D01*
X155757106Y-69482527D01*
X155764075Y-69472096D01*
X155779490Y-69453314D01*
X155803315Y-69429489D01*
X155822099Y-69414074D01*
X155850107Y-69395359D01*
X155871548Y-69383898D01*
X155871556Y-69383895D01*
X155902666Y-69371008D01*
X155925929Y-69363953D01*
X155958968Y-69357382D01*
X155983156Y-69355000D01*
X156016843Y-69355000D01*
X156041033Y-69357382D01*
X156074074Y-69363954D01*
X156097331Y-69371009D01*
X156128452Y-69383899D01*
X156149885Y-69395355D01*
X156226654Y-69446651D01*
X156226683Y-69446670D01*
X156226686Y-69446672D01*
X156237212Y-69453570D01*
X156240923Y-69455955D01*
X156240936Y-69455962D01*
X156240941Y-69455966D01*
X156278285Y-69478365D01*
X156278291Y-69478367D01*
X156278292Y-69478368D01*
X156345257Y-69505783D01*
X156435683Y-69542804D01*
X156471631Y-69552666D01*
X156503047Y-69561285D01*
X156503055Y-69561286D01*
X156503063Y-69561289D01*
X156563494Y-69575044D01*
X156711937Y-69583819D01*
X156733273Y-69585081D01*
X156733273Y-69585080D01*
X156733275Y-69585081D01*
X156900524Y-69554194D01*
X156952214Y-69538009D01*
X156967203Y-69533316D01*
X156974412Y-69530882D01*
X156996575Y-69523405D01*
X157148347Y-69446650D01*
X157225120Y-69395350D01*
X157246536Y-69383903D01*
X157277674Y-69371005D01*
X157300924Y-69363954D01*
X157333968Y-69357382D01*
X157358156Y-69355000D01*
X157391843Y-69355000D01*
X157416033Y-69357382D01*
X157449074Y-69363954D01*
X157472331Y-69371009D01*
X157503452Y-69383899D01*
X157524885Y-69395355D01*
X157601654Y-69446651D01*
X157601683Y-69446670D01*
X157601686Y-69446672D01*
X157612212Y-69453570D01*
X157615923Y-69455955D01*
X157615936Y-69455962D01*
X157615941Y-69455966D01*
X157653285Y-69478365D01*
X157653291Y-69478367D01*
X157653292Y-69478368D01*
X157720257Y-69505783D01*
X157810683Y-69542804D01*
X157846631Y-69552666D01*
X157878047Y-69561285D01*
X157878055Y-69561286D01*
X157878063Y-69561289D01*
X157938494Y-69575044D01*
X158086937Y-69583819D01*
X158108273Y-69585081D01*
X158108273Y-69585080D01*
X158108275Y-69585081D01*
X158275524Y-69554194D01*
X158327214Y-69538009D01*
X158342203Y-69533316D01*
X158349412Y-69530882D01*
X158371575Y-69523405D01*
X158523347Y-69446650D01*
X158600120Y-69395350D01*
X158621536Y-69383903D01*
X158652674Y-69371005D01*
X158675924Y-69363954D01*
X158708968Y-69357382D01*
X158733156Y-69355000D01*
X158766843Y-69355000D01*
X158791033Y-69357382D01*
X158824074Y-69363954D01*
X158847329Y-69371007D01*
X158878452Y-69383899D01*
X158899883Y-69395355D01*
X158927898Y-69414074D01*
X158946688Y-69429495D01*
X158970503Y-69453310D01*
X158985923Y-69472098D01*
X159004639Y-69500107D01*
X159016099Y-69521549D01*
X159016100Y-69521550D01*
X159028990Y-69552671D01*
X159036045Y-69575926D01*
X159037416Y-69582820D01*
X159042617Y-69608965D01*
X159045000Y-69633155D01*
X159045000Y-69666839D01*
X159042616Y-69691035D01*
X159036043Y-69724073D01*
X159028989Y-69747325D01*
X159028988Y-69747329D01*
X159016098Y-69778449D01*
X159004641Y-69799885D01*
X158961714Y-69864132D01*
X158954789Y-69874699D01*
X158952403Y-69878410D01*
X158929984Y-69915787D01*
X158929980Y-69915794D01*
X158865543Y-70073194D01*
X158847058Y-70140577D01*
X158833306Y-70200990D01*
X158823269Y-70370776D01*
X158854158Y-70538029D01*
X158854160Y-70538034D01*
X158875039Y-70604718D01*
X158884944Y-70634070D01*
X158884950Y-70634086D01*
X158956374Y-70775313D01*
X158961702Y-70785848D01*
X158990329Y-70828691D01*
X159004639Y-70850107D01*
X159016099Y-70871547D01*
X159028990Y-70902670D01*
X159036045Y-70925926D01*
X159042617Y-70958965D01*
X159045000Y-70983155D01*
X159045000Y-71016839D01*
X159042616Y-71041035D01*
X159036043Y-71074073D01*
X159028988Y-71097329D01*
X159016098Y-71128449D01*
X159004641Y-71149885D01*
X158961714Y-71214132D01*
X158954789Y-71224699D01*
X158952403Y-71228410D01*
X158929984Y-71265787D01*
X158929980Y-71265794D01*
X158865543Y-71423194D01*
X158847058Y-71490577D01*
X158833306Y-71550990D01*
X158823269Y-71720776D01*
X158854158Y-71888029D01*
X158854160Y-71888034D01*
X158875039Y-71954718D01*
X158884944Y-71984070D01*
X158884950Y-71984086D01*
X158961696Y-72135837D01*
X158961702Y-72135848D01*
X158977896Y-72160083D01*
X159004639Y-72200107D01*
X159016099Y-72221547D01*
X159028990Y-72252670D01*
X159036045Y-72275926D01*
X159042617Y-72308965D01*
X159045000Y-72333155D01*
X159045000Y-72366839D01*
X159042616Y-72391035D01*
X159036043Y-72424073D01*
X159028989Y-72447327D01*
X159016099Y-72478448D01*
X159004639Y-72499889D01*
X158985924Y-72527898D01*
X158970503Y-72546688D01*
X158946688Y-72570503D01*
X158927898Y-72585924D01*
X158899892Y-72604637D01*
X158878452Y-72616097D01*
X158847329Y-72628988D01*
X158824075Y-72636042D01*
X158791034Y-72642616D01*
X158766837Y-72645000D01*
X158733161Y-72645000D01*
X158708969Y-72642617D01*
X158686761Y-72638199D01*
X158675922Y-72636043D01*
X158652666Y-72628988D01*
X158621548Y-72616099D01*
X158600108Y-72604639D01*
X158523364Y-72553360D01*
X158513183Y-72546688D01*
X158512895Y-72546499D01*
X158512830Y-72546457D01*
X158509192Y-72544118D01*
X158509180Y-72544111D01*
X158509171Y-72544105D01*
X158471704Y-72521627D01*
X158454160Y-72514445D01*
X158314305Y-72457191D01*
X158246914Y-72438704D01*
X158186512Y-72424955D01*
X158186505Y-72424954D01*
X158016723Y-72414917D01*
X157849470Y-72445806D01*
X157849465Y-72445808D01*
X157782781Y-72466687D01*
X157753432Y-72476591D01*
X157753416Y-72476598D01*
X157601665Y-72553341D01*
X157601659Y-72553345D01*
X157524890Y-72604639D01*
X157503455Y-72616096D01*
X157472334Y-72628987D01*
X157449074Y-72636043D01*
X157414611Y-72642899D01*
X157402281Y-72644450D01*
X157402302Y-72644645D01*
X157249034Y-72661123D01*
X157249022Y-72661125D01*
X157197568Y-72672318D01*
X157186184Y-72674893D01*
X157026510Y-72733452D01*
X157026506Y-72733454D01*
X156885481Y-72828527D01*
X156832672Y-72874286D01*
X156787678Y-72916874D01*
X156787672Y-72916881D01*
X156685002Y-73052471D01*
X156617766Y-73208686D01*
X156617764Y-73208693D01*
X156598079Y-73275732D01*
X156590001Y-73305663D01*
X156569500Y-73474500D01*
X156569500Y-76576000D01*
X156569501Y-76576009D01*
X156585623Y-76725965D01*
X156585625Y-76725977D01*
X156596818Y-76777431D01*
X156596830Y-76777482D01*
X156599393Y-76788814D01*
X156657953Y-76948492D01*
X156753025Y-77089516D01*
X156753027Y-77089518D01*
X156798786Y-77142327D01*
X156817923Y-77162545D01*
X156841380Y-77187327D01*
X156976971Y-77289997D01*
X157133193Y-77357236D01*
X157200232Y-77376921D01*
X157230163Y-77384999D01*
X157365704Y-77401457D01*
X157398998Y-77405500D01*
X157399000Y-77405500D01*
X158223640Y-77405500D01*
X158235560Y-77404860D01*
X158299058Y-77401457D01*
X158325416Y-77398623D01*
X158430097Y-77379290D01*
X158588107Y-77316368D01*
X158649430Y-77282883D01*
X158676301Y-77267435D01*
X158810183Y-77162545D01*
X163137545Y-72835183D01*
X163188017Y-72778992D01*
X163204651Y-72758350D01*
X163264997Y-72670667D01*
X163332236Y-72514445D01*
X163351921Y-72447406D01*
X163359999Y-72417475D01*
X163378641Y-72263951D01*
X163380500Y-72248640D01*
X163380500Y-70351359D01*
X163378467Y-70313446D01*
X163376457Y-70275942D01*
X163373623Y-70249584D01*
X163354290Y-70144903D01*
X163291368Y-69986893D01*
X163282442Y-69970546D01*
X163257892Y-69925585D01*
X163242437Y-69898702D01*
X163226539Y-69878410D01*
X163137545Y-69764817D01*
X163137542Y-69764813D01*
X158716819Y-65344090D01*
X158683334Y-65282767D01*
X158680500Y-65256409D01*
X158680500Y-63524010D01*
X158680500Y-63524000D01*
X158664376Y-63374029D01*
X158653761Y-63325235D01*
X158653181Y-63322568D01*
X158653170Y-63322518D01*
X158650607Y-63311186D01*
X158592047Y-63151508D01*
X158496975Y-63010484D01*
X158451220Y-62957680D01*
X158451219Y-62957679D01*
X158451213Y-62957672D01*
X158408625Y-62912678D01*
X158408623Y-62912676D01*
X158408620Y-62912673D01*
X158273029Y-62810003D01*
X158273028Y-62810002D01*
X158116813Y-62742766D01*
X158116808Y-62742764D01*
X158116807Y-62742764D01*
X158049768Y-62723079D01*
X158019837Y-62715001D01*
X157935418Y-62704750D01*
X157851002Y-62694500D01*
X157851000Y-62694500D01*
X157199000Y-62694500D01*
X157198991Y-62694500D01*
X157198990Y-62694501D01*
X157049034Y-62710623D01*
X157049022Y-62710625D01*
X156997568Y-62721818D01*
X156986184Y-62724393D01*
X156826510Y-62782952D01*
X156826506Y-62782954D01*
X156685481Y-62878027D01*
X156632672Y-62923786D01*
X156587678Y-62966374D01*
X156587672Y-62966381D01*
X156485002Y-63101971D01*
X156417766Y-63258186D01*
X156398078Y-63325235D01*
X156390001Y-63355162D01*
X156390001Y-63355165D01*
X156369500Y-63523997D01*
X156369500Y-64543553D01*
X156349815Y-64610592D01*
X156330844Y-64633510D01*
X152690634Y-68087042D01*
X152683690Y-68093718D01*
X152681617Y-68095738D01*
X152674977Y-68102293D01*
X151712470Y-69064800D01*
X151661975Y-69121016D01*
X151645355Y-69141642D01*
X151645331Y-69141674D01*
X151585005Y-69229328D01*
X151585001Y-69229335D01*
X151517766Y-69385548D01*
X151498078Y-69452597D01*
X151490001Y-69482524D01*
X151490001Y-69482527D01*
X151470628Y-69642075D01*
X151469500Y-69651362D01*
X141478629Y-69651362D01*
X141473405Y-69618383D01*
X141472171Y-69610591D01*
X141439573Y-69510264D01*
X141416212Y-69438363D01*
X141416211Y-69438360D01*
X141373736Y-69355000D01*
X141333996Y-69277006D01*
X141253748Y-69166553D01*
X141227558Y-69130505D01*
X141227554Y-69130500D01*
X141099499Y-69002445D01*
X141099494Y-69002441D01*
X140952997Y-68896006D01*
X140952996Y-68896005D01*
X140952994Y-68896004D01*
X140901300Y-68869664D01*
X140791639Y-68813788D01*
X140791636Y-68813787D01*
X140619410Y-68757829D01*
X140459321Y-68732473D01*
X140396186Y-68702544D01*
X140359255Y-68643232D01*
X140360253Y-68573370D01*
X140398863Y-68515137D01*
X140459321Y-68487527D01*
X140529425Y-68476422D01*
X140619409Y-68462171D01*
X140791639Y-68406211D01*
X140952994Y-68323996D01*
X141099501Y-68217553D01*
X141227553Y-68089501D01*
X141333996Y-67942994D01*
X141416211Y-67781639D01*
X141416476Y-67780825D01*
X141441492Y-67703831D01*
X141472171Y-67609409D01*
X141486765Y-67517259D01*
X141500500Y-67430551D01*
X141500500Y-67249448D01*
X141477470Y-67104048D01*
X141472171Y-67070591D01*
X141416211Y-66898361D01*
X141416211Y-66898360D01*
X141387740Y-66842484D01*
X141333996Y-66737006D01*
X141320396Y-66718287D01*
X141227558Y-66590505D01*
X141227554Y-66590500D01*
X141099499Y-66462445D01*
X141099494Y-66462441D01*
X140952997Y-66356006D01*
X140952996Y-66356005D01*
X140952994Y-66356004D01*
X140901300Y-66329664D01*
X140791639Y-66273788D01*
X140791636Y-66273787D01*
X140619410Y-66217829D01*
X140440551Y-66189500D01*
X140440546Y-66189500D01*
X140259454Y-66189500D01*
X140259449Y-66189500D01*
X140080589Y-66217829D01*
X139908363Y-66273787D01*
X139908360Y-66273788D01*
X139747002Y-66356006D01*
X139600505Y-66462441D01*
X139600500Y-66462445D01*
X139472445Y-66590500D01*
X139472441Y-66590505D01*
X139366006Y-66737002D01*
X139283788Y-66898360D01*
X139283787Y-66898363D01*
X139227829Y-67070589D01*
X139199500Y-67249448D01*
X137653881Y-67249448D01*
X137664877Y-67221564D01*
X137675500Y-67133102D01*
X137675500Y-66346898D01*
X137664877Y-66258436D01*
X137609361Y-66117658D01*
X137609360Y-66117657D01*
X137609360Y-66117656D01*
X137517922Y-65997077D01*
X137397343Y-65905639D01*
X137292598Y-65864333D01*
X137256564Y-65850123D01*
X137256563Y-65850122D01*
X137256561Y-65850122D01*
X137210926Y-65844642D01*
X137168102Y-65839500D01*
X135831898Y-65839500D01*
X135796265Y-65843779D01*
X135743438Y-65850122D01*
X135602656Y-65905639D01*
X135482077Y-65997077D01*
X135390639Y-66117656D01*
X135335122Y-66258438D01*
X135333279Y-66273788D01*
X135324500Y-66346898D01*
X130200501Y-66346898D01*
X130200501Y-66343192D01*
X130200501Y-58741973D01*
X130200500Y-51106898D01*
X135324500Y-51106898D01*
X135324500Y-51893102D01*
X135330126Y-51939954D01*
X135335122Y-51981561D01*
X135335122Y-51981563D01*
X135335123Y-51981564D01*
X135352722Y-52026192D01*
X135390639Y-52122343D01*
X135482077Y-52242922D01*
X135602656Y-52334360D01*
X135602657Y-52334360D01*
X135602658Y-52334361D01*
X135743436Y-52389877D01*
X135831898Y-52400500D01*
X135831903Y-52400500D01*
X135902920Y-52400500D01*
X135969959Y-52420185D01*
X136015714Y-52472989D01*
X136025658Y-52542147D01*
X135996633Y-52605703D01*
X135950372Y-52639060D01*
X135934134Y-52645786D01*
X135798458Y-52701983D01*
X135798446Y-52701990D01*
X135650965Y-52800535D01*
X135650961Y-52800538D01*
X135525538Y-52925961D01*
X135525535Y-52925965D01*
X135426990Y-53073446D01*
X135426983Y-53073459D01*
X135359106Y-53237332D01*
X135359103Y-53237341D01*
X135324500Y-53411304D01*
X135324500Y-53588695D01*
X135359103Y-53762658D01*
X135359106Y-53762667D01*
X135426983Y-53926540D01*
X135426990Y-53926553D01*
X135525535Y-54074034D01*
X135525538Y-54074038D01*
X135650961Y-54199461D01*
X135650965Y-54199464D01*
X135798446Y-54298009D01*
X135798459Y-54298016D01*
X135921363Y-54348923D01*
X135962334Y-54365894D01*
X135982594Y-54369924D01*
X136025118Y-54378383D01*
X136087028Y-54410768D01*
X136121603Y-54471484D01*
X136117863Y-54541253D01*
X136076996Y-54597925D01*
X136025118Y-54621617D01*
X135962340Y-54634104D01*
X135962332Y-54634106D01*
X135798459Y-54701983D01*
X135798446Y-54701990D01*
X135650965Y-54800535D01*
X135650961Y-54800538D01*
X135525538Y-54925961D01*
X135525535Y-54925965D01*
X135426990Y-55073446D01*
X135426983Y-55073459D01*
X135359106Y-55237332D01*
X135359103Y-55237341D01*
X135324500Y-55411304D01*
X135324500Y-55588695D01*
X135359103Y-55762658D01*
X135359106Y-55762667D01*
X135426983Y-55926540D01*
X135426990Y-55926553D01*
X135525535Y-56074034D01*
X135525538Y-56074038D01*
X135650961Y-56199461D01*
X135650965Y-56199464D01*
X135798446Y-56298009D01*
X135798459Y-56298016D01*
X135921363Y-56348923D01*
X135962334Y-56365894D01*
X135962336Y-56365894D01*
X135962341Y-56365896D01*
X136136304Y-56400499D01*
X136136307Y-56400500D01*
X136136309Y-56400500D01*
X136863693Y-56400500D01*
X136863694Y-56400499D01*
X136921682Y-56388964D01*
X137037658Y-56365896D01*
X137037661Y-56365894D01*
X137037666Y-56365894D01*
X137201547Y-56298013D01*
X137349035Y-56199464D01*
X137474464Y-56074035D01*
X137573013Y-55926547D01*
X137640894Y-55762666D01*
X137640993Y-55762171D01*
X137668478Y-55623993D01*
X137675500Y-55588691D01*
X137675500Y-55411309D01*
X137675500Y-55411306D01*
X137675499Y-55411304D01*
X137640896Y-55237341D01*
X137640893Y-55237332D01*
X137573016Y-55073459D01*
X137573009Y-55073446D01*
X137474464Y-54925965D01*
X137474461Y-54925961D01*
X137349038Y-54800538D01*
X137349034Y-54800535D01*
X137201553Y-54701990D01*
X137201540Y-54701983D01*
X137037667Y-54634106D01*
X137037658Y-54634103D01*
X136974882Y-54621617D01*
X136912971Y-54589232D01*
X136878397Y-54528517D01*
X136882136Y-54458747D01*
X136923003Y-54402075D01*
X136974882Y-54378383D01*
X137037658Y-54365896D01*
X137037661Y-54365894D01*
X137037666Y-54365894D01*
X137201547Y-54298013D01*
X137349035Y-54199464D01*
X137474464Y-54074035D01*
X137573013Y-53926547D01*
X137640894Y-53762666D01*
X137641783Y-53758201D01*
X137675499Y-53588695D01*
X137675500Y-53588693D01*
X137675500Y-53411306D01*
X137675499Y-53411304D01*
X137640896Y-53237341D01*
X137640893Y-53237332D01*
X137573016Y-53073459D01*
X137573009Y-53073446D01*
X137474464Y-52925965D01*
X137474461Y-52925961D01*
X137349038Y-52800538D01*
X137349034Y-52800535D01*
X137201553Y-52701990D01*
X137201541Y-52701983D01*
X137069718Y-52647382D01*
X137049627Y-52639060D01*
X136995224Y-52595221D01*
X136973159Y-52528927D01*
X136990438Y-52461227D01*
X137041575Y-52413617D01*
X137097080Y-52400500D01*
X137168097Y-52400500D01*
X137168102Y-52400500D01*
X137256564Y-52389877D01*
X137397342Y-52334361D01*
X137517922Y-52242922D01*
X137609361Y-52122342D01*
X137653881Y-52009448D01*
X139199500Y-52009448D01*
X139199500Y-52190551D01*
X139227829Y-52369410D01*
X139283787Y-52541636D01*
X139283788Y-52541639D01*
X139333428Y-52639061D01*
X139365492Y-52701990D01*
X139366006Y-52702997D01*
X139472441Y-52849494D01*
X139472445Y-52849499D01*
X139600500Y-52977554D01*
X139600505Y-52977558D01*
X139647267Y-53011532D01*
X139747006Y-53083996D01*
X139852484Y-53137740D01*
X139908360Y-53166211D01*
X139908363Y-53166212D01*
X139923303Y-53171066D01*
X140080591Y-53222171D01*
X140153639Y-53233740D01*
X140240678Y-53247527D01*
X140303813Y-53277456D01*
X140340744Y-53336768D01*
X140339746Y-53406631D01*
X140301136Y-53464863D01*
X140240678Y-53492473D01*
X140080589Y-53517829D01*
X139908363Y-53573787D01*
X139908360Y-53573788D01*
X139747002Y-53656006D01*
X139600505Y-53762441D01*
X139600500Y-53762445D01*
X139472445Y-53890500D01*
X139472441Y-53890505D01*
X139366006Y-54037002D01*
X139283788Y-54198360D01*
X139283787Y-54198363D01*
X139227829Y-54370589D01*
X139199500Y-54549448D01*
X139199500Y-54730551D01*
X139227829Y-54909410D01*
X139283787Y-55081636D01*
X139283788Y-55081639D01*
X139366006Y-55242997D01*
X139472441Y-55389494D01*
X139472445Y-55389499D01*
X139600500Y-55517554D01*
X139600505Y-55517558D01*
X139698415Y-55588693D01*
X139747006Y-55623996D01*
X139828352Y-55665444D01*
X139908360Y-55706211D01*
X139908363Y-55706212D01*
X139955441Y-55721508D01*
X140080591Y-55762171D01*
X140163429Y-55775291D01*
X140259449Y-55790500D01*
X140259454Y-55790500D01*
X140440551Y-55790500D01*
X140527259Y-55776765D01*
X140619409Y-55762171D01*
X140791639Y-55706211D01*
X140952994Y-55623996D01*
X141099501Y-55517553D01*
X141227553Y-55389501D01*
X141333996Y-55242994D01*
X141416211Y-55081639D01*
X141472171Y-54909409D01*
X141488620Y-54805555D01*
X141500500Y-54730551D01*
X141500500Y-54549448D01*
X141478376Y-54409767D01*
X141472171Y-54370591D01*
X141421693Y-54215232D01*
X141416212Y-54198363D01*
X141416211Y-54198360D01*
X141387740Y-54142484D01*
X141333996Y-54037006D01*
X141295154Y-53983544D01*
X141227558Y-53890505D01*
X141227554Y-53890500D01*
X141099499Y-53762445D01*
X141099494Y-53762441D01*
X140952997Y-53656006D01*
X140952996Y-53656005D01*
X140952994Y-53656004D01*
X140901300Y-53629664D01*
X140791639Y-53573788D01*
X140791636Y-53573787D01*
X140619410Y-53517829D01*
X140459321Y-53492473D01*
X140396186Y-53462544D01*
X140359255Y-53403232D01*
X140360253Y-53333370D01*
X140398863Y-53275137D01*
X140459321Y-53247527D01*
X140529425Y-53236422D01*
X140619409Y-53222171D01*
X140791639Y-53166211D01*
X140952994Y-53083996D01*
X141099501Y-52977553D01*
X141227553Y-52849501D01*
X141333996Y-52702994D01*
X141416211Y-52541639D01*
X141472171Y-52369409D01*
X141487669Y-52271558D01*
X141500500Y-52190551D01*
X141500500Y-52009448D01*
X141479847Y-51879055D01*
X141472171Y-51830591D01*
X141444191Y-51744476D01*
X141416212Y-51658363D01*
X141416211Y-51658360D01*
X141387740Y-51602484D01*
X141333996Y-51497006D01*
X141286251Y-51431290D01*
X141227558Y-51350505D01*
X141227554Y-51350500D01*
X141099499Y-51222445D01*
X141099494Y-51222441D01*
X140952997Y-51116006D01*
X140952996Y-51116005D01*
X140952994Y-51116004D01*
X140901300Y-51089664D01*
X140791639Y-51033788D01*
X140791636Y-51033787D01*
X140619410Y-50977829D01*
X140440551Y-50949500D01*
X140440546Y-50949500D01*
X140259454Y-50949500D01*
X140259449Y-50949500D01*
X140080589Y-50977829D01*
X139908363Y-51033787D01*
X139908360Y-51033788D01*
X139747002Y-51116006D01*
X139600505Y-51222441D01*
X139600500Y-51222445D01*
X139472445Y-51350500D01*
X139472441Y-51350505D01*
X139366006Y-51497002D01*
X139283788Y-51658360D01*
X139283787Y-51658363D01*
X139227829Y-51830589D01*
X139199500Y-52009448D01*
X137653881Y-52009448D01*
X137664877Y-51981564D01*
X137675500Y-51893102D01*
X137675500Y-51106898D01*
X137664877Y-51018436D01*
X137609361Y-50877658D01*
X137609360Y-50877657D01*
X137609360Y-50877656D01*
X137517922Y-50757077D01*
X137397343Y-50665639D01*
X137256561Y-50610122D01*
X137210926Y-50604642D01*
X137168102Y-50599500D01*
X135831898Y-50599500D01*
X135792853Y-50604188D01*
X135743438Y-50610122D01*
X135602656Y-50665639D01*
X135482077Y-50757077D01*
X135390639Y-50877656D01*
X135335122Y-51018438D01*
X135329188Y-51067853D01*
X135324500Y-51106898D01*
X130200500Y-51106898D01*
X130200500Y-46361153D01*
X151679500Y-46361153D01*
X151679500Y-47618846D01*
X151710261Y-47773489D01*
X151710264Y-47773501D01*
X151770602Y-47919172D01*
X151770609Y-47919185D01*
X151858210Y-48050288D01*
X151858213Y-48050292D01*
X151969707Y-48161786D01*
X151969711Y-48161789D01*
X152100814Y-48249390D01*
X152100827Y-48249397D01*
X152246498Y-48309735D01*
X152246503Y-48309737D01*
X152401153Y-48340499D01*
X152401156Y-48340500D01*
X152401158Y-48340500D01*
X152558844Y-48340500D01*
X152558845Y-48340499D01*
X152713497Y-48309737D01*
X152859179Y-48249394D01*
X152990289Y-48161789D01*
X153101789Y-48050289D01*
X153189394Y-47919179D01*
X153249737Y-47773497D01*
X153280500Y-47618842D01*
X153280500Y-46683448D01*
X153300185Y-46616409D01*
X153352989Y-46570654D01*
X153422147Y-46560710D01*
X153485703Y-46589735D01*
X153511887Y-46621448D01*
X153513496Y-46624236D01*
X153513497Y-46624237D01*
X153569515Y-46721263D01*
X153648737Y-46800485D01*
X153745763Y-46856503D01*
X153853982Y-46885500D01*
X153853984Y-46885500D01*
X153966016Y-46885500D01*
X153966018Y-46885500D01*
X154074237Y-46856503D01*
X154171263Y-46800485D01*
X154250485Y-46721263D01*
X154306503Y-46624237D01*
X154335500Y-46516018D01*
X154335500Y-46403982D01*
X159264500Y-46403982D01*
X159264500Y-46516018D01*
X159293497Y-46624237D01*
X159349515Y-46721263D01*
X159428737Y-46800485D01*
X159525763Y-46856503D01*
X159633982Y-46885500D01*
X159633984Y-46885500D01*
X159746016Y-46885500D01*
X159746018Y-46885500D01*
X159854237Y-46856503D01*
X159951263Y-46800485D01*
X160030485Y-46721263D01*
X160086503Y-46624237D01*
X160086503Y-46624236D01*
X160088113Y-46621448D01*
X160138680Y-46573232D01*
X160207287Y-46560009D01*
X160272152Y-46585977D01*
X160312680Y-46642891D01*
X160319500Y-46683448D01*
X160319500Y-47618846D01*
X160350261Y-47773489D01*
X160350264Y-47773501D01*
X160410602Y-47919172D01*
X160410609Y-47919185D01*
X160498210Y-48050288D01*
X160498213Y-48050292D01*
X160609707Y-48161786D01*
X160609711Y-48161789D01*
X160740814Y-48249390D01*
X160740827Y-48249397D01*
X160886498Y-48309735D01*
X160886503Y-48309737D01*
X161041153Y-48340499D01*
X161041156Y-48340500D01*
X161041158Y-48340500D01*
X161198844Y-48340500D01*
X161198845Y-48340499D01*
X161353497Y-48309737D01*
X161499179Y-48249394D01*
X161630289Y-48161789D01*
X161741789Y-48050289D01*
X161829394Y-47919179D01*
X161889737Y-47773497D01*
X161920500Y-47618842D01*
X161920500Y-46361158D01*
X161915273Y-46334879D01*
X161915273Y-46334876D01*
X161910764Y-46312210D01*
X189194500Y-46312210D01*
X189194500Y-50687789D01*
X189195124Y-50700500D01*
X189195970Y-50717731D01*
X189198349Y-50741889D01*
X189198354Y-50741931D01*
X189202749Y-50771564D01*
X189218391Y-50850209D01*
X189218392Y-50850210D01*
X189218393Y-50850215D01*
X189226717Y-50877656D01*
X189235779Y-50907530D01*
X189254287Y-50952212D01*
X189254288Y-50952215D01*
X189282520Y-51005033D01*
X189320147Y-51061345D01*
X189320157Y-51061359D01*
X189358149Y-51107652D01*
X189392345Y-51141848D01*
X189392350Y-51141852D01*
X189392352Y-51141854D01*
X189438647Y-51179847D01*
X189494963Y-51217476D01*
X189494967Y-51217478D01*
X189494975Y-51217483D01*
X189547776Y-51245705D01*
X189547782Y-51245708D01*
X189592480Y-51264222D01*
X189649787Y-51281606D01*
X189728420Y-51297247D01*
X189728435Y-51297249D01*
X189728444Y-51297251D01*
X189746144Y-51299875D01*
X189758071Y-51301645D01*
X189782262Y-51304028D01*
X189812211Y-51305500D01*
X198322097Y-51305500D01*
X198389136Y-51325185D01*
X198409777Y-51341818D01*
X199687474Y-52619516D01*
X199709685Y-52639647D01*
X199728475Y-52655068D01*
X199752558Y-52672930D01*
X199819224Y-52717475D01*
X199872043Y-52745707D01*
X199916743Y-52764222D01*
X199974051Y-52781606D01*
X199974054Y-52781606D01*
X199974055Y-52781607D01*
X199990485Y-52784875D01*
X200052684Y-52797247D01*
X200052699Y-52797249D01*
X200052708Y-52797251D01*
X200070408Y-52799875D01*
X200082335Y-52801645D01*
X200106526Y-52804028D01*
X200136475Y-52805500D01*
X200136488Y-52805500D01*
X207187776Y-52805500D01*
X207187789Y-52805500D01*
X207217738Y-52804028D01*
X207241929Y-52801645D01*
X207271581Y-52797247D01*
X207350213Y-52781606D01*
X207407517Y-52764223D01*
X207452216Y-52745709D01*
X207505036Y-52717477D01*
X207561348Y-52679851D01*
X207607644Y-52641857D01*
X207641857Y-52607644D01*
X207679851Y-52561348D01*
X207717477Y-52505036D01*
X207739047Y-52467157D01*
X207754279Y-52435319D01*
X207761552Y-52418893D01*
X207762045Y-52416488D01*
X207764839Y-52405481D01*
X207781606Y-52350213D01*
X207797247Y-52271581D01*
X207801645Y-52241929D01*
X207804028Y-52217738D01*
X207805500Y-52187789D01*
X207805500Y-49081902D01*
X209999500Y-49081902D01*
X209999500Y-49318097D01*
X210036446Y-49551368D01*
X210109433Y-49775996D01*
X210216657Y-49986433D01*
X210355483Y-50177510D01*
X210522490Y-50344517D01*
X210713567Y-50483343D01*
X210812991Y-50534002D01*
X210924003Y-50590566D01*
X210924005Y-50590566D01*
X210924008Y-50590568D01*
X210984189Y-50610122D01*
X211148631Y-50663553D01*
X211381903Y-50700500D01*
X211381908Y-50700500D01*
X211618097Y-50700500D01*
X211851368Y-50663553D01*
X212075992Y-50590568D01*
X212286433Y-50483343D01*
X212477510Y-50344517D01*
X212644517Y-50177510D01*
X212783343Y-49986433D01*
X212890568Y-49775992D01*
X212963553Y-49551368D01*
X213000500Y-49318097D01*
X213000500Y-49081902D01*
X212963553Y-48848631D01*
X212890566Y-48624003D01*
X212783342Y-48413566D01*
X212644517Y-48222490D01*
X212477510Y-48055483D01*
X212286433Y-47916657D01*
X212075996Y-47809433D01*
X211851368Y-47736446D01*
X211618097Y-47699500D01*
X211618092Y-47699500D01*
X211381908Y-47699500D01*
X211381903Y-47699500D01*
X211148631Y-47736446D01*
X210924003Y-47809433D01*
X210713566Y-47916657D01*
X210604550Y-47995862D01*
X210522490Y-48055483D01*
X210522488Y-48055485D01*
X210522487Y-48055485D01*
X210355485Y-48222487D01*
X210355485Y-48222488D01*
X210355483Y-48222490D01*
X210335939Y-48249390D01*
X210216657Y-48413566D01*
X210109433Y-48624003D01*
X210036446Y-48848631D01*
X209999500Y-49081902D01*
X207805500Y-49081902D01*
X207805500Y-46312210D01*
X207804028Y-46282261D01*
X207801645Y-46258070D01*
X207797247Y-46228418D01*
X207781606Y-46149786D01*
X207764223Y-46092482D01*
X207764219Y-46092472D01*
X207764219Y-46092471D01*
X207745711Y-46047789D01*
X207745710Y-46047786D01*
X207745709Y-46047783D01*
X207745705Y-46047775D01*
X207717478Y-45994964D01*
X207717476Y-45994961D01*
X207679846Y-45938644D01*
X207653105Y-45904221D01*
X207653099Y-45904214D01*
X207653094Y-45904208D01*
X207629538Y-45877984D01*
X207629524Y-45877969D01*
X207617144Y-45864976D01*
X207615135Y-45863615D01*
X207606018Y-45856808D01*
X207561359Y-45820157D01*
X207561355Y-45820154D01*
X207561354Y-45820153D01*
X207505036Y-45782522D01*
X207505035Y-45782521D01*
X207505033Y-45782520D01*
X207460049Y-45758475D01*
X207452217Y-45754289D01*
X207442091Y-45750095D01*
X207407530Y-45735779D01*
X207407520Y-45735776D01*
X207350215Y-45718393D01*
X207350210Y-45718392D01*
X207350209Y-45718391D01*
X207271564Y-45702749D01*
X207241931Y-45698354D01*
X207241889Y-45698349D01*
X207217731Y-45695970D01*
X207206082Y-45695398D01*
X207187789Y-45694500D01*
X189812211Y-45694500D01*
X189794880Y-45695351D01*
X189782269Y-45695970D01*
X189758116Y-45698348D01*
X189758099Y-45698350D01*
X189758094Y-45698351D01*
X189748103Y-45699832D01*
X189728439Y-45702749D01*
X189649783Y-45718394D01*
X189649781Y-45718394D01*
X189592480Y-45735776D01*
X189592467Y-45735781D01*
X189547796Y-45754283D01*
X189547777Y-45754292D01*
X189494969Y-45782517D01*
X189438642Y-45820154D01*
X189438638Y-45820158D01*
X189392343Y-45858151D01*
X189358151Y-45892343D01*
X189320158Y-45938638D01*
X189320154Y-45938642D01*
X189282517Y-45994969D01*
X189254292Y-46047777D01*
X189254283Y-46047796D01*
X189235779Y-46092470D01*
X189218394Y-46149785D01*
X189218393Y-46149786D01*
X189202746Y-46228456D01*
X189198353Y-46258078D01*
X189198348Y-46258119D01*
X189195971Y-46282256D01*
X189195971Y-46282261D01*
X189195970Y-46282273D01*
X189194500Y-46312210D01*
X161910764Y-46312210D01*
X161889738Y-46206508D01*
X161889737Y-46206507D01*
X161889737Y-46206503D01*
X161889735Y-46206498D01*
X161829397Y-46060827D01*
X161829390Y-46060814D01*
X161741789Y-45929711D01*
X161741786Y-45929707D01*
X161630292Y-45818213D01*
X161630288Y-45818210D01*
X161499185Y-45730609D01*
X161499172Y-45730602D01*
X161353501Y-45670264D01*
X161353489Y-45670261D01*
X161198845Y-45639500D01*
X161198842Y-45639500D01*
X161041158Y-45639500D01*
X161041155Y-45639500D01*
X160886510Y-45670261D01*
X160886498Y-45670264D01*
X160740827Y-45730602D01*
X160740814Y-45730609D01*
X160609711Y-45818210D01*
X160609707Y-45818213D01*
X160498213Y-45929707D01*
X160498210Y-45929711D01*
X160410609Y-46060814D01*
X160410602Y-46060827D01*
X160350264Y-46206498D01*
X160350261Y-46206508D01*
X160331444Y-46301109D01*
X160299059Y-46363020D01*
X160238343Y-46397594D01*
X160168574Y-46393854D01*
X160111902Y-46352987D01*
X160090052Y-46309010D01*
X160087935Y-46301109D01*
X160086503Y-46295763D01*
X160030485Y-46198737D01*
X159951263Y-46119515D01*
X159854237Y-46063497D01*
X159746018Y-46034500D01*
X159633982Y-46034500D01*
X159525763Y-46063497D01*
X159525760Y-46063498D01*
X159428740Y-46119513D01*
X159428734Y-46119517D01*
X159349517Y-46198734D01*
X159349513Y-46198740D01*
X159293498Y-46295760D01*
X159293497Y-46295763D01*
X159264500Y-46403982D01*
X154335500Y-46403982D01*
X154306503Y-46295763D01*
X154250485Y-46198737D01*
X154171263Y-46119515D01*
X154074237Y-46063497D01*
X153966018Y-46034500D01*
X153853982Y-46034500D01*
X153745763Y-46063497D01*
X153745760Y-46063498D01*
X153648740Y-46119513D01*
X153648734Y-46119517D01*
X153569517Y-46198734D01*
X153569513Y-46198740D01*
X153513498Y-46295760D01*
X153513497Y-46295763D01*
X153509946Y-46309015D01*
X153473579Y-46368674D01*
X153410731Y-46399201D01*
X153341355Y-46390904D01*
X153287479Y-46346416D01*
X153268555Y-46301109D01*
X153249737Y-46206503D01*
X153249735Y-46206498D01*
X153189397Y-46060827D01*
X153189390Y-46060814D01*
X153101789Y-45929711D01*
X153101786Y-45929707D01*
X152990292Y-45818213D01*
X152990288Y-45818210D01*
X152859185Y-45730609D01*
X152859172Y-45730602D01*
X152713501Y-45670264D01*
X152713489Y-45670261D01*
X152558845Y-45639500D01*
X152558842Y-45639500D01*
X152401158Y-45639500D01*
X152401155Y-45639500D01*
X152246510Y-45670261D01*
X152246498Y-45670264D01*
X152100827Y-45730602D01*
X152100814Y-45730609D01*
X151969711Y-45818210D01*
X151969707Y-45818213D01*
X151858213Y-45929707D01*
X151858210Y-45929711D01*
X151770609Y-46060814D01*
X151770602Y-46060827D01*
X151710264Y-46206498D01*
X151710261Y-46206510D01*
X151679500Y-46361153D01*
X130200500Y-46361153D01*
X130200500Y-44502869D01*
X130200632Y-44497144D01*
X130202344Y-44460118D01*
X130205653Y-44388549D01*
X132799500Y-44388549D01*
X132799500Y-44611450D01*
X132799501Y-44611466D01*
X132828594Y-44832452D01*
X132828595Y-44832457D01*
X132828596Y-44832463D01*
X132828597Y-44832465D01*
X132886290Y-45047780D01*
X132886293Y-45047790D01*
X132971593Y-45253722D01*
X132971595Y-45253726D01*
X133083052Y-45446774D01*
X133083057Y-45446780D01*
X133083058Y-45446782D01*
X133218751Y-45623622D01*
X133218757Y-45623629D01*
X133376370Y-45781242D01*
X133376377Y-45781248D01*
X133427081Y-45820154D01*
X133553226Y-45916948D01*
X133746274Y-46028405D01*
X133952219Y-46113710D01*
X134167537Y-46171404D01*
X134388543Y-46200500D01*
X134388550Y-46200500D01*
X134611450Y-46200500D01*
X134611457Y-46200500D01*
X134832463Y-46171404D01*
X135047781Y-46113710D01*
X135253726Y-46028405D01*
X135446774Y-45916948D01*
X135623624Y-45781247D01*
X135781247Y-45623624D01*
X135916948Y-45446774D01*
X136028405Y-45253726D01*
X136113710Y-45047781D01*
X136171404Y-44832463D01*
X136200500Y-44611457D01*
X136200500Y-44388549D01*
X213799500Y-44388549D01*
X213799500Y-44611450D01*
X213799501Y-44611466D01*
X213828594Y-44832452D01*
X213828595Y-44832457D01*
X213828596Y-44832463D01*
X213828597Y-44832465D01*
X213886290Y-45047780D01*
X213886293Y-45047790D01*
X213971593Y-45253722D01*
X213971595Y-45253726D01*
X214083052Y-45446774D01*
X214083057Y-45446780D01*
X214083058Y-45446782D01*
X214218751Y-45623622D01*
X214218757Y-45623629D01*
X214376370Y-45781242D01*
X214376377Y-45781248D01*
X214427081Y-45820154D01*
X214553226Y-45916948D01*
X214746274Y-46028405D01*
X214952219Y-46113710D01*
X215167537Y-46171404D01*
X215388543Y-46200500D01*
X215388550Y-46200500D01*
X215611450Y-46200500D01*
X215611457Y-46200500D01*
X215832463Y-46171404D01*
X216047781Y-46113710D01*
X216253726Y-46028405D01*
X216446774Y-45916948D01*
X216623624Y-45781247D01*
X216781247Y-45623624D01*
X216916948Y-45446774D01*
X217028405Y-45253726D01*
X217113710Y-45047781D01*
X217171404Y-44832463D01*
X217200500Y-44611457D01*
X217200500Y-44388543D01*
X217171404Y-44167537D01*
X217113710Y-43952219D01*
X217096429Y-43910500D01*
X217058692Y-43819394D01*
X217028405Y-43746274D01*
X216916948Y-43553226D01*
X216781247Y-43376376D01*
X216781242Y-43376370D01*
X216623629Y-43218757D01*
X216623622Y-43218751D01*
X216446782Y-43083058D01*
X216446780Y-43083057D01*
X216446774Y-43083052D01*
X216253726Y-42971595D01*
X216253722Y-42971593D01*
X216047790Y-42886293D01*
X216047783Y-42886291D01*
X216047781Y-42886290D01*
X215832463Y-42828596D01*
X215832457Y-42828595D01*
X215832452Y-42828594D01*
X215611466Y-42799501D01*
X215611463Y-42799500D01*
X215611457Y-42799500D01*
X215388543Y-42799500D01*
X215388537Y-42799500D01*
X215388533Y-42799501D01*
X215167547Y-42828594D01*
X215167540Y-42828595D01*
X215167537Y-42828596D01*
X214952219Y-42886290D01*
X214952209Y-42886293D01*
X214746277Y-42971593D01*
X214746273Y-42971595D01*
X214553226Y-43083052D01*
X214553217Y-43083058D01*
X214376377Y-43218751D01*
X214376370Y-43218757D01*
X214218757Y-43376370D01*
X214218751Y-43376377D01*
X214083058Y-43553217D01*
X214083052Y-43553226D01*
X213971595Y-43746273D01*
X213971593Y-43746277D01*
X213886293Y-43952209D01*
X213886290Y-43952219D01*
X213828597Y-44167534D01*
X213828594Y-44167547D01*
X213799501Y-44388533D01*
X213799500Y-44388549D01*
X136200500Y-44388549D01*
X136200500Y-44388543D01*
X136171404Y-44167537D01*
X136113710Y-43952219D01*
X136096429Y-43910500D01*
X136058692Y-43819394D01*
X136028405Y-43746274D01*
X135916948Y-43553226D01*
X135781247Y-43376376D01*
X135781242Y-43376370D01*
X135623629Y-43218757D01*
X135623622Y-43218751D01*
X135446782Y-43083058D01*
X135446780Y-43083057D01*
X135446774Y-43083052D01*
X135253726Y-42971595D01*
X135253722Y-42971593D01*
X135047790Y-42886293D01*
X135047783Y-42886291D01*
X135047781Y-42886290D01*
X134832463Y-42828596D01*
X134832457Y-42828595D01*
X134832452Y-42828594D01*
X134611466Y-42799501D01*
X134611463Y-42799500D01*
X134611457Y-42799500D01*
X134388543Y-42799500D01*
X134388537Y-42799500D01*
X134388533Y-42799501D01*
X134167547Y-42828594D01*
X134167540Y-42828595D01*
X134167537Y-42828596D01*
X133952219Y-42886290D01*
X133952209Y-42886293D01*
X133746277Y-42971593D01*
X133746273Y-42971595D01*
X133553226Y-43083052D01*
X133553217Y-43083058D01*
X133376377Y-43218751D01*
X133376370Y-43218757D01*
X133218757Y-43376370D01*
X133218751Y-43376377D01*
X133083058Y-43553217D01*
X133083052Y-43553226D01*
X132971595Y-43746273D01*
X132971593Y-43746277D01*
X132886293Y-43952209D01*
X132886290Y-43952219D01*
X132828597Y-44167534D01*
X132828594Y-44167547D01*
X132799501Y-44388533D01*
X132799500Y-44388549D01*
X130205653Y-44388549D01*
X130218576Y-44109006D01*
X130219633Y-44097611D01*
X130272917Y-43715632D01*
X130275017Y-43704396D01*
X130363322Y-43328951D01*
X130366445Y-43317971D01*
X130489019Y-42952260D01*
X130493150Y-42941600D01*
X130648932Y-42588787D01*
X130654030Y-42578547D01*
X130736128Y-42431153D01*
X151679500Y-42431153D01*
X151679500Y-43188846D01*
X151710261Y-43343489D01*
X151710264Y-43343501D01*
X151770602Y-43489172D01*
X151770609Y-43489185D01*
X151858210Y-43620288D01*
X151858213Y-43620292D01*
X151969707Y-43731786D01*
X151969711Y-43731789D01*
X152100814Y-43819390D01*
X152100827Y-43819397D01*
X152246498Y-43879735D01*
X152246503Y-43879737D01*
X152401153Y-43910499D01*
X152401156Y-43910500D01*
X152401158Y-43910500D01*
X152558844Y-43910500D01*
X152558845Y-43910499D01*
X152713497Y-43879737D01*
X152859179Y-43819394D01*
X152990289Y-43731789D01*
X153101789Y-43620289D01*
X153189394Y-43489179D01*
X153249737Y-43343497D01*
X153280500Y-43188842D01*
X153280500Y-42431158D01*
X153280500Y-42431155D01*
X153280499Y-42431153D01*
X160319500Y-42431153D01*
X160319500Y-43188846D01*
X160350261Y-43343489D01*
X160350264Y-43343501D01*
X160410602Y-43489172D01*
X160410609Y-43489185D01*
X160498210Y-43620288D01*
X160498213Y-43620292D01*
X160609707Y-43731786D01*
X160609711Y-43731789D01*
X160740814Y-43819390D01*
X160740827Y-43819397D01*
X160886498Y-43879735D01*
X160886503Y-43879737D01*
X161041153Y-43910499D01*
X161041156Y-43910500D01*
X161041158Y-43910500D01*
X161198844Y-43910500D01*
X161198845Y-43910499D01*
X161353497Y-43879737D01*
X161499179Y-43819394D01*
X161630289Y-43731789D01*
X161741789Y-43620289D01*
X161829394Y-43489179D01*
X161889737Y-43343497D01*
X161920500Y-43188842D01*
X161920500Y-42431158D01*
X161920500Y-42431155D01*
X161920499Y-42431153D01*
X161907286Y-42364727D01*
X161889737Y-42276503D01*
X161871253Y-42231879D01*
X161829397Y-42130827D01*
X161829390Y-42130814D01*
X161741789Y-41999711D01*
X161741786Y-41999707D01*
X161630292Y-41888213D01*
X161630288Y-41888210D01*
X161499185Y-41800609D01*
X161499172Y-41800602D01*
X161353501Y-41740264D01*
X161353489Y-41740261D01*
X161198845Y-41709500D01*
X161198842Y-41709500D01*
X161041158Y-41709500D01*
X161041155Y-41709500D01*
X160886510Y-41740261D01*
X160886498Y-41740264D01*
X160740827Y-41800602D01*
X160740814Y-41800609D01*
X160609711Y-41888210D01*
X160609707Y-41888213D01*
X160498213Y-41999707D01*
X160498210Y-41999711D01*
X160410609Y-42130814D01*
X160410602Y-42130827D01*
X160350264Y-42276498D01*
X160350261Y-42276510D01*
X160319500Y-42431153D01*
X153280499Y-42431153D01*
X153267286Y-42364727D01*
X153249737Y-42276503D01*
X153231253Y-42231879D01*
X153189397Y-42130827D01*
X153189390Y-42130814D01*
X153101789Y-41999711D01*
X153101786Y-41999707D01*
X152990292Y-41888213D01*
X152990288Y-41888210D01*
X152859185Y-41800609D01*
X152859172Y-41800602D01*
X152713501Y-41740264D01*
X152713489Y-41740261D01*
X152558845Y-41709500D01*
X152558842Y-41709500D01*
X152401158Y-41709500D01*
X152401155Y-41709500D01*
X152246510Y-41740261D01*
X152246498Y-41740264D01*
X152100827Y-41800602D01*
X152100814Y-41800609D01*
X151969711Y-41888210D01*
X151969707Y-41888213D01*
X151858213Y-41999707D01*
X151858210Y-41999711D01*
X151770609Y-42130814D01*
X151770602Y-42130827D01*
X151710264Y-42276498D01*
X151710261Y-42276510D01*
X151679500Y-42431153D01*
X130736128Y-42431153D01*
X130841702Y-42241611D01*
X130847728Y-42231879D01*
X131065698Y-41913682D01*
X131072580Y-41904569D01*
X131318978Y-41607843D01*
X131326673Y-41599403D01*
X131599403Y-41326673D01*
X131607843Y-41318978D01*
X131904569Y-41072580D01*
X131913682Y-41065698D01*
X132231884Y-40847724D01*
X132241611Y-40841702D01*
X132578547Y-40654030D01*
X132588787Y-40648932D01*
X132941600Y-40493150D01*
X132952260Y-40489019D01*
X133317971Y-40366445D01*
X133328951Y-40363322D01*
X133704396Y-40275017D01*
X133715632Y-40272917D01*
X134097620Y-40219632D01*
X134109006Y-40218576D01*
X134497145Y-40200632D01*
X134502872Y-40200500D01*
X134539882Y-40200500D01*
X215460118Y-40200500D01*
X215497128Y-40200500D01*
X215502855Y-40200632D01*
G37*
%TD.AperFunction*%
%TD*%
M02*
