%TF.GenerationSoftware,KiCad,Pcbnew,9.0.2*%
%TF.CreationDate,2025-12-08T13:49:20-08:00*%
%TF.ProjectId,BLV_PCB,424c565f-5043-4422-9e6b-696361645f70,rev?*%
%TF.SameCoordinates,Original*%
%TF.FileFunction,Soldermask,Top*%
%TF.FilePolarity,Negative*%
%FSLAX46Y46*%
G04 Gerber Fmt 4.6, Leading zero omitted, Abs format (unit mm)*
G04 Created by KiCad (PCBNEW 9.0.2) date 2025-12-08 13:49:20*
%MOMM*%
%LPD*%
G01*
G04 APERTURE LIST*
G04 Aperture macros list*
%AMRoundRect*
0 Rectangle with rounded corners*
0 $1 Rounding radius*
0 $2 $3 $4 $5 $6 $7 $8 $9 X,Y pos of 4 corners*
0 Add a 4 corners polygon primitive as box body*
4,1,4,$2,$3,$4,$5,$6,$7,$8,$9,$2,$3,0*
0 Add four circle primitives for the rounded corners*
1,1,$1+$1,$2,$3*
1,1,$1+$1,$4,$5*
1,1,$1+$1,$6,$7*
1,1,$1+$1,$8,$9*
0 Add four rect primitives between the rounded corners*
20,1,$1+$1,$2,$3,$4,$5,0*
20,1,$1+$1,$4,$5,$6,$7,0*
20,1,$1+$1,$6,$7,$8,$9,0*
20,1,$1+$1,$8,$9,$2,$3,0*%
%AMFreePoly0*
4,1,57,-0.066221,1.780902,-0.029894,1.730902,-0.025000,1.700000,-0.025000,1.300000,0.025000,1.300000,0.025000,1.700000,0.044098,1.758779,0.094098,1.795106,0.125000,1.800000,0.375000,1.800000,0.433779,1.780902,0.470106,1.730902,0.475000,1.700000,0.475000,1.300000,0.825000,1.300000,0.883779,1.280902,0.920106,1.230902,0.925000,1.200000,0.925000,-1.200000,0.905902,-1.258779,
0.855902,-1.295106,0.825000,-1.300000,0.475000,-1.300000,0.475000,-1.700000,0.455902,-1.758779,0.405902,-1.795106,0.375000,-1.800000,0.125000,-1.800000,0.066221,-1.780902,0.029894,-1.730902,0.025000,-1.700000,0.025000,-1.300000,-0.025000,-1.300000,-0.025000,-1.700000,-0.044098,-1.758779,-0.094098,-1.795106,-0.125000,-1.800000,-0.375000,-1.800000,-0.433779,-1.780902,-0.470106,-1.730902,
-0.475000,-1.700000,-0.475000,-1.300000,-0.825000,-1.300000,-0.883779,-1.280902,-0.920106,-1.230902,-0.925000,-1.200000,-0.925000,1.200000,-0.905902,1.258779,-0.855902,1.295106,-0.825000,1.300000,-0.475000,1.300000,-0.475000,1.700000,-0.455902,1.758779,-0.405902,1.795106,-0.375000,1.800000,-0.125000,1.800000,-0.066221,1.780902,-0.066221,1.780902,$1*%
G04 Aperture macros list end*
%ADD10C,2.550000*%
%ADD11RoundRect,0.100000X-2.000000X-0.650000X2.000000X-0.650000X2.000000X0.650000X-2.000000X0.650000X0*%
%ADD12RoundRect,0.250000X0.750000X0.250000X-0.750000X0.250000X-0.750000X-0.250000X0.750000X-0.250000X0*%
%ADD13RoundRect,0.250000X0.325000X-0.250000X0.325000X0.250000X-0.325000X0.250000X-0.325000X-0.250000X0*%
%ADD14C,3.400000*%
%ADD15RoundRect,0.190000X-0.190000X-0.220000X0.190000X-0.220000X0.190000X0.220000X-0.190000X0.220000X0*%
%ADD16RoundRect,0.275000X-0.275000X-0.300000X0.275000X-0.300000X0.275000X0.300000X-0.275000X0.300000X0*%
%ADD17RoundRect,0.190000X0.190000X0.220000X-0.190000X0.220000X-0.190000X-0.220000X0.190000X-0.220000X0*%
%ADD18RoundRect,0.190000X-0.220000X0.190000X-0.220000X-0.190000X0.220000X-0.190000X0.220000X0.190000X0*%
%ADD19RoundRect,0.100000X-0.850000X0.450000X-0.850000X-0.450000X0.850000X-0.450000X0.850000X0.450000X0*%
%ADD20RoundRect,0.100000X0.750000X-0.400000X0.750000X0.400000X-0.750000X0.400000X-0.750000X-0.400000X0*%
%ADD21RoundRect,0.100000X1.000000X-0.725000X1.000000X0.725000X-1.000000X0.725000X-1.000000X-0.725000X0*%
%ADD22RoundRect,0.291666X-0.683334X0.408334X-0.683334X-0.408334X0.683334X-0.408334X0.683334X0.408334X0*%
%ADD23O,1.950000X1.400000*%
%ADD24RoundRect,0.275000X0.275000X0.300000X-0.275000X0.300000X-0.275000X-0.300000X0.275000X-0.300000X0*%
%ADD25RoundRect,0.185000X0.185000X0.235000X-0.185000X0.235000X-0.185000X-0.235000X0.185000X-0.235000X0*%
%ADD26RoundRect,0.293750X-0.293750X-0.506250X0.293750X-0.506250X0.293750X0.506250X-0.293750X0.506250X0*%
%ADD27RoundRect,0.100000X-0.450000X-0.850000X0.450000X-0.850000X0.450000X0.850000X-0.450000X0.850000X0*%
%ADD28RoundRect,0.100000X1.250000X0.850000X-1.250000X0.850000X-1.250000X-0.850000X1.250000X-0.850000X0*%
%ADD29RoundRect,0.100000X-1.250000X-0.850000X1.250000X-0.850000X1.250000X0.850000X-1.250000X0.850000X0*%
%ADD30RoundRect,0.100000X0.850000X-1.250000X0.850000X1.250000X-0.850000X1.250000X-0.850000X-1.250000X0*%
%ADD31RoundRect,0.185000X-0.185000X-0.235000X0.185000X-0.235000X0.185000X0.235000X-0.185000X0.235000X0*%
%ADD32RoundRect,0.100000X0.850000X0.850000X-0.850000X0.850000X-0.850000X-0.850000X0.850000X-0.850000X0*%
%ADD33C,1.900000*%
%ADD34RoundRect,0.185000X-0.235000X0.185000X-0.235000X-0.185000X0.235000X-0.185000X0.235000X0.185000X0*%
%ADD35RoundRect,0.185000X0.235000X-0.185000X0.235000X0.185000X-0.235000X0.185000X-0.235000X-0.185000X0*%
%ADD36RoundRect,0.190000X0.220000X-0.190000X0.220000X0.190000X-0.220000X0.190000X-0.220000X-0.190000X0*%
%ADD37RoundRect,0.200000X0.200000X-0.637500X0.200000X0.637500X-0.200000X0.637500X-0.200000X-0.637500X0*%
%ADD38C,1.200000*%
%ADD39RoundRect,0.250000X0.250000X0.325000X-0.250000X0.325000X-0.250000X-0.325000X0.250000X-0.325000X0*%
%ADD40RoundRect,0.100000X-0.400000X-0.100000X0.400000X-0.100000X0.400000X0.100000X-0.400000X0.100000X0*%
%ADD41RoundRect,0.100000X-0.100000X-0.400000X0.100000X-0.400000X0.100000X0.400000X-0.100000X0.400000X0*%
%ADD42RoundRect,0.100000X-1.700000X-1.700000X1.700000X-1.700000X1.700000X1.700000X-1.700000X1.700000X0*%
%ADD43C,0.850000*%
%ADD44RoundRect,0.100000X-0.300000X-0.725000X0.300000X-0.725000X0.300000X0.725000X-0.300000X0.725000X0*%
%ADD45RoundRect,0.100000X-0.150000X-0.725000X0.150000X-0.725000X0.150000X0.725000X-0.150000X0.725000X0*%
%ADD46O,1.200000X2.300000*%
%ADD47O,1.200000X1.800000*%
%ADD48RoundRect,0.212500X-0.700000X-0.212500X0.700000X-0.212500X0.700000X0.212500X-0.700000X0.212500X0*%
%ADD49RoundRect,0.200000X-0.200000X0.637500X-0.200000X-0.637500X0.200000X-0.637500X0.200000X0.637500X0*%
%ADD50C,3.500000*%
%ADD51C,2.600000*%
%ADD52O,3.700000X2.700000*%
%ADD53RoundRect,0.100000X-0.350000X-0.850000X0.350000X-0.850000X0.350000X0.850000X-0.350000X0.850000X0*%
%ADD54RoundRect,0.291666X-0.508334X-0.408334X0.508334X-0.408334X0.508334X0.408334X-0.508334X0.408334X0*%
%ADD55RoundRect,0.100000X0.300000X0.725000X-0.300000X0.725000X-0.300000X-0.725000X0.300000X-0.725000X0*%
%ADD56RoundRect,0.100000X0.150000X0.725000X-0.150000X0.725000X-0.150000X-0.725000X0.150000X-0.725000X0*%
%ADD57RoundRect,0.110000X0.290000X0.110000X-0.290000X0.110000X-0.290000X-0.110000X0.290000X-0.110000X0*%
%ADD58FreePoly0,180.000000*%
%ADD59RoundRect,0.100000X0.850000X-0.850000X0.850000X0.850000X-0.850000X0.850000X-0.850000X-0.850000X0*%
%ADD60RoundRect,0.300000X0.300000X0.525000X-0.300000X0.525000X-0.300000X-0.525000X0.300000X-0.525000X0*%
%ADD61RoundRect,0.293750X-0.506250X0.293750X-0.506250X-0.293750X0.506250X-0.293750X0.506250X0.293750X0*%
%ADD62C,2.250000*%
%ADD63C,2.450000*%
G04 APERTURE END LIST*
D10*
X216775000Y-44500000D02*
G75*
G02*
X214225000Y-44500000I-1275000J0D01*
G01*
X214225000Y-44500000D02*
G75*
G02*
X216775000Y-44500000I1275000J0D01*
G01*
X216775000Y-125500000D02*
G75*
G02*
X214225000Y-125500000I-1275000J0D01*
G01*
X214225000Y-125500000D02*
G75*
G02*
X216775000Y-125500000I1275000J0D01*
G01*
X135775000Y-44500000D02*
G75*
G02*
X133225000Y-44500000I-1275000J0D01*
G01*
X133225000Y-44500000D02*
G75*
G02*
X135775000Y-44500000I1275000J0D01*
G01*
X135775000Y-125500000D02*
G75*
G02*
X133225000Y-125500000I-1275000J0D01*
G01*
X133225000Y-125500000D02*
G75*
G02*
X135775000Y-125500000I1275000J0D01*
G01*
D11*
%TO.C,L2*%
X179900000Y-55700000D03*
X179900000Y-58400000D03*
%TD*%
D12*
%TO.C,U6*%
X164800000Y-124650000D03*
X164800000Y-123550000D03*
X164800000Y-122450000D03*
X164800000Y-121350000D03*
X164800000Y-120250000D03*
X164800000Y-119150000D03*
X164800000Y-118050000D03*
X164800000Y-115050000D03*
X164800000Y-113950000D03*
X164800000Y-112850000D03*
X164800000Y-111750000D03*
X164800000Y-110650000D03*
X152800000Y-110650000D03*
X152800000Y-111750000D03*
X152800000Y-112850000D03*
X152800000Y-113950000D03*
X152800000Y-115050000D03*
X152800000Y-118050000D03*
X152800000Y-119150000D03*
X152800000Y-120250000D03*
X152800000Y-121350000D03*
X152800000Y-122450000D03*
X152800000Y-123550000D03*
X152800000Y-124650000D03*
%TD*%
D13*
%TO.C,R11*%
X184500000Y-60325000D03*
X184500000Y-58675000D03*
%TD*%
D14*
%TO.C,H4*%
X134500000Y-125500000D03*
%TD*%
D15*
%TO.C,C1*%
X154595000Y-80050000D03*
X155555000Y-80050000D03*
%TD*%
D16*
%TO.C,C5*%
X158625000Y-63940000D03*
X160175000Y-63940000D03*
%TD*%
D15*
%TO.C,C14*%
X162995000Y-71400000D03*
X163955000Y-71400000D03*
%TD*%
D14*
%TO.C,H3*%
X215500000Y-125500000D03*
%TD*%
D17*
%TO.C,C6*%
X151755000Y-70000000D03*
X150795000Y-70000000D03*
%TD*%
D18*
%TO.C,C12*%
X155575000Y-76520000D03*
X155575000Y-77480000D03*
%TD*%
%TO.C,C20*%
X172100000Y-56900000D03*
X172100000Y-57860000D03*
%TD*%
D14*
%TO.C,H2*%
X215500000Y-44500000D03*
%TD*%
D19*
%TO.C,SW1*%
X147000000Y-46600000D03*
X147000000Y-50000000D03*
%TD*%
D20*
%TO.C,J11*%
X136500000Y-106575000D03*
X136500000Y-105475000D03*
X136500000Y-104375000D03*
X136500000Y-103275000D03*
X136500000Y-102175000D03*
X136500000Y-101075000D03*
X136500000Y-99975000D03*
X136500000Y-98875000D03*
D21*
X133900000Y-110250000D03*
X142200000Y-110250000D03*
X133900000Y-96500000D03*
X142200000Y-96500000D03*
%TD*%
D22*
%TO.C,J3*%
X136500000Y-82000000D03*
D23*
X136500000Y-84000000D03*
X136500000Y-86000000D03*
X136500000Y-88000000D03*
%TD*%
D22*
%TO.C,J2*%
X136500000Y-66740000D03*
D23*
X136500000Y-68740000D03*
X136500000Y-70740000D03*
X136500000Y-72740000D03*
%TD*%
D24*
%TO.C,C19*%
X176675000Y-53050000D03*
X175125000Y-53050000D03*
%TD*%
D18*
%TO.C,C7*%
X158075000Y-77140000D03*
X158075000Y-78100000D03*
%TD*%
D25*
%TO.C,R23*%
X183510000Y-110000000D03*
X182490000Y-110000000D03*
%TD*%
D26*
%TO.C,D2*%
X134125000Y-76700000D03*
X136000000Y-76700000D03*
%TD*%
D27*
%TO.C,SW2*%
X156800000Y-95800000D03*
X160200000Y-95800000D03*
%TD*%
D28*
%TO.C,U5*%
X191008225Y-101264000D03*
X191008225Y-98724000D03*
X191008225Y-96184000D03*
D29*
X191008225Y-88614000D03*
X191008225Y-86074000D03*
X191008225Y-83534000D03*
X191008225Y-80994000D03*
X191008225Y-78454000D03*
X191008225Y-75914000D03*
X191008225Y-73374000D03*
X191008225Y-70834000D03*
D30*
X185458225Y-68324000D03*
X182918225Y-68324000D03*
X180378225Y-68324000D03*
X177838225Y-68324000D03*
X175298225Y-68324000D03*
X172758225Y-68324000D03*
D29*
X167208225Y-70834000D03*
X167208225Y-73374000D03*
X167208225Y-75914000D03*
X167208225Y-78454000D03*
X167208225Y-80994000D03*
X167208225Y-83534000D03*
X167208225Y-86074000D03*
X167208225Y-88614000D03*
D28*
X167208225Y-96184000D03*
X167208225Y-98724000D03*
X167208225Y-101264000D03*
%TD*%
D25*
%TO.C,R7*%
X145441668Y-54353894D03*
X144421668Y-54353894D03*
%TD*%
D31*
%TO.C,R2*%
X144431668Y-56053894D03*
X145451668Y-56053894D03*
%TD*%
D17*
%TO.C,C11*%
X152675000Y-72000000D03*
X151715000Y-72000000D03*
%TD*%
D32*
%TO.C,J6*%
X140350000Y-87660000D03*
D33*
X140350000Y-85120000D03*
X140350000Y-82580000D03*
%TD*%
D34*
%TO.C,R8*%
X155825000Y-61790000D03*
X155825000Y-62810000D03*
%TD*%
D35*
%TO.C,R17*%
X177700000Y-46410000D03*
X177700000Y-45390000D03*
%TD*%
%TO.C,R18*%
X187500000Y-46510000D03*
X187500000Y-45490000D03*
%TD*%
D36*
%TO.C,C16*%
X154775000Y-62780000D03*
X154775000Y-61820000D03*
%TD*%
D17*
%TO.C,C18*%
X189830000Y-50500000D03*
X188870000Y-50500000D03*
%TD*%
D37*
%TO.C,Q2*%
X188000000Y-49000000D03*
X189900000Y-49000000D03*
X188950000Y-47125000D03*
%TD*%
D17*
%TO.C,C3*%
X151460000Y-56700000D03*
X150500000Y-56700000D03*
%TD*%
D18*
%TO.C,C8*%
X162175000Y-65160000D03*
X162175000Y-66120000D03*
%TD*%
D35*
%TO.C,R5*%
X155500000Y-96300000D03*
X155500000Y-95280000D03*
%TD*%
D38*
%TO.C,TP1*%
X167100000Y-124700000D03*
%TD*%
D34*
%TO.C,R3*%
X148900000Y-54990000D03*
X148900000Y-56010000D03*
%TD*%
D39*
%TO.C,R13*%
X139225000Y-76700000D03*
X137575000Y-76700000D03*
%TD*%
%TO.C,R14*%
X139150000Y-91700000D03*
X137500000Y-91700000D03*
%TD*%
D40*
%TO.C,U2*%
X153925000Y-68200000D03*
X153925000Y-68600000D03*
X153925000Y-69000000D03*
X153925000Y-69400000D03*
X153925000Y-69800000D03*
X153925000Y-70200000D03*
X153925000Y-70600000D03*
X153925000Y-71000000D03*
X153925000Y-71400000D03*
X153925000Y-71800000D03*
X153925000Y-72200000D03*
X153925000Y-72600000D03*
X153925000Y-73000000D03*
X153925000Y-73400000D03*
X153925000Y-73800000D03*
D41*
X154575000Y-74450000D03*
X154975000Y-74450000D03*
X155375000Y-74450000D03*
X155775000Y-74450000D03*
X156175000Y-74450000D03*
X156575000Y-74450000D03*
X156975000Y-74450000D03*
X157375000Y-74450000D03*
X157775000Y-74450000D03*
X158175000Y-74450000D03*
X158575000Y-74450000D03*
X158975000Y-74450000D03*
X159375000Y-74450000D03*
X159775000Y-74450000D03*
X160175000Y-74450000D03*
D40*
X160825000Y-73800000D03*
X160825000Y-73400000D03*
X160825000Y-73000000D03*
X160825000Y-72600000D03*
X160825000Y-72200000D03*
X160825000Y-71800000D03*
X160825000Y-71400000D03*
X160825000Y-71000000D03*
X160825000Y-70600000D03*
X160825000Y-70200000D03*
X160825000Y-69800000D03*
X160825000Y-69400000D03*
X160825000Y-69000000D03*
X160825000Y-68600000D03*
X160825000Y-68200000D03*
D41*
X160175000Y-67550000D03*
X159775000Y-67550000D03*
X159375000Y-67550000D03*
X158975000Y-67550000D03*
X158575000Y-67550000D03*
X158175000Y-67550000D03*
X157775000Y-67550000D03*
X157375000Y-67550000D03*
X156975000Y-67550000D03*
X156575000Y-67550000D03*
X156175000Y-67550000D03*
X155775000Y-67550000D03*
X155375000Y-67550000D03*
X154975000Y-67550000D03*
X154575000Y-67550000D03*
D42*
X157375000Y-71000000D03*
%TD*%
D43*
%TO.C,J10*%
X177610000Y-123200000D03*
X183390000Y-123200000D03*
D44*
X177250000Y-121755000D03*
X178050000Y-121755000D03*
D45*
X179250000Y-121755000D03*
X180250000Y-121755000D03*
X180750000Y-121755000D03*
X181750000Y-121755000D03*
D44*
X182950000Y-121755000D03*
X183750000Y-121755000D03*
X183750000Y-121755000D03*
X182950000Y-121755000D03*
D45*
X182250000Y-121755000D03*
X181250000Y-121755000D03*
X179750000Y-121755000D03*
X178750000Y-121755000D03*
D44*
X178050000Y-121755000D03*
X177250000Y-121755000D03*
D46*
X176180000Y-122670000D03*
D47*
X176180000Y-126850000D03*
D46*
X184820000Y-122670000D03*
D47*
X184820000Y-126850000D03*
%TD*%
D24*
%TO.C,C22*%
X176675000Y-63550000D03*
X175125000Y-63550000D03*
%TD*%
D26*
%TO.C,D3*%
X134062500Y-91900000D03*
X135937500Y-91900000D03*
%TD*%
D48*
%TO.C,U1*%
X144787500Y-58295000D03*
X144787500Y-59565000D03*
X144787500Y-60835000D03*
X144787500Y-62105000D03*
X151962500Y-62105000D03*
X151962500Y-60835000D03*
X151962500Y-59565000D03*
X151962500Y-58295000D03*
%TD*%
D25*
%TO.C,R27*%
X167620000Y-119200000D03*
X166600000Y-119200000D03*
%TD*%
D18*
%TO.C,C29*%
X149900000Y-123600000D03*
X149900000Y-124560000D03*
%TD*%
D49*
%TO.C,Q1*%
X177350000Y-48262500D03*
X175450000Y-48262500D03*
X176400000Y-50137500D03*
%TD*%
D50*
%TO.C,U4*%
X211500000Y-112600000D03*
X195500000Y-57400000D03*
D51*
X211500000Y-49200000D03*
D52*
X203500000Y-120720000D03*
X203500000Y-49280000D03*
%TD*%
D53*
%TO.C,L1*%
X158765000Y-62040000D03*
X160165000Y-62040000D03*
%TD*%
D32*
%TO.C,J5*%
X140350000Y-72420000D03*
D33*
X140350000Y-69880000D03*
X140350000Y-67340000D03*
%TD*%
D15*
%TO.C,C15*%
X162995000Y-68600000D03*
X163955000Y-68600000D03*
%TD*%
D54*
%TO.C,Y1*%
X155475000Y-84065000D03*
X157675000Y-84065000D03*
X157675000Y-82365000D03*
X155475000Y-82365000D03*
%TD*%
D19*
%TO.C,SW3*%
X182000000Y-111300000D03*
X182000000Y-114700000D03*
%TD*%
D17*
%TO.C,C10*%
X152580000Y-67800000D03*
X151620000Y-67800000D03*
%TD*%
D16*
%TO.C,C4*%
X158625000Y-65440000D03*
X160175000Y-65440000D03*
%TD*%
D43*
%TO.C,J8*%
X159690000Y-46460000D03*
X153910000Y-46460000D03*
D55*
X160050000Y-47905000D03*
X159250000Y-47905000D03*
D56*
X158050000Y-47905000D03*
X157050000Y-47905000D03*
X156550000Y-47905000D03*
X155550000Y-47905000D03*
D55*
X154350000Y-47905000D03*
X153550000Y-47905000D03*
X153550000Y-47905000D03*
X154350000Y-47905000D03*
D56*
X155050000Y-47905000D03*
X156050000Y-47905000D03*
X157550000Y-47905000D03*
X158550000Y-47905000D03*
D55*
X159250000Y-47905000D03*
X160050000Y-47905000D03*
D46*
X161120000Y-46990000D03*
D47*
X161120000Y-42810000D03*
D46*
X152480000Y-46990000D03*
D47*
X152480000Y-42810000D03*
%TD*%
D24*
%TO.C,C21*%
X176675000Y-61500000D03*
X175125000Y-61500000D03*
%TD*%
D35*
%TO.C,R24*%
X182000000Y-120010000D03*
X182000000Y-118990000D03*
%TD*%
D18*
%TO.C,C30*%
X151000000Y-123600000D03*
X151000000Y-124560000D03*
%TD*%
D57*
%TO.C,U3*%
X176400000Y-58050000D03*
X176400000Y-57550000D03*
X176400000Y-57050000D03*
X176400000Y-56550000D03*
X176400000Y-56050000D03*
X173600000Y-56050000D03*
X173600000Y-56550000D03*
X173600000Y-57050000D03*
X173600000Y-57550000D03*
X173600000Y-58050000D03*
D58*
X175000000Y-57050000D03*
%TD*%
D35*
%TO.C,R4*%
X156975000Y-78130000D03*
X156975000Y-77110000D03*
%TD*%
D26*
%TO.C,D1*%
X134062500Y-61400000D03*
X135937500Y-61400000D03*
%TD*%
D34*
%TO.C,R10*%
X172100000Y-54790000D03*
X172100000Y-55810000D03*
%TD*%
%TO.C,R16*%
X158300000Y-49720000D03*
X158300000Y-50740000D03*
%TD*%
D59*
%TO.C,J7*%
X154160000Y-88900000D03*
D33*
X156700000Y-88900000D03*
X159240000Y-88900000D03*
%TD*%
D32*
%TO.C,J4*%
X140350000Y-57180000D03*
D33*
X140350000Y-54640000D03*
X140350000Y-52100000D03*
%TD*%
D17*
%TO.C,C2*%
X158435000Y-80050000D03*
X157475000Y-80050000D03*
%TD*%
D34*
%TO.C,R1*%
X147700000Y-54990000D03*
X147700000Y-56010000D03*
%TD*%
D13*
%TO.C,R12*%
X137600000Y-63050000D03*
X137600000Y-61400000D03*
%TD*%
D60*
%TO.C,C26*%
X134200000Y-94200000D03*
X132300000Y-94200000D03*
%TD*%
D34*
%TO.C,R15*%
X155300000Y-49710000D03*
X155300000Y-50730000D03*
%TD*%
D15*
%TO.C,C27*%
X135520000Y-94700000D03*
X136480000Y-94700000D03*
%TD*%
D34*
%TO.C,R9*%
X156825000Y-61790000D03*
X156825000Y-62810000D03*
%TD*%
D61*
%TO.C,D4*%
X184500000Y-55062500D03*
X184500000Y-56937500D03*
%TD*%
D34*
%TO.C,R6*%
X162175000Y-63120000D03*
X162175000Y-64140000D03*
%TD*%
D15*
%TO.C,C9*%
X162995000Y-70400000D03*
X163955000Y-70400000D03*
%TD*%
D22*
%TO.C,J1*%
X136500000Y-51500000D03*
D23*
X136500000Y-53500000D03*
X136500000Y-55500000D03*
X136500000Y-57500000D03*
%TD*%
D35*
%TO.C,R25*%
X179000000Y-120010000D03*
X179000000Y-118990000D03*
%TD*%
D25*
%TO.C,R26*%
X167610000Y-120300000D03*
X166590000Y-120300000D03*
%TD*%
D18*
%TO.C,C13*%
X162200000Y-74820000D03*
X162200000Y-75780000D03*
%TD*%
D62*
%TO.C,J12*%
X172200000Y-111600000D03*
D63*
X169660000Y-109060000D03*
X169660000Y-114140000D03*
X174740000Y-109060000D03*
X174740000Y-114140000D03*
%TD*%
D15*
%TO.C,C17*%
X175520000Y-46600000D03*
X176480000Y-46600000D03*
%TD*%
D14*
%TO.C,H1*%
X134500000Y-44500000D03*
%TD*%
D36*
%TO.C,C28*%
X151000000Y-122380000D03*
X151000000Y-121420000D03*
%TD*%
M02*
