M48
; DRILL file {KiCad 9.0.2} date 2025-12-08T13:51:15-0800
; FORMAT={-:-/ absolute / metric / decimal}
; #@! TF.CreationDate,2025-12-08T13:51:15-08:00
; #@! TF.GenerationSoftware,Kicad,Pcbnew,9.0.2
; #@! TF.FileFunction,Plated,1,4,PTH
FMAT,2
METRIC
; #@! TA.AperFunction,Plated,PTH,ViaDrill
T1C0.300
; #@! TA.AperFunction,Plated,PTH,ComponentDrill
T2C0.600
; #@! TA.AperFunction,Plated,PTH,ComponentDrill
T3C0.750
; #@! TA.AperFunction,Plated,PTH,ComponentDrill
T4C1.000
; #@! TA.AperFunction,Plated,PTH,ComponentDrill
T5C1.300
; #@! TA.AperFunction,Plated,PTH,ComponentDrill
T6C1.500
; #@! TA.AperFunction,Plated,PTH,ComponentDrill
T7C1.700
; #@! TA.AperFunction,Plated,PTH,ComponentDrill
T8C2.400
; #@! TA.AperFunction,Plated,PTH,ComponentDrill
T9C3.300
%
G90
G05
T1
X131.0Y-48.5
X131.0Y-51.0
X131.0Y-53.5
X131.0Y-56.0
X131.0Y-58.5
X131.0Y-61.0
X131.0Y-63.5
X131.0Y-66.0
X131.0Y-68.5
X131.0Y-71.0
X131.0Y-73.5
X131.0Y-76.0
X131.0Y-78.5
X131.0Y-81.0
X131.0Y-83.5
X131.0Y-86.0
X131.0Y-88.5
X131.0Y-91.0
X131.0Y-93.5
X131.0Y-96.0
X131.0Y-98.5
X131.0Y-101.0
X131.0Y-103.5
X131.0Y-106.0
X131.0Y-108.5
X131.0Y-111.0
X133.5Y-48.5
X133.5Y-51.0
X133.5Y-53.5
X133.5Y-56.0
X133.5Y-58.5
X133.5Y-63.5
X133.5Y-66.0
X133.5Y-68.5
X133.5Y-71.0
X133.5Y-73.5
X133.5Y-78.5
X133.5Y-81.0
X133.5Y-83.5
X133.5Y-86.0
X133.5Y-88.5
X133.5Y-112.0
X134.0Y-105.0
X134.1Y-98.4
X134.1Y-99.7
X134.1Y-101.0
X134.1Y-102.3
X134.1Y-103.6
X135.0Y-105.0
X135.1Y-98.4
X135.1Y-99.7
X135.1Y-101.0
X135.1Y-102.3
X135.1Y-103.6
X135.6Y-93.7
X135.6Y-96.0
X135.6Y-97.3
X136.0Y-63.5
X136.0Y-112.0
X136.5Y-78.5
X137.0Y-75.0
X137.5Y-65.0
X138.1Y-105.5
X138.4Y-52.5
X138.4Y-54.7
X138.5Y-41.0
X138.5Y-43.5
X138.5Y-46.0
X138.5Y-48.5
X138.5Y-96.0
X138.5Y-98.5
X138.5Y-101.0
X138.5Y-103.5
X138.5Y-123.5
X138.5Y-126.0
X138.5Y-128.5
X139.0Y-78.5
X139.5Y-75.0
X140.0Y-65.0
X140.2Y-59.1
X140.2Y-60.8
X141.0Y-41.0
X141.0Y-43.5
X141.0Y-46.0
X141.0Y-48.5
X141.0Y-91.0
X141.0Y-93.5
X141.0Y-98.5
X141.0Y-101.0
X141.0Y-109.0
X141.0Y-123.5
X141.0Y-126.0
X141.0Y-128.5
X142.7Y-78.5
X142.7Y-81.0
X143.0Y-58.0
X143.0Y-59.0
X143.5Y-41.0
X143.5Y-43.5
X143.5Y-46.0
X143.5Y-48.5
X143.5Y-51.0
X143.5Y-88.5
X143.5Y-91.0
X143.5Y-93.5
X143.5Y-98.5
X143.5Y-107.0
X143.5Y-109.0
X143.5Y-112.0
X143.5Y-123.5
X143.5Y-126.0
X143.5Y-128.5
X146.0Y-41.0
X146.0Y-43.5
X146.0Y-76.0
X146.0Y-78.5
X146.0Y-81.0
X146.0Y-83.5
X146.0Y-86.0
X146.0Y-88.5
X146.0Y-91.0
X146.0Y-93.5
X146.0Y-96.0
X146.0Y-106.0
X146.0Y-109.0
X146.0Y-112.0
X146.0Y-123.5
X146.0Y-126.0
X146.0Y-128.5
X147.0Y-45.3
X147.2Y-57.0
X147.2Y-59.0
X147.2Y-61.0
X147.2Y-63.3
X148.0Y-75.0
X148.2Y-93.4
X148.4Y-104.4
X148.5Y-41.0
X148.5Y-43.5
X148.5Y-101.5
X148.5Y-123.5
X148.5Y-126.0
X148.5Y-128.5
X149.0Y-64.9
X149.2Y-57.0
X149.2Y-59.0
X149.2Y-61.0
X149.2Y-63.3
X149.25Y-100.0
X149.25Y-103.4
X149.9Y-70.0
X150.0Y-53.3
X150.0Y-54.8
X150.0Y-122.5
X150.2Y-101.1
X150.2Y-103.4
X150.6Y-67.8
X150.7Y-72.0
X151.0Y-41.0
X151.0Y-43.5
X151.0Y-46.0
X151.0Y-48.5
X151.0Y-51.0
X151.0Y-64.9
X151.0Y-126.0
X151.0Y-128.5
X151.2Y-107.2
X151.2Y-108.6
X151.2Y-110.2
X151.2Y-111.8
X151.2Y-113.4
X151.2Y-115.2
X151.5Y-53.3
X151.5Y-54.8
X152.2Y-104.4
X152.675Y-70.0
X152.8Y-108.6
X152.8Y-116.6
X153.0Y-54.8
X153.0Y-56.3
X153.5Y-41.0
X153.5Y-43.5
X153.5Y-51.0
X153.5Y-80.0
X153.5Y-82.0
X153.5Y-84.0
X153.5Y-91.5
X153.5Y-94.0
X153.5Y-99.0
X153.5Y-101.0
X153.5Y-103.5
X153.5Y-126.0
X153.5Y-128.5
X154.0Y-78.5
X154.0Y-86.0
X154.4Y-122.5
X154.4Y-123.3
X154.4Y-124.1
X154.7Y-60.9
X155.0Y-53.5
X155.2Y-122.5
X155.2Y-123.3
X155.2Y-124.1
X155.575Y-78.3
X156.0Y-41.0
X156.0Y-43.5
X156.0Y-69.65
X156.0Y-71.0
X156.0Y-72.35
X156.0Y-86.0
X156.0Y-94.0
X156.0Y-99.0
X156.0Y-101.0
X156.0Y-103.5
X156.0Y-106.0
X156.0Y-108.5
X156.0Y-126.0
X156.0Y-128.5
X157.0Y-111.0
X157.0Y-113.5
X157.0Y-116.0
X157.0Y-118.5
X157.0Y-121.0
X157.0Y-123.5
X157.375Y-69.65
X157.375Y-71.0
X157.375Y-72.35
X157.475Y-63.6
X157.475Y-64.44
X157.768Y-76.207
X158.0Y-86.0
X158.5Y-41.0
X158.5Y-43.5
X158.5Y-53.5
X158.5Y-56.0
X158.5Y-58.5
X158.5Y-91.5
X158.5Y-94.0
X158.5Y-101.0
X158.5Y-103.5
X158.5Y-106.0
X158.5Y-108.5
X158.5Y-126.0
X158.5Y-128.5
X158.75Y-69.65
X158.75Y-71.0
X158.75Y-72.35
X158.8Y-78.8
X159.5Y-111.0
X159.5Y-113.5
X159.5Y-116.0
X159.5Y-118.5
X159.5Y-121.0
X159.5Y-123.5
X160.0Y-80.0
X160.0Y-82.0
X160.0Y-84.0
X160.0Y-86.0
X161.0Y-41.0
X161.0Y-51.0
X161.0Y-53.5
X161.0Y-56.0
X161.0Y-58.5
X161.0Y-91.5
X161.0Y-99.0
X161.0Y-101.0
X161.0Y-103.5
X161.0Y-106.0
X161.0Y-108.5
X161.0Y-126.0
X161.0Y-128.5
X161.175Y-63.94
X161.175Y-64.74
X161.875Y-66.89
X162.0Y-111.0
X162.0Y-113.5
X162.0Y-116.0
X162.0Y-118.5
X162.0Y-121.0
X162.0Y-123.5
X162.175Y-70.6
X163.1Y-75.8
X163.5Y-41.0
X163.5Y-43.5
X163.5Y-48.5
X163.5Y-51.0
X163.5Y-53.5
X163.5Y-56.0
X163.5Y-58.5
X163.5Y-61.0
X163.5Y-62.5
X163.5Y-64.5
X163.5Y-66.5
X163.5Y-88.5
X163.5Y-91.0
X163.5Y-93.5
X163.5Y-99.0
X163.5Y-101.0
X163.5Y-108.5
X163.5Y-126.0
X163.5Y-128.5
X164.775Y-68.6
X164.775Y-70.4
X164.775Y-71.4
X165.494Y-66.482
X165.5Y-62.5
X165.5Y-64.5
X166.0Y-41.0
X166.0Y-43.5
X166.0Y-48.5
X166.0Y-51.0
X166.0Y-53.5
X166.0Y-56.0
X166.0Y-58.5
X166.0Y-61.0
X166.0Y-91.0
X166.0Y-93.5
X166.0Y-126.0
X166.0Y-128.5
X167.0Y-109.0
X167.0Y-114.0
X168.5Y-41.0
X168.5Y-43.5
X168.5Y-48.5
X168.5Y-51.0
X168.5Y-53.5
X168.5Y-56.0
X168.5Y-58.5
X168.5Y-61.0
X168.5Y-63.5
X168.5Y-66.0
X168.5Y-68.5
X168.5Y-103.5
X168.5Y-106.0
X168.5Y-123.5
X168.5Y-126.0
X168.5Y-128.5
X169.0Y-91.0
X169.5Y-117.0
X171.0Y-41.0
X171.0Y-43.5
X171.0Y-48.5
X171.0Y-51.0
X171.0Y-61.0
X171.0Y-63.5
X171.0Y-66.0
X171.0Y-68.5
X171.0Y-71.0
X171.0Y-73.5
X171.0Y-76.0
X171.0Y-78.5
X171.0Y-81.0
X171.0Y-83.5
X171.0Y-86.0
X171.0Y-88.5
X171.0Y-96.0
X171.0Y-98.5
X171.0Y-101.0
X171.0Y-103.5
X171.0Y-106.0
X171.0Y-121.0
X171.0Y-123.5
X172.1Y-53.8
X172.1Y-108.9
X172.2Y-114.2
X172.5Y-60.5
X173.5Y-41.0
X173.5Y-43.5
X173.5Y-48.5
X173.5Y-51.0
X173.5Y-61.0
X173.5Y-63.5
X173.5Y-66.0
X173.5Y-71.0
X173.5Y-73.5
X173.5Y-76.0
X173.5Y-78.5
X173.5Y-81.0
X173.5Y-83.5
X173.5Y-86.0
X173.5Y-88.5
X173.5Y-96.0
X173.5Y-98.5
X173.5Y-101.0
X173.5Y-103.5
X173.5Y-106.0
X173.5Y-121.0
X173.5Y-123.5
X174.5Y-57.1
X175.0Y-56.2
X175.0Y-57.9
X175.0Y-111.5
X175.0Y-117.0
X175.5Y-57.1
X176.0Y-41.0
X176.0Y-43.5
X176.0Y-71.0
X176.0Y-73.5
X176.0Y-76.0
X176.0Y-78.5
X176.0Y-81.0
X176.0Y-83.5
X176.0Y-86.0
X176.0Y-93.5
X176.0Y-96.0
X176.0Y-98.5
X176.0Y-101.0
X176.0Y-103.5
X176.0Y-106.0
X176.0Y-128.5
X176.7Y-51.8
X178.0Y-60.4
X178.0Y-62.5
X178.0Y-64.5
X178.5Y-41.5
X178.5Y-44.0
X178.5Y-71.0
X178.5Y-73.5
X178.5Y-76.0
X178.5Y-78.5
X178.5Y-81.0
X178.5Y-83.5
X178.5Y-91.0
X178.5Y-93.5
X178.5Y-96.0
X178.5Y-98.5
X178.5Y-101.0
X178.5Y-103.5
X178.5Y-106.0
X178.5Y-108.5
X178.5Y-111.0
X178.5Y-113.5
X178.5Y-116.0
X178.5Y-126.0
X178.5Y-128.5
X179.0Y-53.5
X179.9Y-119.4
X180.0Y-60.4
X180.0Y-62.5
X180.0Y-64.5
X181.0Y-41.5
X181.0Y-44.0
X181.0Y-53.5
X181.0Y-71.0
X181.0Y-73.5
X181.0Y-76.0
X181.0Y-78.5
X181.0Y-81.0
X181.0Y-88.5
X181.0Y-91.0
X181.0Y-93.5
X181.0Y-96.0
X181.0Y-98.5
X181.0Y-101.0
X181.0Y-103.5
X181.0Y-106.0
X181.0Y-108.5
X181.0Y-116.0
X181.0Y-126.0
X181.0Y-128.5
X181.351Y-118.249
X182.0Y-60.4
X182.0Y-62.5
X182.0Y-64.5
X183.5Y-41.5
X183.5Y-44.0
X183.5Y-53.5
X183.5Y-71.0
X183.5Y-78.5
X183.5Y-86.0
X183.5Y-88.5
X183.5Y-91.0
X183.5Y-93.5
X183.5Y-96.0
X183.5Y-98.5
X183.5Y-101.0
X183.5Y-103.5
X183.5Y-106.0
X183.5Y-108.5
X183.5Y-116.0
X183.5Y-126.0
X183.5Y-128.5
X184.0Y-62.5
X184.0Y-64.5
X184.0Y-118.5
X186.0Y-41.5
X186.0Y-44.0
X186.0Y-53.5
X186.0Y-56.0
X186.0Y-58.5
X186.0Y-71.0
X186.0Y-73.5
X186.0Y-83.5
X186.0Y-86.0
X186.0Y-88.5
X186.0Y-91.0
X186.0Y-93.5
X186.0Y-96.0
X186.0Y-98.5
X186.0Y-101.0
X186.0Y-103.5
X186.0Y-106.0
X186.0Y-108.5
X186.0Y-116.0
X186.0Y-118.5
X186.0Y-121.0
X186.0Y-123.5
X186.0Y-126.0
X186.0Y-128.5
X188.5Y-41.5
X188.5Y-44.0
X188.5Y-53.5
X188.5Y-56.0
X188.5Y-58.5
X188.5Y-61.0
X188.5Y-63.5
X188.5Y-71.0
X188.5Y-73.5
X188.5Y-83.5
X188.5Y-86.0
X188.5Y-88.5
X188.5Y-91.0
X188.5Y-93.5
X188.5Y-96.0
X188.5Y-98.5
X188.5Y-101.0
X188.5Y-103.5
X188.5Y-106.0
X188.5Y-108.5
X188.5Y-111.0
X188.5Y-113.5
X188.5Y-116.0
X188.5Y-118.5
X188.5Y-121.0
X188.5Y-123.5
X188.5Y-126.0
X188.5Y-128.5
X191.0Y-41.5
X191.0Y-44.0
X191.0Y-47.5
X191.0Y-49.5
X191.0Y-53.5
X191.0Y-56.0
X191.0Y-58.5
X191.0Y-61.0
X191.0Y-63.5
X191.0Y-103.5
X191.0Y-106.0
X191.0Y-108.5
X191.0Y-111.0
X191.0Y-113.5
X191.0Y-116.0
X191.0Y-118.5
X191.0Y-121.0
X191.0Y-123.5
X191.0Y-126.0
X191.0Y-128.5
X193.5Y-41.5
X193.5Y-44.0
X193.5Y-47.5
X193.5Y-49.5
X193.5Y-53.5
X193.5Y-56.0
X193.5Y-58.5
X193.5Y-61.0
X193.5Y-63.5
X193.5Y-66.0
X193.5Y-78.5
X193.5Y-81.0
X193.5Y-83.5
X193.5Y-86.0
X193.5Y-88.5
X193.5Y-91.0
X193.5Y-93.5
X193.5Y-96.0
X193.5Y-98.5
X193.5Y-101.0
X193.5Y-103.5
X193.5Y-106.0
X193.5Y-108.5
X193.5Y-111.0
X193.5Y-113.5
X193.5Y-116.0
X193.5Y-118.5
X193.5Y-121.0
X193.5Y-123.5
X193.5Y-126.0
X193.5Y-128.5
X196.0Y-41.5
X196.0Y-44.0
X196.0Y-47.5
X196.0Y-49.5
X196.0Y-53.5
X196.0Y-61.0
X196.0Y-63.5
X196.0Y-66.0
X196.0Y-68.5
X196.0Y-71.0
X196.0Y-73.5
X196.0Y-76.0
X196.0Y-78.5
X196.0Y-81.0
X196.0Y-83.5
X196.0Y-86.0
X196.0Y-88.5
X196.0Y-91.0
X196.0Y-93.5
X196.0Y-96.0
X196.0Y-98.5
X196.0Y-101.0
X196.0Y-103.5
X196.0Y-106.0
X196.0Y-108.5
X196.0Y-111.0
X196.0Y-113.5
X196.0Y-116.0
X196.0Y-118.5
X196.0Y-121.0
X196.0Y-123.5
X196.0Y-126.0
X196.0Y-128.5
X198.5Y-41.5
X198.5Y-44.0
X198.5Y-47.5
X198.5Y-49.5
X198.5Y-53.5
X198.5Y-56.0
X198.5Y-58.5
X198.5Y-61.0
X198.5Y-63.5
X198.5Y-66.0
X198.5Y-68.5
X198.5Y-71.0
X198.5Y-73.5
X198.5Y-76.0
X198.5Y-78.5
X198.5Y-81.0
X198.5Y-83.5
X198.5Y-86.0
X198.5Y-88.5
X198.5Y-91.0
X198.5Y-93.5
X198.5Y-96.0
X198.5Y-98.5
X198.5Y-101.0
X198.5Y-103.5
X198.5Y-106.0
X198.5Y-108.5
X198.5Y-111.0
X198.5Y-113.5
X198.5Y-116.0
X198.5Y-118.5
X198.5Y-121.0
X198.5Y-123.5
X198.5Y-126.0
X198.5Y-128.5
X201.0Y-41.5
X201.0Y-44.0
X201.0Y-47.0
X201.0Y-49.0
X201.0Y-51.5
X201.0Y-53.5
X201.0Y-56.0
X201.0Y-58.5
X201.0Y-61.0
X201.0Y-63.5
X201.0Y-66.0
X201.0Y-68.5
X201.0Y-71.0
X201.0Y-73.5
X201.0Y-76.0
X201.0Y-78.5
X201.0Y-81.0
X201.0Y-83.5
X201.0Y-86.0
X201.0Y-88.5
X201.0Y-91.0
X201.0Y-93.5
X201.0Y-96.0
X201.0Y-98.5
X201.0Y-101.0
X201.0Y-103.5
X201.0Y-106.0
X201.0Y-108.5
X201.0Y-111.0
X201.0Y-113.5
X201.0Y-116.0
X201.0Y-118.5
X201.0Y-121.0
X201.0Y-123.5
X201.0Y-126.0
X201.0Y-128.5
X203.5Y-41.5
X203.5Y-44.0
X203.5Y-47.0
X203.5Y-51.5
X203.5Y-53.5
X203.5Y-56.0
X203.5Y-58.5
X203.5Y-61.0
X203.5Y-63.5
X203.5Y-66.0
X203.5Y-68.5
X203.5Y-71.0
X203.5Y-73.5
X203.5Y-76.0
X203.5Y-78.5
X203.5Y-81.0
X203.5Y-83.5
X203.5Y-86.0
X203.5Y-88.5
X203.5Y-91.0
X203.5Y-93.5
X203.5Y-96.0
X203.5Y-98.5
X203.5Y-101.0
X203.5Y-103.5
X203.5Y-106.0
X203.5Y-108.5
X203.5Y-111.0
X203.5Y-113.5
X203.5Y-116.0
X203.5Y-118.5
X203.5Y-123.5
X203.5Y-126.0
X203.5Y-128.5
X206.0Y-41.5
X206.0Y-44.0
X206.0Y-47.0
X206.0Y-49.0
X206.0Y-51.5
X206.0Y-53.5
X206.0Y-56.0
X206.0Y-58.5
X206.0Y-61.0
X206.0Y-63.5
X206.0Y-66.0
X206.0Y-68.5
X206.0Y-71.0
X206.0Y-73.5
X206.0Y-76.0
X206.0Y-78.5
X206.0Y-81.0
X206.0Y-83.5
X206.0Y-86.0
X206.0Y-88.5
X206.0Y-91.0
X206.0Y-93.5
X206.0Y-96.0
X206.0Y-98.5
X206.0Y-101.0
X206.0Y-103.5
X206.0Y-106.0
X206.0Y-108.5
X206.0Y-111.0
X206.0Y-113.5
X206.0Y-116.0
X206.0Y-118.5
X206.0Y-121.0
X206.0Y-123.5
X206.0Y-126.0
X206.0Y-128.5
X208.5Y-41.5
X208.5Y-44.0
X208.5Y-47.0
X208.5Y-49.0
X208.5Y-51.0
X208.5Y-53.5
X208.5Y-56.0
X208.5Y-58.5
X208.5Y-61.0
X208.5Y-63.5
X208.5Y-66.0
X208.5Y-68.5
X208.5Y-71.0
X208.5Y-73.5
X208.5Y-76.0
X208.5Y-78.5
X208.5Y-81.0
X208.5Y-83.5
X208.5Y-86.0
X208.5Y-88.5
X208.5Y-91.0
X208.5Y-93.5
X208.5Y-96.0
X208.5Y-98.5
X208.5Y-101.0
X208.5Y-103.5
X208.5Y-106.0
X208.5Y-108.5
X208.5Y-111.0
X208.5Y-113.5
X208.5Y-116.0
X208.5Y-118.5
X208.5Y-121.0
X208.5Y-123.5
X208.5Y-126.0
X208.5Y-128.5
X211.0Y-41.5
X211.0Y-44.0
X211.0Y-47.0
X211.0Y-51.0
X211.0Y-53.5
X211.0Y-56.0
X211.0Y-58.5
X211.0Y-61.0
X211.0Y-63.5
X211.0Y-66.0
X211.0Y-68.5
X211.0Y-71.0
X211.0Y-73.5
X211.0Y-76.0
X211.0Y-78.5
X211.0Y-81.0
X211.0Y-83.5
X211.0Y-86.0
X211.0Y-88.5
X211.0Y-91.0
X211.0Y-93.5
X211.0Y-96.0
X211.0Y-98.5
X211.0Y-101.0
X211.0Y-103.5
X211.0Y-106.0
X211.0Y-108.5
X211.0Y-116.0
X211.0Y-118.5
X211.0Y-121.0
X211.0Y-123.5
X211.0Y-126.0
X211.0Y-128.5
X213.5Y-51.0
X213.5Y-53.5
X213.5Y-56.0
X213.5Y-58.5
X213.5Y-61.0
X213.5Y-63.5
X213.5Y-66.0
X213.5Y-68.5
X213.5Y-71.0
X213.5Y-73.5
X213.5Y-76.0
X213.5Y-78.5
X213.5Y-81.0
X213.5Y-83.5
X213.5Y-86.0
X213.5Y-88.5
X213.5Y-91.0
X213.5Y-93.5
X213.5Y-96.0
X213.5Y-98.5
X213.5Y-101.0
X213.5Y-103.5
X213.5Y-106.0
X213.5Y-108.5
X213.5Y-111.0
X213.5Y-113.5
X213.5Y-116.0
X213.5Y-118.5
X213.5Y-121.0
X216.0Y-48.5
X216.0Y-51.0
X216.0Y-53.5
X216.0Y-56.0
X216.0Y-58.5
X216.0Y-61.0
X216.0Y-63.5
X216.0Y-66.0
X216.0Y-68.5
X216.0Y-71.0
X216.0Y-73.5
X216.0Y-76.0
X216.0Y-78.5
X216.0Y-81.0
X216.0Y-83.5
X216.0Y-86.0
X216.0Y-88.5
X216.0Y-91.0
X216.0Y-93.5
X216.0Y-96.0
X216.0Y-98.5
X216.0Y-101.0
X216.0Y-103.5
X216.0Y-106.0
X216.0Y-108.5
X216.0Y-111.0
X216.0Y-113.5
X216.0Y-116.0
X216.0Y-118.5
X216.0Y-121.0
T3
X136.5Y-51.5
X136.5Y-53.5
X136.5Y-55.5
X136.5Y-57.5
X136.5Y-66.74
X136.5Y-68.74
X136.5Y-70.74
X136.5Y-72.74
X136.5Y-82.0
X136.5Y-84.0
X136.5Y-86.0
X136.5Y-88.0
T4
X140.35Y-52.1
X140.35Y-54.64
X140.35Y-57.18
X140.35Y-67.34
X140.35Y-69.88
X140.35Y-72.42
X140.35Y-82.58
X140.35Y-85.12
X140.35Y-87.66
X154.16Y-88.9
X156.7Y-88.9
X159.24Y-88.9
T6
X172.2Y-111.6
T7
X169.66Y-109.06
X169.66Y-114.14
X174.74Y-109.06
X174.74Y-114.14
T8
X211.5Y-49.2
T9
X195.5Y-57.4
X211.5Y-112.6
T2
X152.48Y-43.11G85X152.48Y-42.51
G05
X152.48Y-47.54G85X152.48Y-46.44
G05
X161.12Y-43.11G85X161.12Y-42.51
G05
X161.12Y-47.54G85X161.12Y-46.44
G05
X176.18Y-122.12G85X176.18Y-123.22
G05
X176.18Y-126.55G85X176.18Y-127.15
G05
X184.82Y-122.12G85X184.82Y-123.22
G05
X184.82Y-126.55G85X184.82Y-127.15
G05
T5
X204.15Y-49.28G85X202.85Y-49.28
G05
X204.15Y-120.72G85X202.85Y-120.72
G05
M30
