%TF.GenerationSoftware,KiCad,Pcbnew,9.0.2*%
%TF.CreationDate,2025-12-08T13:49:20-08:00*%
%TF.ProjectId,BLV_PCB,424c565f-5043-4422-9e6b-696361645f70,rev?*%
%TF.SameCoordinates,Original*%
%TF.FileFunction,Soldermask,Bot*%
%TF.FilePolarity,Negative*%
%FSLAX46Y46*%
G04 Gerber Fmt 4.6, Leading zero omitted, Abs format (unit mm)*
G04 Created by KiCad (PCBNEW 9.0.2) date 2025-12-08 13:49:20*
%MOMM*%
%LPD*%
G01*
G04 APERTURE LIST*
G04 Aperture macros list*
%AMRoundRect*
0 Rectangle with rounded corners*
0 $1 Rounding radius*
0 $2 $3 $4 $5 $6 $7 $8 $9 X,Y pos of 4 corners*
0 Add a 4 corners polygon primitive as box body*
4,1,4,$2,$3,$4,$5,$6,$7,$8,$9,$2,$3,0*
0 Add four circle primitives for the rounded corners*
1,1,$1+$1,$2,$3*
1,1,$1+$1,$4,$5*
1,1,$1+$1,$6,$7*
1,1,$1+$1,$8,$9*
0 Add four rect primitives between the rounded corners*
20,1,$1+$1,$2,$3,$4,$5,0*
20,1,$1+$1,$4,$5,$6,$7,0*
20,1,$1+$1,$6,$7,$8,$9,0*
20,1,$1+$1,$8,$9,$2,$3,0*%
G04 Aperture macros list end*
%ADD10C,3.400000*%
%ADD11RoundRect,0.291666X-0.683334X0.408334X-0.683334X-0.408334X0.683334X-0.408334X0.683334X0.408334X0*%
%ADD12O,1.950000X1.400000*%
%ADD13RoundRect,0.100000X0.850000X0.850000X-0.850000X0.850000X-0.850000X-0.850000X0.850000X-0.850000X0*%
%ADD14C,1.900000*%
%ADD15C,0.850000*%
%ADD16O,1.200000X2.300000*%
%ADD17O,1.200000X1.800000*%
%ADD18C,3.500000*%
%ADD19C,2.600000*%
%ADD20O,3.700000X2.700000*%
%ADD21RoundRect,0.100000X0.850000X-0.850000X0.850000X0.850000X-0.850000X0.850000X-0.850000X-0.850000X0*%
%ADD22C,2.250000*%
%ADD23C,2.450000*%
G04 APERTURE END LIST*
D10*
%TO.C,H4*%
X134500000Y-125500000D03*
%TD*%
%TO.C,H3*%
X215500000Y-125500000D03*
%TD*%
%TO.C,H2*%
X215500000Y-44500000D03*
%TD*%
D11*
%TO.C,J3*%
X136500000Y-82000000D03*
D12*
X136500000Y-84000000D03*
X136500000Y-86000000D03*
X136500000Y-88000000D03*
%TD*%
D11*
%TO.C,J2*%
X136500000Y-66740000D03*
D12*
X136500000Y-68740000D03*
X136500000Y-70740000D03*
X136500000Y-72740000D03*
%TD*%
D13*
%TO.C,J6*%
X140350000Y-87660000D03*
D14*
X140350000Y-85120000D03*
X140350000Y-82580000D03*
%TD*%
D15*
%TO.C,J10*%
X177610000Y-123200000D03*
X183390000Y-123200000D03*
D16*
X176180000Y-122670000D03*
D17*
X176180000Y-126850000D03*
D16*
X184820000Y-122670000D03*
D17*
X184820000Y-126850000D03*
%TD*%
D18*
%TO.C,U4*%
X211500000Y-112600000D03*
X195500000Y-57400000D03*
D19*
X211500000Y-49200000D03*
D20*
X203500000Y-120720000D03*
X203500000Y-49280000D03*
%TD*%
D13*
%TO.C,J5*%
X140350000Y-72420000D03*
D14*
X140350000Y-69880000D03*
X140350000Y-67340000D03*
%TD*%
D15*
%TO.C,J8*%
X159690000Y-46460000D03*
X153910000Y-46460000D03*
D16*
X161120000Y-46990000D03*
D17*
X161120000Y-42810000D03*
D16*
X152480000Y-46990000D03*
D17*
X152480000Y-42810000D03*
%TD*%
D21*
%TO.C,J7*%
X154160000Y-88900000D03*
D14*
X156700000Y-88900000D03*
X159240000Y-88900000D03*
%TD*%
D13*
%TO.C,J4*%
X140350000Y-57180000D03*
D14*
X140350000Y-54640000D03*
X140350000Y-52100000D03*
%TD*%
D11*
%TO.C,J1*%
X136500000Y-51500000D03*
D12*
X136500000Y-53500000D03*
X136500000Y-55500000D03*
X136500000Y-57500000D03*
%TD*%
D22*
%TO.C,J12*%
X172200000Y-111600000D03*
D23*
X169660000Y-109060000D03*
X169660000Y-114140000D03*
X174740000Y-109060000D03*
X174740000Y-114140000D03*
%TD*%
D10*
%TO.C,H1*%
X134500000Y-44500000D03*
%TD*%
M02*
