%TF.GenerationSoftware,KiCad,Pcbnew,9.0.2*%
%TF.CreationDate,2025-12-08T13:49:20-08:00*%
%TF.ProjectId,BLV_PCB,424c565f-5043-4422-9e6b-696361645f70,rev?*%
%TF.SameCoordinates,Original*%
%TF.FileFunction,Legend,Bot*%
%TF.FilePolarity,Positive*%
%FSLAX46Y46*%
G04 Gerber Fmt 4.6, Leading zero omitted, Abs format (unit mm)*
G04 Created by KiCad (PCBNEW 9.0.2) date 2025-12-08 13:49:20*
%MOMM*%
%LPD*%
G01*
G04 APERTURE LIST*
%ADD10C,0.125000*%
G04 APERTURE END LIST*
D10*
X188274906Y-77371119D02*
X188036811Y-78371119D01*
X188036811Y-78371119D02*
X187846335Y-77656833D01*
X187846335Y-77656833D02*
X187655859Y-78371119D01*
X187655859Y-78371119D02*
X187417764Y-77371119D01*
X186655859Y-78323500D02*
X186751097Y-78371119D01*
X186751097Y-78371119D02*
X186941573Y-78371119D01*
X186941573Y-78371119D02*
X187036811Y-78323500D01*
X187036811Y-78323500D02*
X187084430Y-78228261D01*
X187084430Y-78228261D02*
X187084430Y-77847309D01*
X187084430Y-77847309D02*
X187036811Y-77752071D01*
X187036811Y-77752071D02*
X186941573Y-77704452D01*
X186941573Y-77704452D02*
X186751097Y-77704452D01*
X186751097Y-77704452D02*
X186655859Y-77752071D01*
X186655859Y-77752071D02*
X186608240Y-77847309D01*
X186608240Y-77847309D02*
X186608240Y-77942547D01*
X186608240Y-77942547D02*
X187084430Y-78037785D01*
X184989192Y-78323500D02*
X185084430Y-78371119D01*
X185084430Y-78371119D02*
X185274906Y-78371119D01*
X185274906Y-78371119D02*
X185370144Y-78323500D01*
X185370144Y-78323500D02*
X185417763Y-78275880D01*
X185417763Y-78275880D02*
X185465382Y-78180642D01*
X185465382Y-78180642D02*
X185465382Y-77894928D01*
X185465382Y-77894928D02*
X185417763Y-77799690D01*
X185417763Y-77799690D02*
X185370144Y-77752071D01*
X185370144Y-77752071D02*
X185274906Y-77704452D01*
X185274906Y-77704452D02*
X185084430Y-77704452D01*
X185084430Y-77704452D02*
X184989192Y-77752071D01*
X184132049Y-78371119D02*
X184132049Y-77847309D01*
X184132049Y-77847309D02*
X184179668Y-77752071D01*
X184179668Y-77752071D02*
X184274906Y-77704452D01*
X184274906Y-77704452D02*
X184465382Y-77704452D01*
X184465382Y-77704452D02*
X184560620Y-77752071D01*
X184132049Y-78323500D02*
X184227287Y-78371119D01*
X184227287Y-78371119D02*
X184465382Y-78371119D01*
X184465382Y-78371119D02*
X184560620Y-78323500D01*
X184560620Y-78323500D02*
X184608239Y-78228261D01*
X184608239Y-78228261D02*
X184608239Y-78133023D01*
X184608239Y-78133023D02*
X184560620Y-78037785D01*
X184560620Y-78037785D02*
X184465382Y-77990166D01*
X184465382Y-77990166D02*
X184227287Y-77990166D01*
X184227287Y-77990166D02*
X184132049Y-77942547D01*
X183655858Y-77704452D02*
X183655858Y-78371119D01*
X183655858Y-77799690D02*
X183608239Y-77752071D01*
X183608239Y-77752071D02*
X183513001Y-77704452D01*
X183513001Y-77704452D02*
X183370144Y-77704452D01*
X183370144Y-77704452D02*
X183274906Y-77752071D01*
X183274906Y-77752071D02*
X183227287Y-77847309D01*
X183227287Y-77847309D02*
X183227287Y-78371119D01*
X182703477Y-77371119D02*
X182798715Y-77561595D01*
X182417763Y-77704452D02*
X182036811Y-77704452D01*
X182274906Y-77371119D02*
X182274906Y-78228261D01*
X182274906Y-78228261D02*
X182227287Y-78323500D01*
X182227287Y-78323500D02*
X182132049Y-78371119D01*
X182132049Y-78371119D02*
X182036811Y-78371119D01*
X180560620Y-78323500D02*
X180655858Y-78371119D01*
X180655858Y-78371119D02*
X180846334Y-78371119D01*
X180846334Y-78371119D02*
X180941572Y-78323500D01*
X180941572Y-78323500D02*
X180989191Y-78228261D01*
X180989191Y-78228261D02*
X180989191Y-77847309D01*
X180989191Y-77847309D02*
X180941572Y-77752071D01*
X180941572Y-77752071D02*
X180846334Y-77704452D01*
X180846334Y-77704452D02*
X180655858Y-77704452D01*
X180655858Y-77704452D02*
X180560620Y-77752071D01*
X180560620Y-77752071D02*
X180513001Y-77847309D01*
X180513001Y-77847309D02*
X180513001Y-77942547D01*
X180513001Y-77942547D02*
X180989191Y-78037785D01*
X180179667Y-77704452D02*
X179941572Y-78371119D01*
X179941572Y-78371119D02*
X179703477Y-77704452D01*
X178941572Y-78323500D02*
X179036810Y-78371119D01*
X179036810Y-78371119D02*
X179227286Y-78371119D01*
X179227286Y-78371119D02*
X179322524Y-78323500D01*
X179322524Y-78323500D02*
X179370143Y-78228261D01*
X179370143Y-78228261D02*
X179370143Y-77847309D01*
X179370143Y-77847309D02*
X179322524Y-77752071D01*
X179322524Y-77752071D02*
X179227286Y-77704452D01*
X179227286Y-77704452D02*
X179036810Y-77704452D01*
X179036810Y-77704452D02*
X178941572Y-77752071D01*
X178941572Y-77752071D02*
X178893953Y-77847309D01*
X178893953Y-77847309D02*
X178893953Y-77942547D01*
X178893953Y-77942547D02*
X179370143Y-78037785D01*
X178465381Y-77704452D02*
X178465381Y-78371119D01*
X178465381Y-77799690D02*
X178417762Y-77752071D01*
X178417762Y-77752071D02*
X178322524Y-77704452D01*
X178322524Y-77704452D02*
X178179667Y-77704452D01*
X178179667Y-77704452D02*
X178084429Y-77752071D01*
X178084429Y-77752071D02*
X178036810Y-77847309D01*
X178036810Y-77847309D02*
X178036810Y-78371119D01*
X176370143Y-78371119D02*
X176370143Y-77847309D01*
X176370143Y-77847309D02*
X176417762Y-77752071D01*
X176417762Y-77752071D02*
X176513000Y-77704452D01*
X176513000Y-77704452D02*
X176703476Y-77704452D01*
X176703476Y-77704452D02*
X176798714Y-77752071D01*
X176370143Y-78323500D02*
X176465381Y-78371119D01*
X176465381Y-78371119D02*
X176703476Y-78371119D01*
X176703476Y-78371119D02*
X176798714Y-78323500D01*
X176798714Y-78323500D02*
X176846333Y-78228261D01*
X176846333Y-78228261D02*
X176846333Y-78133023D01*
X176846333Y-78133023D02*
X176798714Y-78037785D01*
X176798714Y-78037785D02*
X176703476Y-77990166D01*
X176703476Y-77990166D02*
X176465381Y-77990166D01*
X176465381Y-77990166D02*
X176370143Y-77942547D01*
X176036809Y-77704452D02*
X175655857Y-77704452D01*
X175893952Y-78371119D02*
X175893952Y-77513976D01*
X175893952Y-77513976D02*
X175846333Y-77418738D01*
X175846333Y-77418738D02*
X175751095Y-77371119D01*
X175751095Y-77371119D02*
X175655857Y-77371119D01*
X175465380Y-77704452D02*
X175084428Y-77704452D01*
X175322523Y-78371119D02*
X175322523Y-77513976D01*
X175322523Y-77513976D02*
X175274904Y-77418738D01*
X175274904Y-77418738D02*
X175179666Y-77371119D01*
X175179666Y-77371119D02*
X175084428Y-77371119D01*
X174608237Y-78371119D02*
X174703475Y-78323500D01*
X174703475Y-78323500D02*
X174751094Y-78275880D01*
X174751094Y-78275880D02*
X174798713Y-78180642D01*
X174798713Y-78180642D02*
X174798713Y-77894928D01*
X174798713Y-77894928D02*
X174751094Y-77799690D01*
X174751094Y-77799690D02*
X174703475Y-77752071D01*
X174703475Y-77752071D02*
X174608237Y-77704452D01*
X174608237Y-77704452D02*
X174465380Y-77704452D01*
X174465380Y-77704452D02*
X174370142Y-77752071D01*
X174370142Y-77752071D02*
X174322523Y-77799690D01*
X174322523Y-77799690D02*
X174274904Y-77894928D01*
X174274904Y-77894928D02*
X174274904Y-78180642D01*
X174274904Y-78180642D02*
X174322523Y-78275880D01*
X174322523Y-78275880D02*
X174370142Y-78323500D01*
X174370142Y-78323500D02*
X174465380Y-78371119D01*
X174465380Y-78371119D02*
X174608237Y-78371119D01*
X173846332Y-78371119D02*
X173846332Y-77704452D01*
X173846332Y-77894928D02*
X173798713Y-77799690D01*
X173798713Y-77799690D02*
X173751094Y-77752071D01*
X173751094Y-77752071D02*
X173655856Y-77704452D01*
X173655856Y-77704452D02*
X173560618Y-77704452D01*
X172798713Y-78371119D02*
X172798713Y-77371119D01*
X172798713Y-78323500D02*
X172893951Y-78371119D01*
X172893951Y-78371119D02*
X173084427Y-78371119D01*
X173084427Y-78371119D02*
X173179665Y-78323500D01*
X173179665Y-78323500D02*
X173227284Y-78275880D01*
X173227284Y-78275880D02*
X173274903Y-78180642D01*
X173274903Y-78180642D02*
X173274903Y-77894928D01*
X173274903Y-77894928D02*
X173227284Y-77799690D01*
X173227284Y-77799690D02*
X173179665Y-77752071D01*
X173179665Y-77752071D02*
X173084427Y-77704452D01*
X173084427Y-77704452D02*
X172893951Y-77704452D01*
X172893951Y-77704452D02*
X172798713Y-77752071D01*
X171560617Y-78371119D02*
X171560617Y-77371119D01*
X171560617Y-77371119D02*
X171322522Y-77371119D01*
X171322522Y-77371119D02*
X171179665Y-77418738D01*
X171179665Y-77418738D02*
X171084427Y-77513976D01*
X171084427Y-77513976D02*
X171036808Y-77609214D01*
X171036808Y-77609214D02*
X170989189Y-77799690D01*
X170989189Y-77799690D02*
X170989189Y-77942547D01*
X170989189Y-77942547D02*
X171036808Y-78133023D01*
X171036808Y-78133023D02*
X171084427Y-78228261D01*
X171084427Y-78228261D02*
X171179665Y-78323500D01*
X171179665Y-78323500D02*
X171322522Y-78371119D01*
X171322522Y-78371119D02*
X171560617Y-78371119D01*
X170417760Y-78371119D02*
X170512998Y-78323500D01*
X170512998Y-78323500D02*
X170560617Y-78275880D01*
X170560617Y-78275880D02*
X170608236Y-78180642D01*
X170608236Y-78180642D02*
X170608236Y-77894928D01*
X170608236Y-77894928D02*
X170560617Y-77799690D01*
X170560617Y-77799690D02*
X170512998Y-77752071D01*
X170512998Y-77752071D02*
X170417760Y-77704452D01*
X170417760Y-77704452D02*
X170274903Y-77704452D01*
X170274903Y-77704452D02*
X170179665Y-77752071D01*
X170179665Y-77752071D02*
X170132046Y-77799690D01*
X170132046Y-77799690D02*
X170084427Y-77894928D01*
X170084427Y-77894928D02*
X170084427Y-78180642D01*
X170084427Y-78180642D02*
X170132046Y-78275880D01*
X170132046Y-78275880D02*
X170179665Y-78323500D01*
X170179665Y-78323500D02*
X170274903Y-78371119D01*
X170274903Y-78371119D02*
X170417760Y-78371119D01*
X169227284Y-77704452D02*
X169227284Y-78371119D01*
X169655855Y-77704452D02*
X169655855Y-78228261D01*
X169655855Y-78228261D02*
X169608236Y-78323500D01*
X169608236Y-78323500D02*
X169512998Y-78371119D01*
X169512998Y-78371119D02*
X169370141Y-78371119D01*
X169370141Y-78371119D02*
X169274903Y-78323500D01*
X169274903Y-78323500D02*
X169227284Y-78275880D01*
X168751093Y-78371119D02*
X168751093Y-77371119D01*
X168751093Y-77752071D02*
X168655855Y-77704452D01*
X168655855Y-77704452D02*
X168465379Y-77704452D01*
X168465379Y-77704452D02*
X168370141Y-77752071D01*
X168370141Y-77752071D02*
X168322522Y-77799690D01*
X168322522Y-77799690D02*
X168274903Y-77894928D01*
X168274903Y-77894928D02*
X168274903Y-78180642D01*
X168274903Y-78180642D02*
X168322522Y-78275880D01*
X168322522Y-78275880D02*
X168370141Y-78323500D01*
X168370141Y-78323500D02*
X168465379Y-78371119D01*
X168465379Y-78371119D02*
X168655855Y-78371119D01*
X168655855Y-78371119D02*
X168751093Y-78323500D01*
X167703474Y-78371119D02*
X167798712Y-78323500D01*
X167798712Y-78323500D02*
X167846331Y-78228261D01*
X167846331Y-78228261D02*
X167846331Y-77371119D01*
X166941569Y-78323500D02*
X167036807Y-78371119D01*
X167036807Y-78371119D02*
X167227283Y-78371119D01*
X167227283Y-78371119D02*
X167322521Y-78323500D01*
X167322521Y-78323500D02*
X167370140Y-78228261D01*
X167370140Y-78228261D02*
X167370140Y-77847309D01*
X167370140Y-77847309D02*
X167322521Y-77752071D01*
X167322521Y-77752071D02*
X167227283Y-77704452D01*
X167227283Y-77704452D02*
X167036807Y-77704452D01*
X167036807Y-77704452D02*
X166941569Y-77752071D01*
X166941569Y-77752071D02*
X166893950Y-77847309D01*
X166893950Y-77847309D02*
X166893950Y-77942547D01*
X166893950Y-77942547D02*
X167370140Y-78037785D01*
X166465378Y-77990166D02*
X165703474Y-77990166D01*
X165274902Y-78323500D02*
X165132045Y-78371119D01*
X165132045Y-78371119D02*
X164893950Y-78371119D01*
X164893950Y-78371119D02*
X164798712Y-78323500D01*
X164798712Y-78323500D02*
X164751093Y-78275880D01*
X164751093Y-78275880D02*
X164703474Y-78180642D01*
X164703474Y-78180642D02*
X164703474Y-78085404D01*
X164703474Y-78085404D02*
X164751093Y-77990166D01*
X164751093Y-77990166D02*
X164798712Y-77942547D01*
X164798712Y-77942547D02*
X164893950Y-77894928D01*
X164893950Y-77894928D02*
X165084426Y-77847309D01*
X165084426Y-77847309D02*
X165179664Y-77799690D01*
X165179664Y-77799690D02*
X165227283Y-77752071D01*
X165227283Y-77752071D02*
X165274902Y-77656833D01*
X165274902Y-77656833D02*
X165274902Y-77561595D01*
X165274902Y-77561595D02*
X165227283Y-77466357D01*
X165227283Y-77466357D02*
X165179664Y-77418738D01*
X165179664Y-77418738D02*
X165084426Y-77371119D01*
X165084426Y-77371119D02*
X164846331Y-77371119D01*
X164846331Y-77371119D02*
X164703474Y-77418738D01*
X164274902Y-78371119D02*
X164274902Y-77704452D01*
X164274902Y-77371119D02*
X164322521Y-77418738D01*
X164322521Y-77418738D02*
X164274902Y-77466357D01*
X164274902Y-77466357D02*
X164227283Y-77418738D01*
X164227283Y-77418738D02*
X164274902Y-77371119D01*
X164274902Y-77371119D02*
X164274902Y-77466357D01*
X163370141Y-78371119D02*
X163370141Y-77371119D01*
X163370141Y-78323500D02*
X163465379Y-78371119D01*
X163465379Y-78371119D02*
X163655855Y-78371119D01*
X163655855Y-78371119D02*
X163751093Y-78323500D01*
X163751093Y-78323500D02*
X163798712Y-78275880D01*
X163798712Y-78275880D02*
X163846331Y-78180642D01*
X163846331Y-78180642D02*
X163846331Y-77894928D01*
X163846331Y-77894928D02*
X163798712Y-77799690D01*
X163798712Y-77799690D02*
X163751093Y-77752071D01*
X163751093Y-77752071D02*
X163655855Y-77704452D01*
X163655855Y-77704452D02*
X163465379Y-77704452D01*
X163465379Y-77704452D02*
X163370141Y-77752071D01*
X162512998Y-78323500D02*
X162608236Y-78371119D01*
X162608236Y-78371119D02*
X162798712Y-78371119D01*
X162798712Y-78371119D02*
X162893950Y-78323500D01*
X162893950Y-78323500D02*
X162941569Y-78228261D01*
X162941569Y-78228261D02*
X162941569Y-77847309D01*
X162941569Y-77847309D02*
X162893950Y-77752071D01*
X162893950Y-77752071D02*
X162798712Y-77704452D01*
X162798712Y-77704452D02*
X162608236Y-77704452D01*
X162608236Y-77704452D02*
X162512998Y-77752071D01*
X162512998Y-77752071D02*
X162465379Y-77847309D01*
X162465379Y-77847309D02*
X162465379Y-77942547D01*
X162465379Y-77942547D02*
X162941569Y-78037785D01*
X161608236Y-78371119D02*
X161608236Y-77371119D01*
X161608236Y-78323500D02*
X161703474Y-78371119D01*
X161703474Y-78371119D02*
X161893950Y-78371119D01*
X161893950Y-78371119D02*
X161989188Y-78323500D01*
X161989188Y-78323500D02*
X162036807Y-78275880D01*
X162036807Y-78275880D02*
X162084426Y-78180642D01*
X162084426Y-78180642D02*
X162084426Y-77894928D01*
X162084426Y-77894928D02*
X162036807Y-77799690D01*
X162036807Y-77799690D02*
X161989188Y-77752071D01*
X161989188Y-77752071D02*
X161893950Y-77704452D01*
X161893950Y-77704452D02*
X161703474Y-77704452D01*
X161703474Y-77704452D02*
X161608236Y-77752071D01*
X160370140Y-78371119D02*
X160370140Y-77371119D01*
X160370140Y-77371119D02*
X159989188Y-77371119D01*
X159989188Y-77371119D02*
X159893950Y-77418738D01*
X159893950Y-77418738D02*
X159846331Y-77466357D01*
X159846331Y-77466357D02*
X159798712Y-77561595D01*
X159798712Y-77561595D02*
X159798712Y-77704452D01*
X159798712Y-77704452D02*
X159846331Y-77799690D01*
X159846331Y-77799690D02*
X159893950Y-77847309D01*
X159893950Y-77847309D02*
X159989188Y-77894928D01*
X159989188Y-77894928D02*
X160370140Y-77894928D01*
X158798712Y-78275880D02*
X158846331Y-78323500D01*
X158846331Y-78323500D02*
X158989188Y-78371119D01*
X158989188Y-78371119D02*
X159084426Y-78371119D01*
X159084426Y-78371119D02*
X159227283Y-78323500D01*
X159227283Y-78323500D02*
X159322521Y-78228261D01*
X159322521Y-78228261D02*
X159370140Y-78133023D01*
X159370140Y-78133023D02*
X159417759Y-77942547D01*
X159417759Y-77942547D02*
X159417759Y-77799690D01*
X159417759Y-77799690D02*
X159370140Y-77609214D01*
X159370140Y-77609214D02*
X159322521Y-77513976D01*
X159322521Y-77513976D02*
X159227283Y-77418738D01*
X159227283Y-77418738D02*
X159084426Y-77371119D01*
X159084426Y-77371119D02*
X158989188Y-77371119D01*
X158989188Y-77371119D02*
X158846331Y-77418738D01*
X158846331Y-77418738D02*
X158798712Y-77466357D01*
X158036807Y-77847309D02*
X157893950Y-77894928D01*
X157893950Y-77894928D02*
X157846331Y-77942547D01*
X157846331Y-77942547D02*
X157798712Y-78037785D01*
X157798712Y-78037785D02*
X157798712Y-78180642D01*
X157798712Y-78180642D02*
X157846331Y-78275880D01*
X157846331Y-78275880D02*
X157893950Y-78323500D01*
X157893950Y-78323500D02*
X157989188Y-78371119D01*
X157989188Y-78371119D02*
X158370140Y-78371119D01*
X158370140Y-78371119D02*
X158370140Y-77371119D01*
X158370140Y-77371119D02*
X158036807Y-77371119D01*
X158036807Y-77371119D02*
X157941569Y-77418738D01*
X157941569Y-77418738D02*
X157893950Y-77466357D01*
X157893950Y-77466357D02*
X157846331Y-77561595D01*
X157846331Y-77561595D02*
X157846331Y-77656833D01*
X157846331Y-77656833D02*
X157893950Y-77752071D01*
X157893950Y-77752071D02*
X157941569Y-77799690D01*
X157941569Y-77799690D02*
X158036807Y-77847309D01*
X158036807Y-77847309D02*
X158370140Y-77847309D01*
X157417759Y-78085404D02*
X156941569Y-78085404D01*
X157512997Y-78371119D02*
X157179664Y-77371119D01*
X157179664Y-77371119D02*
X156846331Y-78371119D01*
M02*
